<?xml version="1.0" encoding="UTF-8"?>
<!-- Created with Inkscape (http://www.inkscape.org/) -->
<!-- Created by Toshi Taperek 2023 (flagpole-undrilled@proton.me) -->
<svg width="500" height="500" version="1.1" viewBox="0 0 500 500" xmlns="http://www.w3.org/2000/svg">
 <g stroke-width="0">
  <circle cx="250" cy="250" r="245.08" fill="#8f1f1e"/>
  <ellipse cx="250" cy="250" rx="197.14" ry="197.14" fill="#fff"/>
  <circle cx="250" cy="250" r="195.04" fill="#d60000"/>
 </g>
 <g transform="translate(-3.2 -.00031837)">
  <path d="m192.61 419.94-97.336-97.525c-14.979-14.032 1.7194-46.58 29.377-32.962m189.14 130.49 97.336-97.525c14.979-14.032-1.7194-46.58-29.377-32.962" fill="none" stroke="#fff" stroke-linecap="round" stroke-width="4.6"/>
  <g fill="#fff">
   <path d="m127.33 323.27 77.755 77.456m173.98-77.456-77.755 77.456" stroke="#fff" stroke-linecap="round" stroke-width="7.2"/>
   <path d="m122.06 347.46 23.108-4.4686m40.68 69.149 4.8737-24.952m193.62-39.728-23.108-4.4686m-40.68 69.149-4.8737-24.952" stroke="#fff" stroke-width="3"/>
   <path d="m195.42 387.06h5.3318l7.1634 7.1634v4.999zm-13.4-13.4h5.3318l7.1634 7.1634v4.999zm-13.4-13.4h5.3318l7.1634 7.1634v4.999zm-13.4-13.4h5.3318l7.1634 7.1634v4.999zm-13.4-13.4h5.3318l7.1634 7.1634v4.999zm-13.4-13.4h5.3318l7.1634 7.1634v4.999zm182.57 67h-5.3318l-7.1634 7.1634v4.999zm13.4-13.4h-5.3318l-7.1634 7.1634v4.999zm13.4-13.4h-5.3318l-7.1634 7.1634v4.999zm13.4-13.4h-5.3318l-7.1634 7.1634v4.999zm13.4-13.4h-5.3318l-7.1634 7.1634v4.999zm13.4-13.4h-5.3318l-7.1634 7.1634v4.999z" stroke-width="0"/>
  </g>
 </g>
 <g fill="#fff">
  <path d="m252.99 72.904c-0.0504-0.0012-19.066 24.631-20.369 26.385-0.0478 0.06426-3.4578-1.5167-7.577-3.513-4.1192-1.9963-7.5888-3.6636-7.711-3.7061l-0.22188-0.07799-2.9347 5.2474-2.9348 5.2474-3.9864 3.5589-3.9855 3.5589-3.1469 6.3922c-1.7305 3.5158-3.2983 6.7034-3.4841 7.084-0.18582 0.38058-0.31794 0.69184-0.29375 0.69184 0.0243 0 1.5522-0.77063 3.3954-1.7127 1.8432-0.94204 3.4445-1.7454 3.5586-1.7851 0.13426-0.0467 0.8402 0.54746 1.9976 1.6805 0.9844 0.96363 1.8458 1.7714 1.9142 1.7955 0.15781 0.0557 9.8882-2.2187 10.084-2.357 0.0799-0.0565 0.43635-0.8673 0.7916-1.8012l0.64606-1.6974 3.0989-0.98223c1.9158-0.60716 3.1235-1.0579 3.1637-1.1801 0.11719-0.35575 0.80582-3.7422 0.80582-3.9627 0-0.13084-1.2113-0.98191-3.0901-2.1712-3.6702-2.3233-3.0225-1.5547-4.3955-5.2193l-1.1422-3.0473 0.49431-1.8438c0.58515-2.1842 0.27353-2.0193 3.3208-1.7593 1.3559 0.11576 2.5679 0.21077 2.6934 0.21077 0.15197 0 0.80989 1.0452 1.9702 3.1301l1.742 3.1301 2.563 1.8358 2.5638 1.8358 0.97442 1.7891 0.9744 1.7883 3.4699 0.52771 3.4708 0.52693 0.30172 1.016 0.30084 1.0152 9.6953 6.8451 0.4597-0.0612c0.25264-0.0334 3.6559-0.38096 7.5628-0.77228 3.9068-0.3913 7.128-0.73456 7.159-0.76261 0.031-0.0281-1.0892-0.81692-2.4893-1.7529-1.8413-1.231-2.5213-1.7566-2.4582-1.9009 0.0479-0.10966 0.32065-0.76172 0.60611-1.4488l0.51916-1.2493-0.77385-5.2748c-0.42586-2.9012-0.78664-5.2912-0.80137-5.311-0.0154-0.0198-0.47235 0.1453-1.017 0.36683-1.2189 0.49572-0.91852 0.89037-2.7493-3.6112l-1.5486-3.8083-0.98507-5.0222-0.98506-5.023-1.5894-1.2099c-0.87444-0.66513-1.5903-1.2579-1.5903-1.3177 0-0.40049 1.8938-4.2624 2.0615-4.2041 0.13791 0.04798 4.6414 3.1603 6.1287 4.2354 0.0263 0.01898 0.92642 2.3974 2.0003 5.2852 1.0739 2.8879 2.2487 6.0235 2.6108 6.9682l0.65848 1.7175 5.8669 4.6747c3.2269 2.5711 5.8428 4.7123 5.8128 4.7583-0.03 0.046-1.9185 1.2324-4.1967 2.6362-4.9062 3.0231-4.6726 2.4941-1.6524 3.7528l2.4955 1.0402 1.8086 1.9331 1.8077 1.9323 1.403 0.0845c0.77145 0.0462 1.5326 0.0958 1.6915 0.11023l0.28841 0.0258 0.46856 1.5654c0.25766 0.86086 0.49281 1.5874 0.52271 1.6146 0.0977 0.0886 8.5913 2.4166 8.6437 2.3691 0.028-0.0254-0.92461-1.0706-2.1165-2.3224l-2.1672-2.2766-0.0878-1.127c-0.0482-0.62018-0.0741-1.14-0.0567-1.1544 0.0173-0.0143 2.0602 0.32166 4.5393 0.74654 2.479 0.42489 4.6049 0.77502 4.7238 0.77791 0.11901 3e-3 -0.75896-0.88007-1.9506-1.9621l-2.1662-1.9677 0.31681-1.7561c0.17449-0.96586 0.31857-1.875 0.31949-2.02 9.2e-4 -0.16793-0.69216-0.86247-1.9107-1.9138l-1.9133-1.6499 0.83421-1.5132c0.45882-0.83211 0.85677-1.5346 0.88389-1.5614 0.0272-0.0268 0.6906 0.28929 1.474 0.7023l1.4244 0.75056 2.4307 3.1985 2.4316 3.1985 2.8709 1.5695c1.5792 0.86295 3.2007 1.7444 3.603 1.9588l0.73125 0.38936-2.3961-2.2613-2.397-2.2613-4.1009-7.2224c-2.3856-4.2016-4.1747-7.2066-4.2766-7.1837-0.0962 0.02154-3.4675 1.312-7.4909 2.867-4.0235 1.5551-7.4002 2.8268-7.5042 2.8268-0.10406 0-1.7382-1.4085-3.6314-3.1301l-3.4424-3.1301-3.7565-7.7107-3.7575-7.7098-1.0951-0.48026-1.096-0.47946-2.8265-3.5034c-1.5549-1.9268-2.8602-3.504-2.9002-3.505z" stroke-width="0"/>
  <path transform="matrix(-.99695 0 0 1 504.15 -.00027792)" d="m369.14 128.3c0.2467-0.02475 0.48846-0.01453 0.72683 0.03125 0.63566 0.12208 1.2467 0.49276 1.8533 1.0996 2.3976 2.3985 1.7396 9.5341-1.7906 19.434-4.9256 13.812-14.063 27.445-26.297 39.232-2.626 2.5302-4.7744 4.8927-4.7744 5.25l28 3.7441c8.3026 1.2551 12.881 0.48158 21.201-3.584 3.6856-1.8009 6.9314-3.0457 7.2115-2.7656 0.81805 0.81805-2.3097 7.5174-4.7097 10.088-2.8799 3.0845-6.9733 5.168-10.152 5.168-1.4023 0-2.5508 0.40143-2.5508 0.89258 0 1.271 2.612 2.1074 6.5826 2.1074 2.142 0 3.4186 0.48619 3.4186 1.3027 0 2.0303-5.8784 9.5242-7.999 10.197-1.0462 0.33205-4.7732-0.54582-8.2812-1.9492-7.1549-2.8624-7.7208-2.9747-7.7208-1.5273 0 0.56351 2.0251 2.2492 4.5001 3.7441 2.475 1.4949 4.5001 3.2212 4.5001 3.8379 0 0.6167-1.7693 2.3489-3.9319 3.8476-4.5071 3.1235-6.193 2.9003-11.087-1.4688-1.8383-1.6413-4.3859-2.9844-5.6618-2.9844-2.7198 0-3.1005 1.6173-0.5701 2.4219 0.9625 0.30602 3.452 2.0274 5.5325 3.8262l3.783 3.2715-4.4903 4.4062c-6.0889 5.9758-8.2115 4.7902-16.08-0.62891-5.4092-3.7252-11.865-8.104-16.074-4.748-1.9353 1.5429-1.3941 4.0748-0.40357 9.6777 0.81541 4.6102 1.0534 12.228 0.80911 16.883-0.4159 7.9239-1.2425 13.444-6.6668 24.178-3.1863 6.3052-5.2265 9.7612-7.8815 14.174-2.6549 4.4126-10.914 14.004-13.745 19.826-12.426 25.558-0.10134 36.192-15.532 41.99-2.9507 1.1087-11.292 0.96238-18.302-0.91601-7.0104-1.8784-8.2432-1.8784-15.254 0-7.0104 1.8784-15.351 2.0248-18.302 0.91601-15.43-5.7981-3.1057-16.432-15.532-41.99-2.8309-5.8226-11.09-15.414-13.745-19.826-2.655-4.4126-4.6952-7.8686-7.8815-14.174-5.4243-10.734-6.2509-16.254-6.6668-24.178-0.2443-4.6546-0.0063-12.273 0.80911-16.883 0.99057-5.603 1.5318-8.1348-0.40358-9.6777-4.2094-3.3559-10.665 1.0229-16.074 4.748-7.8689 5.4191-9.9914 6.6047-16.08 0.62891l-4.4903-4.4062 3.783-3.2715c2.0805-1.7988 4.57-3.5202 5.5325-3.8262 2.5304-0.80454 2.1497-2.4219-0.5701-2.4219-1.2759 0-3.8235 1.3431-5.6618 2.9844-4.8936 4.369-6.5794 4.5922-11.087 1.4688-2.1626-1.4987-3.9319-3.231-3.9319-3.8476 0-0.61671 2.0251-2.343 4.5001-3.8379 2.475-1.495 4.5001-3.1806 4.5001-3.7441 0-1.4474-0.56598-1.3351-7.7208 1.5273-3.5079 1.4034-7.235 2.2813-8.2812 1.9492-2.1206-0.67307-7.999-8.167-7.999-10.197 0-0.81654 1.2766-1.3027 3.4186-1.3027 3.9705 0 6.5826-0.83638 6.5826-2.1074 0-0.49115-1.1485-0.89258-2.5508-0.89258-3.1788 0-7.2721-2.0835-10.152-5.168-2.4-2.5705-5.5278-9.2698-4.7097-10.088 0.28011-0.28012 3.5259 0.96474 7.2115 2.7656 8.3202 4.0656 12.899 4.8391 21.201 3.584l28-3.7441c0-0.35731-2.1484-2.7198-4.7744-5.25-12.234-11.787-21.372-25.42-26.297-39.232-3.5303-9.8995-4.1882-17.035-1.7906-19.434 2.4265-2.4274 4.9079-1.0726 8.861 4.8359 9.587 14.329 34.737 34.448 50.034 40.027l7.5152 2.7402 5.9753-5.7949c5.1032-4.9482 14.553-9.6033 27.812-12.328 13.258-2.7248 19.929-2.7248 33.187 0 13.258 2.7248 22.708 7.38 27.812 12.328 1.992 1.9315 5.9753 5.7949 5.9753 5.7949l7.5151-2.7402c15.297-5.5789 40.447-25.698 50.034-40.027 2.5943-3.8775 4.554-5.7936 6.2809-5.9668zm-59.653 99.236-19.666 14.127c8.4784 11.091-5.4036 22.316-14.613 10.494l-8.814 6.332c17.645 15.116 52.005-14.423 43.093-30.953zm-109.11 0c-8.9128 16.531 25.447 46.069 43.093 30.953l-8.814-6.332c-9.2094 11.821-23.091 0.59671-14.613-10.494l-19.666-14.127zm34.58 77.775c-2.9862-0.08244-5.9546 1.3511-7.4838 3.957-1.661 2.5746-1.2596 5.7539-1.1676 8.6543 0.50608 5.2342 0.51368 10.666-1.2969 15.674-1.1819 2.7304-1.974 5.6893-1.7906 8.6855-0.0103 2.8695 1.0125 5.7053 2.8388 7.9219 1.6544 2.2154 4.2505 3.57 6.9607 3.9785 2.6987 0.60577 5.4945-0.13324 7.8658-1.4473 2.4431-1.5382 5.3228-2.1481 8.1558-2.4883 5.1808-0.57606 10.505-0.62739 15.598 0.60547 1.6259 0.28169 3.0472 1.1264 4.4335 1.9726 2.6124 1.6214 5.8845 1.9622 8.8277 1.1484 2.6985-0.61419 5.0739-2.3293 6.5611-4.6484 1.3816-1.9795 2.1223-4.3507 2.1766-6.7578 0.13852-2.5525-0.22258-5.1334-1.2205-7.498-1.7051-4.0459-2.2811-8.4761-2.1276-12.84 0.09907-2.7752 0.43594-5.5416 0.37615-8.3223-0.0169-2.8991-1.3905-5.879-3.9809-7.3457-2.8524-1.7812-6.4859-1.4524-9.4997-0.27344-2.2333 0.92418-4.5543 1.6085-6.7981 2.5039-3.5062 1.513-7.4089 2.2238-11.208 1.6172-2.9278-0.33796-5.5875-1.6584-8.3478-2.5898-2.922-0.93478-5.7284-2.5068-8.8728-2.5078zm39.742 4.0078c2.9673-0.12554 5.1585 1.6144 4.9546 5.3926-0.07036 1.304-0.02038 2.5932-0.15085 3.8926-1.183 11.781 2.1146 17.348 2.5958 19.043 0.64588 2.2747 0.65661 3.8433 0.39183 6.1816-0.25297 2.2339-2.3751 5.0255-3.9633 5.6953-4.101 1.7296-6.2866 0.66253-8.6514-0.88672-6.0376-3.855-23.697-3.5612-29.884 0-2.5107 1.4451-4.5504 2.6164-8.6514 0.88672-1.5882-0.66984-3.7103-3.4614-3.9633-5.6953-0.26478-2.3384-0.25405-3.907 0.39182-6.1816 0.48119-1.6947 3.7788-7.2618 2.5958-19.043-0.13044-1.2994-0.08054-2.5885-0.15085-3.8926-0.27185-5.0376 3.714-6.4504 8.1205-4.6504 2.7765 1.1342 5.4506 1.8886 7.905 2.9336 1.1803 0.50254 4.9222 1.6282 8.6847 1.6406 3.7625 0.01236 7.4768-1.1102 8.7043-1.6406 2.4017-1.0377 5.1285-1.7994 7.905-2.9336 1.1016-0.45 2.1768-0.70034 3.1659-0.74219zm-4.3629 6.6289c-2.1921-0.06048-4.465 0.77723-5.7794 2.1953-2.2105 2.3849-2.9494 6.1058-2.8779 10.039 0.1994 10.973 7.8097 13.411 11.61 13.699 2.7412 0.2076 2.9121-2.1706 1.534-2.6641-8.3023-3.9041-10.243-11.074-7.9971-15.443 0.774-1.5057 2.2955-3.0243 3.6949-2.6523 1.1696 0.31085 2.1569 2.3449 1.8063 3.8633-0.26719 1.1572-0.98237 1.6974-0.95017 2.7695 0.06805 2.2652 2.0138 2.5177 2.8897 1.6719 0.45849-0.44272 2.5785-2.0197 2.6663-5.9219 0.08178-3.6319-2.0412-6.0372-3.7556-6.8867-0.86562-0.42892-1.8443-0.64243-2.8407-0.66992zm-30.805 0c-0.99643 0.02749-1.9751 0.241-2.8407 0.66992-1.7144 0.84951-3.8374 3.2548-3.7556 6.8867 0.08787 3.9022 2.2079 5.4792 2.6664 5.9219 0.87589 0.84578 2.8216 0.59332 2.8897-1.6719 0.0322-1.0721-0.68298-1.6123-0.95016-2.7695-0.35056-1.5184 0.63667-3.5524 1.8063-3.8633 1.3994-0.37192 2.9209 1.1467 3.6949 2.6523 2.246 4.3692 0.30521 11.539-7.9971 15.443-1.3781 0.49345-1.2072 2.8717 1.534 2.6641 3.8-0.28778 11.41-2.7259 11.61-13.699 0.07152-3.9333-0.66744-7.6541-2.8779-10.039-1.3143-1.4181-3.5872-2.2558-5.7794-2.1953z"/>
  <path transform="rotate(114.1 250 250)" d="m479 218.34c-1.108 2.9864-1.2825 3.0895-2.6491 6.2759 3.1895 1.4118 5.3566 4.4406 5.6109 8.0584 0.37195 5.2909-3.6221 9.889-8.913 10.261-5.2457 0.36877-9.889-3.6221-10.261-8.913-0.24479-3.4821 1.4383-6.6907 4.0856-8.4674-1.7085-2.9702-1.86-3.1867-3.5011-5.8435-4.7352 3.105-7.8033 8.5924-7.3678 14.788 0.63582 9.0443 8.5672 15.849 17.521 15.219 9.0443-0.63582 15.855-8.4767 15.219-17.521-0.44825-6.3763-4.3507-11.464-9.7451-13.857zm0.32902-13.349-0.94577-4.5738 5.5059-1.1385 0.94576 4.5738zm-33.303-29.493 3.7707-1.5582-1.8525-4.483 23.672-9.7821-2.4239-5.8656-29.621 12.241zm-3.4255-27.279c-3.9967 2.234-6.1862 0.0821-6.9825-1.3425-1.5925-2.8491-0.3881-5.34 2.8172-7.1316 3.324-1.8579 5.9034-0.49523 6.9872 1.4438 1.1723 2.0973 1.4123 4.6637-2.8218 7.0304zm15.094-1.8928c4.2282-2.9347 5.0297-8.0048 2.3755-12.753-2.8312-5.0651-9.1888-8.263-20.11-2.1583-3.9967 2.234-14.355 8.2315-8.9139 17.966 3.0744 5.5004 8.5975 7.7626 15.443 3.9361 4.709-2.6321 7.0375-8.0364 4.0294-13.418-1.0617-1.8994-2.753-3.8104-5.3602-4.015l0.0349-0.12338c5.8961-3.2956 9.1843-1.9656 10.423 0.25041 0.95109 1.7016 0.80576 3.3928-0.95629 4.7931l-0.0396 0.0221zm-49.153-30.952 13.775 18.172 4.4797-3.3958-9.0646-11.958c3.6581-0.95265 15.306-3.2972 27.665-6.5793l-4.546-5.997c-12.783 3.7739-24.169 5.8632-28.408 6.8007zm-5.589-12.21 4.8147 4.802 14.278-14.316-8.9874-8.9637 5.0261-5.0394-4.4937-4.4818-5.026 5.0394-2.5678-2.561-3.8736 3.8838 2.5678 2.561-13.83 13.866 4.4616 4.4498 14.054-14.091 4.2048 4.1937z" aria-label="C. 1974"/>
  <path transform="rotate(90.553 249.97 249.97)" d="m117.81 445.11 6.116 3.6401 10.294-17.296c2.4808-4.1683 4.9962-5.2035 9.3592-2.6067 4.9474 2.9445 3.9412 6.4078 2.1328 9.4464l-10.294 17.296 6.116 3.6401 10.294-17.296c4.5212-7.5964 2.3301-13.754-5.1883-18.229-7.4405-4.4284-14.061-3.4097-18.536 4.1087zm-43.928-63.513c-7.0017 6.1108-7.659 16.733-1.6078 23.666 6.081 6.9675 16.635 7.6845 23.637 1.5737 6.9675-6.081 7.6845-16.635 1.6035-23.603-6.0512-6.9334-16.665-7.7187-23.632-1.6376zm3.5495 19.165c-3.5473-4.0644-3.0233-10.358 1.0411-13.906 4.0644-3.5473 10.337-3.1854 13.884 0.879 3.5473 4.0644 3.1171 10.397-0.9473 13.944s-10.431 3.1469-13.978-0.91749zm-12.101-38.968-7.3769-12.806-5.4602 3.1454 7.3769 12.806-6.3244 3.6432-8.3499-14.495-5.1852 2.987 11.789 20.466 28.165-16.225-3.4395-5.9708-5.2245 3.0096zm-25.028-79.77c-0.63482 3.1214-0.79138 3.2502-1.6509 6.609 3.3689 0.90375 5.9766 3.5627 6.785 7.0981 1.1824 5.1705-2.0559 10.329-7.2264 11.511-5.1263 1.1722-10.329-2.0559-11.511-7.2264-0.77813-3.4028 0.39077-6.8324 2.7328-8.9955-2.1455-2.6716-2.3286-2.8623-4.3592-5.2346-4.2005 3.7973-6.3869 9.6916-5.0025 15.746 2.0211 8.8385 10.906 14.34 19.656 12.339 8.8385-2.0211 14.361-10.817 12.339-19.656-1.4249-6.2312-6.0644-10.658-11.763-12.191zm-3.0063-91.25c-1.0884 5.4687-2.3805 11.729-3.2742 16.22l5.8689 1.168c0.04446 9e-3 0.1241-0.3913 0.29223-1.2361 0.35395-1.7784 0.95544-5.033 1.2386-6.4557l0.14158-0.71138c2.7668 1.8911 3.8373 5.802 3.1294 9.3588-1.0618 5.3354-6.1351 8.763-11.515 7.6923-5.3354-1.0618-8.7542-6.1796-7.6923-11.515 0.7079-3.5569 3.1325-6.2175 6.3055-7.2962-0.93674-3.422-1.0259-3.6708-1.8912-6.7551-5.5015 1.8633-9.9957 6.5618-11.217 12.697-1.7963 9.0256 4.1154 17.875 13.141 19.671 9.0701 1.8051 17.92-4.1066 19.716-13.132 1.23-6.1801-1.0963-12.375-5.6696-16.104-1.8067-2.0698-7.6402-3.4157-8.5739-3.6015zm29.401-28.065 2.3671-5.5452-29.894-12.761-2.3671 5.5452 18.595 7.9378-24.273 5.3624-3.2036 7.5048 29.894 12.761 2.4383-5.712-20.597-8.7921zm18.585-46.374c-2.7371 1.6292-2.9377 1.5999-6.0017 3.2224 1.5966 3.1012 1.3822 6.8192-0.69076 9.795-3.0317 4.3521-9.0272 5.4242-13.379 2.3925-4.3149-3.0058-5.4242-9.0272-2.3925-13.379 1.9952-2.8642 5.3196-4.3053 8.4956-4.0266 0.53452-3.3845 0.55248-3.6483 0.94281-6.7465-5.6352-0.55539-11.468 1.7902-15.018 6.8863-5.1825 7.4395-3.2799 17.715 4.0853 22.846 7.4395 5.1825 17.663 3.3542 22.846-4.0853 3.6536-5.2448 3.8099-11.655 1.1128-16.904zm21.384-9.9874 5.1235-4.9402-18.282-18.96 7.3426-7.0799-4.1536-4.3077-19.874 19.163 4.1221 4.275 7.4079-7.1429zm30.782-39.445c3.8895-3.9196 3.4179-8.9056 1.0296-12.598-2.8561-4.4155-8.2647-7.0179-15.116-2.586l-12.257 7.9281 17.604 27.216 6.0142-3.8902-6.3277-9.7825 2.931-1.8958 13.179 5.3507 7.3084-4.7273-14.138-5.1628zm-12.682-9.5059c2.8548-1.8466 5.5595-2.8402 7.8493 0.69976 2.2406 3.4639 0.29912 5.6375-2.5557 7.4841l-4.6439 3.0038-5.2936-8.1838z" aria-label="U of C  GNCTR"/>
 </g>
</svg>
