<?xml version="1.0" encoding="UTF-8" standalone="no"?>
<!-- Created with Inkscape (http://www.inkscape.org/) -->
<!-- Created by Toshi Taperek 2023 (flagpole-undrilled@proton.me) -->

<svg
   version="1.1"
   id="svg1"
   width="500"
   height="500"
   viewBox="0 0 500 500"
   xmlns="http://www.w3.org/2000/svg"
   xmlns:svg="http://www.w3.org/2000/svg">
  <defs
     id="defs1" />
  <circle
     style="display:inline;fill:#8f1f1e;fill-opacity:1;stroke:#ffffff;stroke-width:0"
     id="path1"
     cx="250"
     cy="250"
     r="246.22218" />
  <circle
     style="display:inline;fill:#ffffff;fill-opacity:1;stroke:#ffffff;stroke-width:0;stroke-dasharray:none"
     id="path17"
     cx="250"
     cy="250"
     r="192.07884" />
  <circle
     style="display:inline;fill:#d60000;fill-opacity:1;stroke:#ffffff;stroke-width:0;stroke-dasharray:none"
     id="circle1"
     cx="250"
     cy="-250"
     r="190.03271"
     transform="scale(1,-1)" />
  <g
     id="g13"
     transform="matrix(0.97434689,0,0,0.97434689,3.2953953,-7.2278881)"
     style="display:inline">
    <path
       style="fill:none;stroke:#ffffff;stroke-width:7.2;stroke-linecap:round;stroke-linejoin:miter;stroke-dasharray:none;stroke-opacity:1"
       d="M 192.61,419.94 95.274,322.415 c -14.978809,-14.0323 1.71945,-46.58028 29.37705,-32.96246 M 313.78994,419.94 l 97.336,-97.525 c 14.97881,-14.0323 -1.71945,-46.58028 -29.37705,-32.96246"
       id="path10" />
    <path
       style="fill:#ffffff;stroke:#ffffff;stroke-width:7.2;stroke-linecap:round;stroke-linejoin:miter;stroke-dasharray:none;stroke-opacity:1"
       d="m 127.33445,323.27484 77.75491,77.45578 m 173.97613,-77.45578 -77.75491,77.45578"
       id="path11" />
    <path
       style="display:inline;fill:#ffffff;stroke:#ffffff;stroke-width:4.6;stroke-linecap:butt;stroke-linejoin:miter;stroke-dasharray:none;stroke-opacity:1"
       d="M 122.05871,347.46465 145.167,342.996 m 40.68034,69.14939 4.87374,-24.95243 M 384.34123,347.46465 361.23294,342.996 m -40.68034,69.14939 -4.87374,-24.95243"
       id="path13" />
    <path
       id="path12-7-6-6-9-3"
       style="fill:#ffffff;stroke:#ffffff;stroke-width:0;stroke-linecap:round;stroke-linejoin:round;stroke-dasharray:none;stroke-opacity:1"
       d="m 195.415,387.06 h 5.33182 l 7.16345,7.16345 v 4.99898 z m -13.4,-13.4 h 5.33182 l 7.16345,7.16345 v 4.99898 z m -13.4,-13.4 h 5.33182 l 7.16345,7.16345 v 4.99898 z m -13.4,-13.4 h 5.33182 l 7.16345,7.16345 v 4.99898 z m -13.4,-13.4 h 5.33182 l 7.16345,7.16345 v 4.99898 z m -13.4,-13.4 h 5.33182 l 7.16345,7.16345 v 4.99898 z m 182.56994,67 h -5.33182 l -7.16345,7.16345 v 4.99898 z m 13.4,-13.4 h -5.33182 l -7.16345,7.16345 v 4.99898 z m 13.4,-13.4 h -5.33182 l -7.16345,7.16345 v 4.99898 z m 13.4,-13.4 h -5.33182 l -7.16345,7.16345 v 4.99898 z m 13.4,-13.4 h -5.33182 l -7.16345,7.16345 v 4.99898 z m 13.4,-13.4 h -5.33182 l -7.16345,7.16345 v 4.99898 z" />
  </g>
  <path
     id="rect6"
     style="display:inline;fill:#ffffff;stroke:#000000;stroke-width:0"
     d="m 253.42892,86.686649 c -0.0579,-0.0014 -21.87637,28.260661 -23.37145,30.273701 -0.0549,0.0738 -3.96743,-1.74027 -8.69368,-4.03076 -4.72622,-2.2905 -8.70724,-4.20356 -8.84739,-4.2523 l -0.25459,-0.0894 -3.36724,6.02078 -3.36732,6.02077 -4.57388,4.08338 -4.57288,4.08338 -3.61065,7.33422 c -1.98551,4.03394 -3.78438,7.69134 -3.99756,8.12799 -0.21321,0.43666 -0.3648,0.7938 -0.33705,0.7938 0.0279,0 1.78092,-0.8842 3.89576,-1.9651 2.11482,-1.08087 3.95215,-2.0026 4.08308,-2.04814 0.15405,-0.0536 0.96403,0.62815 2.29203,1.92815 1.12948,1.10565 2.11784,2.03248 2.19636,2.06016 0.18107,0.0639 11.3455,-2.54571 11.57015,-2.7044 0.0917,-0.0648 0.50066,-0.99512 0.90827,-2.06663 l 0.74127,-1.94753 3.55565,-1.12699 c 2.19819,-0.69664 3.58382,-1.21381 3.62998,-1.35406 0.13446,-0.40817 0.92458,-4.29369 0.92458,-4.54672 0,-0.15013 -1.38982,-1.12663 -3.54548,-2.4912 -4.21105,-2.66571 -3.4679,-1.78388 -5.04329,-5.98847 l -1.31049,-3.49636 0.56716,-2.11553 c 0.67138,-2.50609 0.31384,-2.31694 3.81023,-2.0186 1.55576,0.13281 2.94637,0.24183 3.09032,0.24183 0.17437,0 0.92924,1.19924 2.2605,3.5914 l 1.99877,3.59142 2.94067,2.1063 2.94166,2.1063 1.11803,2.05278 1.118,2.05184 3.98128,0.60548 3.98233,0.60459 0.34618,1.16574 0.34517,1.16485 5.5626,3.92739 5.56157,3.92647 0.52745,-0.0702 c 0.28987,-0.0383 4.19473,-0.4371 8.67738,-0.88609 4.48261,-0.44897 8.17854,-0.84282 8.21407,-0.875 0.0356,-0.0322 -1.24975,-0.93732 -2.85616,-2.01124 -2.11264,-1.41236 -2.89285,-2.0155 -2.82048,-2.18107 0.055,-0.12582 0.36791,-0.87398 0.69543,-1.66234 l 0.59568,-1.43343 -0.8879,-6.05215 c -0.48862,-3.32876 -0.90257,-6.071 -0.91947,-6.09369 -0.0176,-0.0227 -0.54196,0.16671 -1.16686,0.42089 -1.39852,0.56877 -1.05388,1.02159 -3.15449,-4.14338 l -1.77682,-4.3695 -1.13024,-5.76235 -1.13023,-5.76325 -1.82366,-1.3882 c -1.00331,-0.763162 -1.82468,-1.443299 -1.82468,-1.511879 0,-0.459517 2.17284,-4.890599 2.36536,-4.823636 0.15824,0.05505 5.3254,3.626054 7.03191,4.859621 0.0302,0.02178 1.06294,2.750674 2.2951,6.064164 1.23213,3.31349 2.5801,6.9112 2.99563,7.9951 l 0.75552,1.97059 6.73151,5.36361 c 3.70247,2.95004 6.70389,5.40677 6.66942,5.45957 -0.0344,0.0528 -2.20125,1.41404 -4.8152,3.0247 -5.62925,3.46864 -5.36126,2.86167 -1.89595,4.30581 l 2.86326,1.19347 2.07517,2.21799 2.07412,2.21706 1.6098,0.0969 c 0.88515,0.053 1.75848,0.10992 1.94078,0.12647 l 0.33091,0.0296 0.53762,1.79614 c 0.29563,0.98774 0.56544,1.8214 0.59975,1.8525 0.11209,0.10166 9.85744,2.77274 9.91756,2.71825 0.0322,-0.0291 -1.06088,-1.22835 -2.42846,-2.66471 l -2.48653,-2.61213 -0.10074,-1.29311 c -0.0553,-0.71159 -0.0851,-1.30803 -0.0651,-1.32455 0.0199,-0.0164 2.36385,0.36906 5.20825,0.85657 2.84441,0.4875 5.28355,0.88924 5.42003,0.89255 0.13655,0.004 -0.87081,-1.00977 -2.23806,-2.25122 l -2.4855,-2.25766 0.3635,-2.01494 c 0.20021,-1.1082 0.36552,-2.15131 0.36658,-2.31767 9.7e-4,-0.19267 -0.79417,-0.98957 -2.19226,-2.19583 l -2.19532,-1.89309 0.95715,-1.73618 c 0.52644,-0.95474 0.98303,-1.76078 1.01415,-1.79157 0.0312,-0.0307 0.79238,0.33193 1.69129,0.8058 l 1.63427,0.86118 2.78892,3.66986 2.78995,3.66989 3.29399,1.80077 c 1.81194,0.99013 3.67238,2.0015 4.13402,2.24752 l 0.83902,0.44675 -2.74922,-2.59457 -2.75024,-2.59457 -4.70525,-8.28677 c -2.73722,-4.82078 -4.78996,-8.26867 -4.90685,-8.24245 -0.11037,0.0247 -3.97848,1.50536 -8.5949,3.28959 -4.61643,1.78423 -8.4908,3.24344 -8.61017,3.24344 -0.11939,0 -1.99436,-1.61603 -4.16659,-3.59141 l -3.94974,-3.5914 -4.31014,-8.84703 -4.31122,-8.846094 -1.25648,-0.551038 -1.25751,-0.550118 -3.24308,-4.019689 c -1.78402,-2.210791 -3.28169,-4.020373 -3.32756,-4.021548 z" />
  <path
     id="path1-0"
     style="display:inline;fill:#ffffff;stroke-width:0.974347"
     d="M 333.71484 101.24414 C 332.06554 101.43098 321.24587 105.64056 321.93164 116.94141 C 322.15086 120.55392 323.0445 123.30767 325.91016 128.94922 C 328.24659 133.54888 332.48539 139.00946 334.44336 142.62891 C 337.79953 148.83306 336.88875 156.09206 334.62109 160.44141 C 331.15203 167.09511 321.39379 176.1385 310.64648 178.97266 C 307.932 179.6885 302.11314 180.95137 298.9375 178.9082 L 293.13477 173.26172 C 288.17768 168.4405 278.83395 164.60283 266.11914 161.25 C 255.7652 158.51973 244.74844 158.58171 233.88086 161.25 C 221.11071 164.38544 211.82233 168.4405 206.86523 173.26172 C 204.93029 175.14369 201.0625 178.9082 201.0625 178.9082 C 197.88686 180.95138 192.068 179.68851 189.35352 178.97266 C 178.60621 176.1385 168.84797 167.09511 165.37891 160.44141 C 163.11125 156.09206 162.20047 148.83306 165.55664 142.62891 C 167.51461 139.00946 171.75341 133.54888 174.08984 128.94922 C 176.9555 123.30767 177.84914 120.55392 178.06836 116.94141 C 178.79984 104.88717 166.43905 100.90166 166.08203 101.25977 C 166.46769 104.9647 168.73633 108.48826 166.55273 114.36133 C 162.97996 123.97091 154.02754 129.06042 148.89258 137.75195 C 138.83335 154.77831 139.68317 174.16854 156.21094 191.05273 C 163.57106 198.57167 170.24839 199.96799 167.70898 200.06445 C 161.87696 200.70953 156.45576 196.1801 151.0332 192.88477 C 142.87742 187.92827 136.48088 182.43665 135.20312 185.45898 C 128.87057 200.43793 134.3354 223.17232 149.45312 234.33789 C 163.54297 244.74425 164.18497 234.21849 182.63672 232.99609 C 185.03859 232.83697 183.99152 236.96662 183.0293 242.42578 C 182.23723 246.91768 182.00489 254.33981 182.24219 258.875 C 182.64619 266.5956 183.4498 271.97502 188.71875 282.43359 C 191.81379 288.57705 193.79603 291.94473 196.375 296.24414 C 198.95396 300.54352 206.97674 309.88729 209.72656 315.56055 C 221.79684 340.46261 209.82585 350.82529 224.81445 356.47461 C 227.68065 357.5549 235.78213 357.41227 242.5918 355.58203 C 249.40143 353.7518 250.59858 353.7518 257.4082 355.58203 C 264.21788 357.41227 272.31934 357.5549 275.18555 356.47461 C 290.17413 350.82529 278.20315 340.46261 290.27344 315.56055 C 293.02326 309.88729 301.04604 300.54352 303.625 296.24414 C 306.20397 291.94473 308.1862 288.57705 311.28125 282.43359 C 316.5502 271.97502 317.35381 266.5956 317.75781 258.875 C 317.99512 254.33981 317.76265 246.91768 316.9707 242.42578 C 316.00849 236.96662 315.48333 234.49946 317.36328 232.99609 C 335.81503 234.21849 336.45703 244.74425 350.54688 234.33789 C 365.6646 223.17232 371.12943 200.43793 364.79688 185.45898 C 363.51912 182.43665 357.12258 187.92827 348.9668 192.88477 C 343.54424 196.1801 338.12304 200.70953 332.29102 200.06445 C 329.75161 199.96795 336.42894 198.57167 343.78906 191.05273 C 360.31683 174.16854 361.16665 154.77831 351.10742 137.75195 C 345.97246 129.06042 337.02004 123.97091 333.44727 114.36133 C 331.26367 108.48826 333.53232 104.9647 333.91797 101.25977 C 333.89567 101.23737 333.82476 101.23164 333.71484 101.24414 z M 169.0293 107.09766 C 169.60056 108.2436 170.31775 109.86268 170.44727 112.07617 C 170.55035 113.83793 170.25465 115.58061 169.71289 117.22461 C 169.25834 118.60394 168.67613 119.7711 168.25 120.48828 C 167.96194 120.97308 167.60226 121.53156 167.16016 122.1543 C 166.21282 123.48869 165.01139 124.94411 163.49219 126.54688 C 162.11109 127.93169 160.56973 129.11017 159.05859 130.42383 C 158.2927 131.08964 157.6586 131.68739 157.14062 132.27344 C 156.44814 133.05693 156.07985 133.69115 155.89453 134.19727 C 156.08207 133.68508 156.37583 133.03313 156.99023 132.1543 C 157.44791 131.49965 158.00913 130.82343 158.70117 130.05859 C 159.97645 128.64918 161.52122 127.11 162.60742 125.75391 C 164.01566 124.09265 165.09218 122.64889 165.96484 121.33398 C 166.3696 120.72411 166.69966 120.18797 166.97266 119.72852 C 167.37501 119.05135 168.02028 118.01115 168.5957 116.7832 C 169.27906 115.32491 169.79872 113.74554 169.93164 112.07227 C 170.09865 109.9699 169.60032 108.24313 169.0293 107.09766 z M 330.9707 107.09766 C 330.39968 108.24313 329.90135 109.9699 330.06836 112.07227 C 330.20128 113.74554 330.72094 115.32491 331.4043 116.7832 C 331.97972 118.01115 332.62499 119.05135 333.02734 119.72852 C 333.30034 120.18797 333.6304 120.72411 334.03516 121.33398 C 334.90782 122.64889 335.98434 124.09265 337.39258 125.75391 C 338.47878 127.11 340.02355 128.64918 341.29883 130.05859 C 341.99087 130.82343 342.55209 131.49965 343.00977 132.1543 C 343.62417 133.03313 343.91793 133.68508 344.10547 134.19727 C 343.92015 133.69115 343.55186 133.05693 342.85938 132.27344 C 342.3414 131.68739 341.7073 131.08964 340.94141 130.42383 C 339.43027 129.11017 337.88891 127.93169 336.50781 126.54688 C 334.98861 124.94411 333.78718 123.48869 332.83984 122.1543 C 332.39774 121.53156 332.03806 120.97308 331.75 120.48828 C 331.32387 119.7711 330.74166 118.60394 330.28711 117.22461 C 329.74535 115.58061 329.44965 113.83793 329.55273 112.07617 C 329.68225 109.86268 330.39944 108.2436 330.9707 107.09766 z M 169.91211 128.96289 C 169.78328 129.82479 169.53392 130.59461 169.21289 131.30469 C 168.87166 132.05946 168.44299 132.76197 167.97656 133.42969 C 166.93222 134.92472 165.69914 136.3075 164.56641 137.79297 C 163.18272 139.60754 162.0309 141.41632 161.07812 143.58008 C 159.89524 146.26643 159.17529 149.17387 158.8125 152.33008 C 158.18086 157.47586 159.26106 161.71091 160.45703 164.66016 C 162.55165 169.82546 165.9335 173.32853 167.73438 175.08789 C 169.51299 176.8255 174.43237 181.28179 178.75391 184.13477 C 181.56436 185.99016 186.61152 188.95001 193.95117 190.97461 C 186.28481 190.46941 180.56209 188.69139 177.10742 187.33008 C 170.59471 184.76373 166.90016 181.7092 164.125 178.42578 C 162.23915 176.19455 159.04611 171.77018 157.3418 165.7168 C 156.36822 162.25886 155.66774 157.50184 156.75781 151.99805 C 157.43632 148.71348 158.46975 145.73179 159.95898 143.02539 C 161.15512 140.85165 162.50793 139.09163 164.05273 137.36719 C 165.31656 135.95641 166.63984 134.67616 167.76367 133.27148 C 168.26499 132.64489 168.73027 131.97914 169.10742 131.25391 C 169.46229 130.57153 169.74841 129.81853 169.91211 128.96289 z M 330.08789 128.96289 C 330.25159 129.81853 330.53771 130.57153 330.89258 131.25391 C 331.26973 131.97914 331.73501 132.64489 332.23633 133.27148 C 333.36016 134.67616 334.68344 135.95641 335.94727 137.36719 C 337.49207 139.09163 338.84488 140.85165 340.04102 143.02539 C 341.53025 145.73179 342.56368 148.71348 343.24219 151.99805 C 344.33226 157.50184 343.63178 162.25886 342.6582 165.7168 C 340.95389 171.77018 337.76085 176.19455 335.875 178.42578 C 333.09984 181.7092 329.40529 184.76373 322.89258 187.33008 C 319.43791 188.69139 313.71519 190.46941 306.04883 190.97461 C 313.38848 188.95001 318.43564 185.99016 321.24609 184.13477 C 325.56763 181.28179 330.48701 176.8255 332.26562 175.08789 C 334.0665 173.32853 337.44835 169.82546 339.54297 164.66016 C 340.73894 161.71091 341.81914 157.47586 341.1875 152.33008 C 340.82471 149.17387 340.10476 146.26643 338.92188 143.58008 C 337.9691 141.41632 336.81728 139.60754 335.43359 137.79297 C 334.30086 136.3075 333.06778 134.92472 332.02344 133.42969 C 331.55701 132.76197 331.12834 132.05946 330.78711 131.30469 C 330.46608 130.59461 330.21672 129.82479 330.08789 128.96289 z M 140.40234 194.21484 C 141.86032 194.20397 146.66894 199.09539 151.46484 201.52539 C 155.58789 203.61443 158.13679 204.56484 162.97852 206.50977 C 167.00822 208.12846 176.28774 217.40777 176.90625 219.45703 C 177.68894 222.05023 172.53582 224.71743 169.5918 225.86719 C 166.87064 226.9299 165.59687 227.74516 163.02344 229.19531 C 158.45514 231.76952 156.45148 230.51436 152.42773 228.11523 C 146.33584 223.31743 135.31917 211.43091 139.99219 194.54102 C 140.05392 194.31788 140.19406 194.2164 140.40234 194.21484 z M 359.59766 194.21484 C 359.80594 194.2164 359.94608 194.31788 360.00781 194.54102 C 364.68083 211.43091 353.66416 223.31743 347.57227 228.11523 C 343.54852 230.51436 341.54486 231.76952 336.97656 229.19531 C 334.40313 227.74516 333.12936 226.9299 330.4082 225.86719 C 327.46418 224.71743 322.31106 222.05023 323.09375 219.45703 C 323.71226 217.40777 332.99178 208.12846 337.02148 206.50977 C 341.86321 204.56484 344.41211 203.61443 348.53516 201.52539 C 353.33106 199.09539 358.13968 194.20397 359.59766 194.21484 z M 197.00391 228.11523 L 216.10742 241.87891 C 207.87181 252.68521 221.35508 263.62362 230.30078 252.10547 L 238.86328 258.27344 C 221.72327 273.00195 188.34624 244.22175 197.00391 228.11523 z M 302.99609 228.11523 C 311.65376 244.22175 278.27673 273.00195 261.13672 258.27344 L 269.69922 252.10547 C 278.64492 263.62362 292.12819 252.68521 283.89258 241.87891 L 302.99609 228.11523 z M 219.16016 244.07812 L 227.55469 250.12695 C 227.54329 250.14663 227.53513 250.16587 227.52344 250.18555 C 227.4394 250.32751 227.34998 250.47291 227.25391 250.61523 C 227.1578 250.75756 227.05579 250.89862 226.94727 251.04102 C 226.86345 251.14893 226.77842 251.25407 226.69336 251.35547 C 226.60827 251.45688 226.52373 251.55539 226.4375 251.65039 C 226.35126 251.74537 226.26308 251.83516 226.17578 251.92383 C 226.08852 252.01249 226.00224 252.09726 225.91406 252.17969 C 225.82588 252.26214 225.73544 252.34353 225.64648 252.41992 C 225.55753 252.49627 225.46855 252.56832 225.37891 252.63867 C 225.28928 252.70901 225.19946 252.77739 225.10938 252.8418 C 225.0192 252.90622 224.9285 252.96674 224.83789 253.02539 C 224.74729 253.08402 224.65731 253.14045 224.56641 253.19336 C 224.4755 253.24627 224.38212 253.2964 224.29102 253.34375 C 224.19992 253.39107 224.11073 253.43662 224.01953 253.47852 C 223.92836 253.52035 223.8372 253.55731 223.74609 253.59375 C 223.65498 253.63026 223.56356 253.66609 223.47266 253.69727 C 223.38172 253.72844 223.28983 253.75719 223.19922 253.7832 C 223.10858 253.80922 223.01991 253.83257 222.92969 253.85352 C 222.83945 253.87437 222.74794 253.89222 222.6582 253.9082 C 222.47882 253.94016 222.30154 253.96194 222.125 253.97461 C 221.94847 253.98728 221.77428 253.99018 221.60156 253.98438 C 221.42884 253.97853 221.25779 253.96489 221.08984 253.94141 C 220.92191 253.91802 220.75596 253.88399 220.59375 253.84375 C 220.43155 253.80352 220.27269 253.75544 220.11719 253.69922 C 219.96168 253.64303 219.80996 253.58109 219.66211 253.50977 C 219.51426 253.43842 219.37166 253.35908 219.23242 253.27344 C 219.0932 253.18779 218.95777 253.09523 218.82812 252.99609 C 218.69852 252.89695 218.57418 252.79148 218.45508 252.67969 C 218.33597 252.56789 218.22284 252.44981 218.11523 252.32617 C 218.00764 252.20254 217.90564 252.07214 217.81055 251.9375 C 217.71541 251.80286 217.62472 251.66436 217.54297 251.51953 C 217.46126 251.37471 217.38764 251.22448 217.32031 251.07031 C 217.25299 250.91613 217.19266 250.75646 217.14062 250.59375 C 217.08866 250.43105 217.04543 250.26611 217.00977 250.0957 C 216.9741 249.9253 216.94615 249.74954 216.92773 249.57227 C 216.90893 249.39498 216.90057 249.21457 216.90039 249.03125 C 216.90039 248.93958 216.90138 248.84891 216.90625 248.75586 C 216.91093 248.66284 216.91799 248.56893 216.92773 248.47461 C 216.93719 248.38034 216.94837 248.28289 216.96289 248.1875 C 216.97731 248.09208 216.99608 247.99685 217.01562 247.90039 C 217.03521 247.80392 217.05719 247.70677 217.08203 247.60938 C 217.10688 247.51197 217.13396 247.41466 217.16406 247.31641 C 217.19423 247.21815 217.22616 247.12048 217.26172 247.02148 C 217.29732 246.92249 217.33769 246.82227 217.37891 246.72266 C 217.42009 246.62303 217.4629 246.522 217.50977 246.42188 C 217.55663 246.32172 217.60744 246.22168 217.66016 246.12109 C 217.71285 246.02051 217.76752 245.91926 217.82617 245.81836 C 217.8848 245.71746 217.94507 245.61674 218.00977 245.51562 C 218.07445 245.41454 218.14206 245.31609 218.21289 245.21484 C 218.28376 245.1136 218.35838 245.01141 218.43555 244.91016 C 218.53509 244.782 218.63503 244.65804 218.73633 244.53906 C 218.83764 244.42009 218.94009 244.30528 219.04297 244.19531 C 219.0812 244.15449 219.12177 244.11778 219.16016 244.07812 z M 280.83984 244.07812 C 280.87823 244.11778 280.9188 244.15449 280.95703 244.19531 C 281.05991 244.30528 281.16236 244.42009 281.26367 244.53906 C 281.36497 244.65804 281.46491 244.782 281.56445 244.91016 C 281.64162 245.01141 281.71624 245.1136 281.78711 245.21484 C 281.85794 245.31609 281.92555 245.41454 281.99023 245.51562 C 282.05493 245.61674 282.1152 245.71746 282.17383 245.81836 C 282.23248 245.91926 282.28715 246.02051 282.33984 246.12109 C 282.39256 246.22168 282.44337 246.32172 282.49023 246.42188 C 282.5371 246.522 282.57991 246.62303 282.62109 246.72266 C 282.66231 246.82227 282.70268 246.92249 282.73828 247.02148 C 282.77384 247.12048 282.80577 247.21815 282.83594 247.31641 C 282.86604 247.41466 282.89312 247.51197 282.91797 247.60938 C 282.94281 247.70677 282.96479 247.80392 282.98438 247.90039 C 283.00392 247.99685 283.02269 248.09208 283.03711 248.1875 C 283.05163 248.28289 283.06281 248.38034 283.07227 248.47461 C 283.08201 248.56893 283.08907 248.66284 283.09375 248.75586 C 283.09862 248.84891 283.09961 248.93958 283.09961 249.03125 C 283.09943 249.21457 283.09107 249.39498 283.07227 249.57227 C 283.05385 249.74954 283.0259 249.9253 282.99023 250.0957 C 282.95457 250.26611 282.91134 250.43105 282.85938 250.59375 C 282.80734 250.75646 282.74701 250.91613 282.67969 251.07031 C 282.61236 251.22448 282.53874 251.37471 282.45703 251.51953 C 282.37528 251.66436 282.28459 251.80286 282.18945 251.9375 C 282.09436 252.07214 281.99236 252.20254 281.88477 252.32617 C 281.77716 252.44981 281.66403 252.56789 281.54492 252.67969 C 281.42582 252.79148 281.30148 252.89695 281.17188 252.99609 C 281.04223 253.09523 280.9068 253.18779 280.76758 253.27344 C 280.62834 253.35908 280.48574 253.43842 280.33789 253.50977 C 280.19004 253.58109 280.03832 253.64303 279.88281 253.69922 C 279.72731 253.75544 279.56845 253.80352 279.40625 253.84375 C 279.24404 253.88399 279.07809 253.91802 278.91016 253.94141 C 278.74221 253.96489 278.57116 253.97853 278.39844 253.98438 C 278.22572 253.99018 278.05153 253.98728 277.875 253.97461 C 277.69846 253.96194 277.52118 253.94016 277.3418 253.9082 C 277.25206 253.89222 277.16055 253.87437 277.07031 253.85352 C 276.98009 253.83257 276.89142 253.80922 276.80078 253.7832 C 276.71017 253.75719 276.61828 253.72844 276.52734 253.69727 C 276.43644 253.66609 276.34502 253.63026 276.25391 253.59375 C 276.1628 253.55731 276.07164 253.52035 275.98047 253.47852 C 275.88927 253.43662 275.80008 253.39107 275.70898 253.34375 C 275.61788 253.2964 275.5245 253.24627 275.43359 253.19336 C 275.34269 253.14045 275.25271 253.08402 275.16211 253.02539 C 275.0715 252.96674 274.9808 252.90622 274.89062 252.8418 C 274.80054 252.77739 274.71072 252.70901 274.62109 252.63867 C 274.53145 252.56832 274.44247 252.49627 274.35352 252.41992 C 274.26456 252.34353 274.17412 252.26214 274.08594 252.17969 C 273.99776 252.09726 273.91148 252.01249 273.82422 251.92383 C 273.73692 251.83516 273.64874 251.74537 273.5625 251.65039 C 273.47627 251.55539 273.39173 251.45688 273.30664 251.35547 C 273.22158 251.25407 273.13655 251.14893 273.05273 251.04102 C 272.94421 250.89862 272.8422 250.75756 272.74609 250.61523 C 272.65002 250.47291 272.5606 250.32751 272.47656 250.18555 C 272.46487 250.16587 272.45671 250.14663 272.44531 250.12695 L 280.83984 244.07812 z M 269.4043 307.00391 C 272.30499 306.92358 275.19038 308.31836 276.67578 310.85742 C 278.2892 313.36596 277.89794 316.46312 277.80859 319.28906 C 277.31699 324.38896 277.31152 329.68316 279.07031 334.5625 C 280.21835 337.22285 280.98667 340.106 280.80859 343.02539 C 280.8186 345.82129 279.82475 348.58439 278.05078 350.74414 C 276.4437 352.90267 273.9217 354.22105 271.28906 354.61914 C 268.66766 355.20937 265.95186 354.49125 263.64844 353.21094 C 261.2753 351.71223 258.47644 351.11858 255.72461 350.78711 C 250.69212 350.22583 245.52204 350.17377 240.57422 351.375 C 238.99486 351.64946 237.61413 352.47236 236.26758 353.29688 C 233.72998 354.87666 230.55037 355.21081 227.69141 354.41797 C 225.07016 353.81954 222.76489 352.14829 221.32031 349.88867 C 219.97831 347.95994 219.25779 345.64811 219.20508 343.30273 C 219.07052 340.81573 219.42128 338.30201 220.39062 335.99805 C 222.04693 332.05588 222.60616 327.73811 222.45703 323.48633 C 222.3608 320.78228 222.03373 318.0882 222.0918 315.37891 C 222.10821 312.5542 223.44278 309.65167 225.95898 308.22266 C 228.72971 306.48712 232.25993 306.80639 235.1875 307.95508 C 237.35683 308.85555 239.60952 309.52205 241.78906 310.39453 C 245.19494 311.86877 248.98737 312.56173 252.67773 311.9707 C 255.52173 311.64141 258.10588 310.35477 260.78711 309.44727 C 263.62544 308.53647 266.34992 307.00488 269.4043 307.00391 z M 230.80078 310.9082 C 227.91841 310.78588 225.79023 312.48081 225.98828 316.16211 C 226.05662 317.4327 226.00607 318.68898 226.13281 319.95508 C 227.28192 331.43403 224.07874 336.85855 223.61133 338.50977 C 222.98395 340.72606 222.97522 342.25487 223.23242 344.5332 C 223.47814 346.70978 225.53931 349.42938 227.08203 350.08203 C 231.06564 351.7673 233.1873 350.72826 235.48438 349.21875 C 241.3491 345.4626 258.50571 345.74891 264.51562 349.21875 C 266.95441 350.62679 268.93436 351.7673 272.91797 350.08203 C 274.46069 349.42938 276.52186 346.70978 276.76758 344.5332 C 277.02478 342.25487 277.01605 340.72606 276.38867 338.50977 C 275.92126 336.85855 272.71808 331.43403 273.86719 319.95508 C 273.99389 318.68898 273.94342 317.4327 274.01172 316.16211 C 274.27579 311.25372 270.40341 309.87705 266.12305 311.63086 C 263.42599 312.73593 260.82945 313.47202 258.44531 314.49023 C 257.29884 314.97988 253.66453 316.07581 250.00977 316.08789 C 246.35496 316.09993 242.74706 315.00702 241.55469 314.49023 C 239.22175 313.47917 236.57401 312.73593 233.87695 311.63086 C 232.80686 311.19241 231.76157 310.94898 230.80078 310.9082 z M 235.03906 317.36719 C 237.16845 317.30826 239.37565 318.12416 240.65234 319.50586 C 242.79955 321.82962 243.51869 325.45471 243.44922 329.28711 C 243.25553 339.97888 235.86111 340.40515 232.16992 340.68555 C 229.50719 340.88782 229.34104 338.57259 230.67969 338.0918 C 238.74427 334.28787 240.63092 329.24923 238.44922 324.99219 C 237.69737 323.52513 236.21871 322.04582 234.85938 322.4082 C 233.72324 322.71108 232.76494 324.69243 233.10547 326.17188 C 233.36501 327.29942 234.05862 327.82649 234.02734 328.87109 C 233.96124 331.07818 232.07152 331.32409 231.2207 330.5 C 230.77534 330.06864 228.71621 328.53254 228.63086 324.73047 C 228.55142 321.19177 230.61203 318.84725 232.27734 318.01953 C 233.11818 317.60161 234.07116 317.39397 235.03906 317.36719 z M 264.96094 317.36719 C 265.92884 317.39397 266.88182 317.60161 267.72266 318.01953 C 269.38797 318.84725 271.44858 321.19177 271.36914 324.73047 C 271.28379 328.53254 269.22466 330.06864 268.7793 330.5 C 267.92848 331.32409 266.03876 331.07818 265.97266 328.87109 C 265.94138 327.82649 266.63499 327.29942 266.89453 326.17188 C 267.23506 324.69243 266.27676 322.71108 265.14062 322.4082 C 263.78129 322.04582 262.30263 323.52513 261.55078 324.99219 C 259.36908 329.24923 261.25573 334.28787 269.32031 338.0918 C 270.65896 338.57259 270.49281 340.88782 267.83008 340.68555 C 264.13889 340.40515 256.74447 339.97888 256.55078 329.28711 C 256.48131 325.45471 257.20045 321.82962 259.34766 319.50586 C 260.62435 318.12416 262.83155 317.30826 264.96094 317.36719 z " />
  <path
     style="font-weight:bold;font-size:50.6667px;line-height:1.25;font-family:Ubuntu;-inkscape-font-specification:'Ubuntu Bold';letter-spacing:8px;fill:#ffffff;stroke:#d60000;stroke-width:1.8"
     d="m 457.26993,232.93417 q 0.36328,5.51071 3.61057,7.7847 3.19339,2.22676 8.50187,1.87681 2.57841,-0.16998 4.66181,-0.91664 2.03284,-0.74333 3.46956,-2.05668 1.43672,-1.31335 2.1762,-3.19006 0.68893,-1.87338 0.52896,-4.30011 -0.0867,-1.31448 -0.19721,-2.22118 -0.11388,-0.95725 -0.31221,-1.65505 l -12.18423,0.80322 -0.51992,-7.88689 17.34104,-1.14316 q 0.64944,1.37893 1.46276,4.47347 0.86388,3.0912 1.16717,7.69189 0.25996,3.94344 -0.7401,7.25907 -1.0034,3.26508 -3.17904,5.69346 -2.17564,2.42837 -5.47964,3.91559 -3.30733,1.43667 -7.65523,1.7233 -4.39845,0.28996 -7.87576,-0.85178 -3.4773,-1.14174 -5.95956,-3.3646 -2.53282,-2.21954 -3.95616,-5.32464 -1.42667,-3.15566 -1.66664,-6.79576 -0.16331,-2.47729 0.0606,-4.47234 0.17003,-2.04227 0.53172,-3.48787 0.30781,-1.49281 0.70283,-2.43283 0.39169,-0.99058 0.61781,-1.4117 l 6.4696,1.85846 q -0.75282,1.67448 -1.21952,3.83787 -0.5206,2.11616 -0.35729,4.59345 z m 19.87769,-51.00027 q -4.97591,4.80801 -9.66393,10.11686 -4.68802,5.30885 -8.61072,10.94149 l 22.25624,-5.81234 1.97159,7.54947 -33.97262,8.87215 -1.62592,-6.22586 q 1.19526,-2.04023 3.03624,-4.61565 1.84098,-2.57543 4.01231,-5.28949 2.10952,-2.75028 4.47694,-5.51556 2.31841,-2.75247 4.50473,-5.20861 l -20.05022,5.23623 -1.98439,-7.5985 33.97262,-8.87214 z m -13.59009,-36.32276 q 3.65915,7.74145 1.28026,13.85357 -2.40053,6.06632 -10.32521,9.81207 -3.93943,1.86206 -7.59312,2.07593 -3.6995,0.23552 -6.82428,-0.92145 -3.17058,-1.13531 -5.67732,-3.59315 -2.50674,-2.45783 -4.15228,-5.93919 -0.95267,-2.01553 -1.41149,-3.81616 -0.50462,-1.77897 -0.67695,-3.21064 -0.21814,-1.41001 -0.1956,-2.42941 0.0225,-1.0194 0.0784,-1.49411 l 6.74605,-0.6668 q -0.0859,1.83392 0.29547,4.06346 0.35969,2.18373 1.52889,4.65733 0.77946,1.64906 2.08696,2.9925 1.28585,1.29763 3.10725,1.94983 1.75393,0.62804 4.02427,0.45159 2.27034,-0.17646 5.01878,-1.47557 2.19875,-1.03928 3.90615,-2.40673 1.63993,-1.3916 2.51616,-3.09473 0.85458,-1.74893 0.85634,-3.87934 -0.044,-2.10876 -1.21324,-4.58236 -0.73616,-1.55745 -1.50398,-2.70764 -0.76783,-1.15019 -1.45155,-2.00389 -0.72954,-0.83204 -1.39662,-1.4134 -0.66708,-0.58135 -1.22339,-1.04694 l 4.79489,-4.67618 q 1.63066,1.0786 3.66268,3.48062 2.03203,2.40201 3.74252,6.02079 z m -56.74507,-23.55729 5.51382,-3.87394 6.08763,8.66458 23.2161,-16.31135 4.54387,6.46734 -23.2161,16.31135 6.08763,8.66458 -5.51382,3.87394 z M 394.57589,109.6797 q -5.57647,-5.60146 -6.53265,-10.583529 -0.99209,-4.946324 3.209,-9.128672 2.6212,-2.609499 5.48829,-3.03301 2.79544,-0.423672 5.98105,0.909045 0.1829,-1.683453 0.58156,-3.724692 0.36276,-2.005493 0.90488,-4.118065 0.47048,-2.112733 1.15607,-4.296638 0.64969,-2.148158 1.37071,-4.15285 l 6.25565,6.283688 q -0.54165,1.897612 -1.08346,3.866878 -0.57755,1.933359 -1.0118,3.867038 -0.46999,1.897772 -0.79635,3.652558 -0.36228,1.790533 -0.50911,3.366586 l 2.75249,2.764823 9.08441,-9.04388 5.57647,5.601459 -24.52434,24.414901 q -2.18214,-1.47378 -4.25608,-3.26976 -2.10969,-1.83189 -3.64679,-3.37588 z m 4.45388,-5.07745 q 0.60769,0.61041 1.14405,1.07736 0.50061,0.43104 0.96548,0.82618 l 6.75047,-6.720356 -1.57284,-1.579899 q -3.1457,-3.159797 -5.29402,-3.737831 -2.14832,-0.578033 -4.05138,1.316534 -1.83125,1.823075 -1.19117,3.974118 0.56842,2.150884 3.24941,4.843894 z"
     id="text3"
     transform="rotate(114.34874,250.03894,249.92661)"
     aria-label="GNCTR" />
  <path
     style="font-weight:bold;font-size:50.6667px;line-height:1.25;font-family:Ubuntu;-inkscape-font-specification:'Ubuntu Bold';text-align:center;letter-spacing:0px;text-anchor:middle;fill:#ffffff;stroke:#d60000;stroke-width:1.8"
     d="m 58.062236,306.11671 q 1.035678,3.5507 0.814812,6.41236 -0.269507,2.87585 -1.523983,5.08899 -1.317303,2.17868 -3.508109,3.71493 -2.253634,1.50179 -5.220663,2.36722 l -20.963767,6.11475 -2.213229,-7.58781 20.331449,-5.93032 q 2.042873,-0.59587 3.374381,-1.45925 1.268682,-0.89783 1.965841,-1.94563 0.634332,-1.08224 0.697141,-2.31446 0.04862,-1.28085 -0.348625,-2.64277 -0.808679,-2.77247 -3.007631,-3.97831 -2.213139,-1.25447 -6.298885,-0.0627 l -20.331449,5.93031 -2.213229,-7.58781 20.963767,-6.11475 q 2.96703,-0.86543 5.688846,-0.76211 2.721817,0.10332 5.018048,1.28078 2.247592,1.19165 3.986506,3.53445 1.738914,2.34281 2.788779,5.94216 z M 35.542932,249.19096 q 3.136173,-0.18002 5.818775,0.5795 2.632018,0.76243 4.602324,2.37483 1.919723,1.61531 3.07076,3.98525 1.148134,2.31935 1.319441,5.30377 0.168403,2.93384 -0.703897,5.41992 -0.875204,2.43549 -2.597488,4.25985 -1.772868,1.82727 -4.297457,2.93643 -2.575172,1.11207 -5.711345,1.29209 -3.136173,0.18001 -5.771095,-0.63299 -2.637825,-0.86359 -4.557548,-2.4789 -1.922627,-1.6659 -3.07076,-3.98525 -1.151037,-2.36993 -1.313634,-5.2026 -0.1655,-2.88326 0.709704,-5.31875 0.872301,-2.48608 2.594585,-4.31044 1.722285,-1.82436 4.246873,-2.93353 2.524589,-1.10916 5.660762,-1.28918 z m 0.441333,7.68868 q -3.490257,0.20034 -5.381713,1.72992 -1.944943,1.48189 -1.796864,4.06165 0.148079,2.57975 2.252715,3.87995 2.054052,1.3031 5.544309,1.10275 3.490257,-0.20034 5.48288,-1.73572 1.942039,-1.53247 1.79396,-4.11223 -0.148079,-2.57975 -2.249811,-3.82937 -2.155219,-1.29729 -5.645476,-1.09695 z M 10.951482,228.20415 q 0.154275,-2.1224 0.737638,-3.85801 0.53283,-1.73929 1.006888,-2.67003 l 5.906948,1.90258 q -0.528265,0.97761 -0.818556,2.17571 -0.337151,1.14391 -0.410615,2.15457 -0.09918,1.3644 0.235299,2.35392 0.287616,0.93532 0.904144,1.53894 0.620202,0.55308 1.511436,0.87187 0.894908,0.26825 1.956109,0.34538 l 1.313868,0.0955 0.675872,-9.29814 6.266138,0.45548 -0.675872,9.29814 20.314416,1.47663 -0.547309,7.52947 -27.995489,-2.03496 q -5.154404,-0.37467 -7.977033,-3.47546 -2.818956,-3.15133 -2.403882,-8.8616 z m 47.193144,-34.71963 q -2.269325,8.25648 -8.056776,11.34234 -5.774024,3.03701 -14.225927,0.71397 -4.201524,-1.1548 -7.11225,-3.37356 -2.95958,-2.23218 -4.575793,-5.14605 -1.665068,-2.92729 -1.964769,-6.42514 -0.299701,-3.49784 0.720823,-7.21081 0.590831,-2.14962 1.416221,-3.8144 0.776537,-1.67821 1.578786,-2.87644 0.753394,-1.21166 1.434792,-1.9702 0.681397,-0.75854 1.033096,-1.08224 l 5.551463,3.8904 q -1.260229,1.33508 -2.42389,3.27471 -1.150233,1.89077 -1.875343,4.52894 -0.483406,1.75877 -0.367126,3.62983 0.129709,1.8222 1.086237,3.50384 0.921102,1.61936 2.758161,2.96501 1.83706,1.34565 4.768356,2.15133 2.345037,0.64454 4.531223,0.71997 2.15076,0.0131 3.925251,-0.70768 1.787919,-0.76968 3.17757,-2.38447 1.340796,-1.62821 2.065906,-4.26638 0.456551,-1.66106 0.623686,-3.03386 0.167135,-1.37279 0.204847,-2.46589 -0.01114,-1.10652 -0.13828,-1.98219 -0.127137,-0.87568 -0.245703,-1.59136 l 6.684269,-0.42227 q 0.533976,1.88077 0.509977,5.02692 -0.024,3.14614 -1.084807,7.00568 z"
     id="text2"
     transform="rotate(90.55282,249.96968,249.97289)"
     aria-label="U of C" />
  <path
     style="font-weight:bold;font-size:21.3333px;line-height:1.25;font-family:Ubuntu;-inkscape-font-specification:'Ubuntu Bold';fill:#ffffff"
     d="m 222.04925,403.80689 q -3.54089,-0.67859 -5.02817,-3.00544 -1.46634,-2.32284 -0.77169,-5.94754 0.34532,-1.80187 1.18006,-3.09724 0.83874,-1.31632 2.00819,-2.0914 1.17347,-0.79602 2.63172,-1.03787 1.45825,-0.24185 3.0506,0.0633 0.92189,0.17668 1.64805,0.46789 0.73018,0.27027 1.25975,0.56725 0.53358,0.27603 0.87458,0.53688 0.341,0.26084 0.48854,0.39772 l -1.44878,2.45927 q -0.6022,-0.48468 -1.45495,-0.90876 -0.8318,-0.42007 -1.96321,-0.6369 -0.75427,-0.14455 -1.53578,-0.0337 -0.76055,0.1149 -1.43467,0.57219 -0.64915,0.44035 -1.15303,1.25609 -0.50387,0.81574 -0.74479,2.07286 -0.19274,1.0057 -0.15186,1.92583 0.0658,0.90321 0.42728,1.62412 0.38238,0.72493 1.10628,1.25465 0.72792,0.50876 1.85933,0.72559 0.71237,0.13652 1.29413,0.16113 0.58177,0.0246 1.04184,0.004 0.46408,-0.0414 0.82742,-0.12381 0.36334,-0.0824 0.65981,-0.15593 l 0.39902,2.79166 q -0.77173,0.28653 -2.09309,0.38084 -1.32137,0.0943 -2.97658,-0.2229 z m 10.62772,-0.41798 q -0.12135,0.9523 -0.79978,1.38198 -0.65457,0.41122 -1.4164,0.31413 -0.76184,-0.0971 -1.31352,-0.66202 -0.52782,-0.5834 -0.40646,-1.5357 0.12136,-0.95229 0.77592,-1.36351 0.67843,-0.42969 1.44027,-0.3326 0.76183,0.0971 1.28965,0.68048 0.55168,0.56494 0.43032,1.51724 z m 7.45815,-9.31944 q 0.62805,-0.23204 1.30118,-0.52641 0.69527,-0.31486 1.34955,-0.67399 0.6551,-0.38045 1.24706,-0.78468 0.6141,-0.42472 1.10193,-0.897 l 2.21703,0.0852 -0.56786,14.77307 -3.17631,-0.1221 0.40888,-10.63746 q -0.65591,0.40177 -1.45859,0.73385 -0.80186,0.31077 -1.55781,0.5379 z m 16.02277,3.94032 q 0.49029,-0.0192 1.01988,-0.12532 0.52875,-0.12745 0.77788,-0.308 l -0.008,-0.19185 q -0.003,-0.0853 -0.007,-0.17054 0.018,-0.0861 0.0155,-0.15005 -0.0514,-0.76658 -0.18382,-1.42323 -0.13328,-0.67797 -0.40828,-1.15825 -0.27583,-0.50159 -0.73434,-0.76119 -0.43802,-0.28174 -1.07753,-0.25671 -0.51161,0.02 -0.88697,0.24822 -0.37536,0.22819 -0.59649,0.57844 -0.22114,0.35025 -0.33318,0.76028 -0.0907,0.4092 -0.0757,0.7929 0.0451,1.15112 0.621,1.68366 0.59725,0.53171 1.87627,0.48164 z m 1.63709,2.00683 q -0.43931,0.23069 -0.98938,0.35898 -0.52959,0.10613 -0.91329,0.12115 -1.38561,0.0542 -2.3787,-0.22713 -0.99394,-0.30268 -1.65681,-0.87452 -0.6424,-0.59399 -0.97421,-1.43499 -0.33182,-0.84099 -0.37188,-1.86421 -0.0334,-0.85268 0.20869,-1.75884 0.26339,-0.907 0.85321,-1.65597 0.58899,-0.7703 1.50857,-1.27599 0.94007,-0.52784 2.28304,-0.58042 2.74989,-0.10765 4.20226,1.54347 1.47284,1.62896 1.59718,4.80519 0.0818,2.08906 -0.40987,3.70953 -0.47034,1.61964 -1.57889,2.75187 -1.08724,1.13139 -2.83402,1.77621 -1.74761,0.62351 -4.17691,0.73996 -0.048,-0.68131 -0.11569,-1.31915 -0.0677,-0.63784 -0.13701,-1.31831 1.21424,-0.0689 2.18897,-0.25649 0.97391,-0.20893 1.70582,-0.60052 0.73107,-0.41292 1.21848,-1.05114 0.50872,-0.63905 0.77044,-1.58868 z m 7.63578,5.33713 q -0.0542,-1.56165 0.15223,-3.2827 0.20639,-1.72106 0.58973,-3.39842 0.40453,-1.67984 0.95855,-3.18389 0.55153,-1.52524 1.17143,-2.65038 l -6.37767,0.7475 -0.31539,-2.69091 10.27631,-1.20445 0.2682,2.28833 q -0.5911,0.82106 -1.26347,2.23159 -0.65118,1.40804 -1.19658,3.16883 -0.5267,1.73712 -0.85409,3.70863 -0.3062,1.96903 -0.20982,3.89087 z m 13.60583,-13.06868 q -0.60637,1.22811 -1.28035,2.66521 -0.67397,1.4371 -1.04254,2.87935 l 3.28635,-0.64643 z m 2.30674,-4.4108 1.71282,8.70779 1.54899,-0.30468 0.50232,2.55372 -1.54899,0.30469 0.6382,3.24449 -3.0561,0.60114 -0.6382,-3.24449 -6.25872,1.23109 -0.4488,-2.28161 q 0.27935,-1.0116 0.74365,-2.29874 0.46019,-1.30808 1.05867,-2.68684 0.6153,-1.40381 1.32667,-2.7613 0.71138,-1.35748 1.46805,-2.48471 z"
     id="text1"
     aria-label="C. 1974" />
</svg>
