<?xml version="1.0" encoding="UTF-8" standalone="no"?>
<!-- Created with Inkscape (http://www.inkscape.org/) -->
<!-- Created by Toshi Taperek 2023 (flagpole-undrilled@proton.me) -->

<svg
   version="1.1"
   id="svg1"
   width="500"
   height="500"
   viewBox="0 0 500 500"
   sodipodi:docname="logo_v2.svg"
   inkscape:version="1.3 (1:1.3+202307231459+0e150ed6c4)"
   xmlns:inkscape="http://www.inkscape.org/namespaces/inkscape"
   xmlns:sodipodi="http://sodipodi.sourceforge.net/DTD/sodipodi-0.dtd"
   xmlns:xlink="http://www.w3.org/1999/xlink"
   xmlns="http://www.w3.org/2000/svg"
   xmlns:svg="http://www.w3.org/2000/svg">
  <defs
     id="defs1">
    <inkscape:path-effect
       effect="mirror_symmetry"
       start_point="250,-6.5821303"
       end_point="250,506.58213"
       center_point="250,250"
       id="path-effect57"
       is_visible="true"
       lpeversion="1.2"
       lpesatellites=""
       mode="vertical"
       discard_orig_path="false"
       fuse_paths="false"
       oposite_fuse="false"
       split_items="false"
       split_open="false"
       link_styles="false" />
    <inkscape:path-effect
       effect="mirror_symmetry"
       start_point="250,-6.5821303"
       end_point="250,506.58213"
       center_point="250,250"
       id="path-effect56"
       is_visible="true"
       lpeversion="1.2"
       lpesatellites=""
       mode="vertical"
       discard_orig_path="false"
       fuse_paths="false"
       oposite_fuse="false"
       split_items="false"
       split_open="false"
       link_styles="false" />
    <inkscape:path-effect
       effect="powerstroke"
       id="path-effect55"
       is_visible="true"
       lpeversion="1.3"
       scale_width="1"
       interpolator_type="CubicBezierJohan"
       interpolator_beta="0.2"
       start_linecap_type="zerowidth"
       end_linecap_type="zerowidth"
       offset_points="1.3378409,0.76246968"
       linejoin_type="extrp_arc"
       miter_limit="4"
       not_jump="false"
       sort_points="true"
       message="&lt;b&gt;Ctrl + click&lt;/b&gt; on existing node and move it" />
    <inkscape:path-effect
       effect="skeletal"
       id="path-effect54"
       is_visible="true"
       lpeversion="1"
       pattern="M 0,18.867925 C 0,8.4528302 8.4528302,0 18.867925,0 c 10.415094,0 18.867924,8.4528302 18.867924,18.867925 0,10.415094 -8.45283,18.867924 -18.867924,18.867924 C 8.4528302,37.735849 0,29.283019 0,18.867925 Z"
       copytype="single_stretched"
       prop_scale="-0.033043346"
       scale_y_rel="false"
       spacing="0"
       normal_offset="0"
       tang_offset="0"
       prop_units="false"
       vertical_pattern="false"
       hide_knot="false"
       fuse_tolerance="0" />
    <inkscape:path-effect
       effect="powerstroke"
       id="path-effect53"
       is_visible="true"
       lpeversion="1.3"
       scale_width="3.7"
       interpolator_type="CubicBezierFit"
       interpolator_beta="0.2"
       start_linecap_type="zerowidth"
       end_linecap_type="zerowidth"
       offset_points="0.83936013,0.33052152"
       linejoin_type="extrp_arc"
       miter_limit="4"
       not_jump="false"
       sort_points="true"
       message="&lt;b&gt;Ctrl + click&lt;/b&gt; on existing node and move it" />
    <inkscape:path-effect
       effect="powerstroke"
       id="path-effect52"
       is_visible="true"
       lpeversion="1.3"
       scale_width="3.7"
       interpolator_type="CubicBezierFit"
       interpolator_beta="0.33449477"
       start_linecap_type="zerowidth"
       end_linecap_type="zerowidth"
       offset_points="1.8931611,0.21728466"
       linejoin_type="extrp_arc"
       miter_limit="4"
       not_jump="false"
       sort_points="true"
       message="&lt;b&gt;Ctrl + click&lt;/b&gt; on existing node and move it" />
    <inkscape:path-effect
       effect="powerstroke"
       id="path-effect51"
       is_visible="true"
       lpeversion="1.3"
       scale_width="0.4"
       interpolator_type="CentripetalCatmullRom"
       interpolator_beta="0.2"
       start_linecap_type="zerowidth"
       end_linecap_type="zerowidth"
       offset_points="0.5644779,7.3642808"
       linejoin_type="extrp_arc"
       miter_limit="4.5"
       not_jump="false"
       sort_points="true"
       message="&lt;b&gt;Ctrl + click&lt;/b&gt; on existing node and move it" />
    <inkscape:path-effect
       effect="powerstroke"
       id="path-effect50"
       is_visible="true"
       lpeversion="1.3"
       scale_width="1"
       interpolator_type="CubicBezierJohan"
       interpolator_beta="0.2"
       start_linecap_type="zerowidth"
       end_linecap_type="zerowidth"
       offset_points="0.64661115,1.374185"
       linejoin_type="extrp_arc"
       miter_limit="4"
       not_jump="false"
       sort_points="true"
       message="&lt;b&gt;Ctrl + click&lt;/b&gt; on existing node and move it" />
    <inkscape:path-effect
       effect="powerstroke"
       id="path-effect48"
       is_visible="true"
       lpeversion="1.3"
       scale_width="1"
       interpolator_type="CentripetalCatmullRom"
       interpolator_beta="0.2"
       start_linecap_type="zerowidth"
       end_linecap_type="zerowidth"
       offset_points="8.5,0.5"
       linejoin_type="round"
       miter_limit="4"
       not_jump="false"
       sort_points="true"
       message="&lt;b&gt;Ctrl + click&lt;/b&gt; on existing node and move it" />
    <inkscape:path-effect
       effect="skeletal"
       id="path-effect47"
       is_visible="true"
       lpeversion="1"
       pattern="M 0,18.867925 C 0,8.4528302 8.4528302,0 18.867925,0 c 10.415094,0 18.867924,8.4528302 18.867924,18.867925 0,10.415094 -8.45283,18.867924 -18.867924,18.867924 C 8.4528302,37.735849 0,29.283019 0,18.867925 Z"
       copytype="single_stretched"
       prop_scale="0.042445735"
       scale_y_rel="false"
       spacing="0"
       normal_offset="0"
       tang_offset="0"
       prop_units="false"
       vertical_pattern="false"
       hide_knot="false"
       fuse_tolerance="0" />
    <inkscape:path-effect
       effect="skeletal"
       id="path-effect43"
       is_visible="true"
       lpeversion="1"
       pattern="M 0,18.867925 C 0,8.4528302 8.4528302,0 18.867925,0 c 10.415094,0 18.867924,8.4528302 18.867924,18.867925 0,10.415094 -8.45283,18.867924 -18.867924,18.867924 C 8.4528302,37.735849 0,29.283019 0,18.867925 Z"
       copytype="single_stretched"
       prop_scale="0.042445735"
       scale_y_rel="false"
       spacing="0"
       normal_offset="0"
       tang_offset="0"
       prop_units="false"
       vertical_pattern="false"
       hide_knot="false"
       fuse_tolerance="0" />
    <inkscape:path-effect
       effect="skeletal"
       id="path-effect42"
       is_visible="true"
       lpeversion="1"
       pattern="M 0,18.867925 C 0,8.4528302 8.4528302,0 18.867925,0 c 10.415094,0 18.867924,8.4528302 18.867924,18.867925 0,10.415094 -8.45283,18.867924 -18.867924,18.867924 C 8.4528302,37.735849 0,29.283019 0,18.867925 Z"
       copytype="single_stretched"
       prop_scale="-0.045956744"
       scale_y_rel="false"
       spacing="0"
       normal_offset="0"
       tang_offset="0"
       prop_units="false"
       vertical_pattern="false"
       hide_knot="false"
       fuse_tolerance="0" />
    <inkscape:path-effect
       effect="skeletal"
       id="path-effect41"
       is_visible="true"
       lpeversion="1"
       pattern="M 0,18.867925 C 0,8.4528302 8.4528302,0 18.867925,0 c 10.415094,0 18.867924,8.4528302 18.867924,18.867925 0,10.415094 -8.45283,18.867924 -18.867924,18.867924 C 8.4528302,37.735849 0,29.283019 0,18.867925 Z"
       copytype="single_stretched"
       prop_scale="0.01"
       scale_y_rel="false"
       spacing="0"
       normal_offset="0"
       tang_offset="0"
       prop_units="false"
       vertical_pattern="false"
       hide_knot="false"
       fuse_tolerance="0" />
    <inkscape:path-effect
       effect="skeletal"
       id="path-effect40"
       is_visible="true"
       lpeversion="1"
       pattern="M 0,18.867925 C 0,8.4528302 8.4528302,0 18.867925,0 c 10.415094,0 18.867924,8.4528302 18.867924,18.867925 0,10.415094 -8.45283,18.867924 -18.867924,18.867924 C 8.4528302,37.735849 0,29.283019 0,18.867925 Z"
       copytype="single_stretched"
       prop_scale="0.01"
       scale_y_rel="false"
       spacing="0"
       normal_offset="0"
       tang_offset="0"
       prop_units="false"
       vertical_pattern="false"
       hide_knot="false"
       fuse_tolerance="0" />
    <inkscape:path-effect
       effect="skeletal"
       id="path-effect39"
       is_visible="true"
       lpeversion="1"
       pattern="M 0,18.867925 C 0,8.4528302 8.4528302,0 18.867925,0 c 10.415094,0 18.867924,8.4528302 18.867924,18.867925 0,10.415094 -8.45283,18.867924 -18.867924,18.867924 C 8.4528302,37.735849 0,29.283019 0,18.867925 Z"
       copytype="single_stretched"
       prop_scale="0.01"
       scale_y_rel="false"
       spacing="0"
       normal_offset="0"
       tang_offset="0"
       prop_units="false"
       vertical_pattern="false"
       hide_knot="false"
       fuse_tolerance="0" />
    <inkscape:path-effect
       effect="skeletal"
       id="path-effect33"
       is_visible="true"
       lpeversion="1"
       pattern="M 0,18.867925 C 0,8.4528302 8.4528302,0 18.867925,0 c 10.415094,0 18.867924,8.4528302 18.867924,18.867925 0,10.415094 -8.45283,18.867924 -18.867924,18.867924 C 8.4528302,37.735849 0,29.283019 0,18.867925 Z"
       copytype="single_stretched"
       prop_scale="1"
       scale_y_rel="false"
       spacing="0"
       normal_offset="0"
       tang_offset="0"
       prop_units="false"
       vertical_pattern="false"
       hide_knot="false"
       fuse_tolerance="0" />
    <inkscape:path-effect
       effect="skeletal"
       id="path-effect32"
       is_visible="true"
       lpeversion="1"
       pattern="M 0,18.867925 C 0,8.4528302 8.4528302,0 18.867925,0 c 10.415094,0 18.867924,8.4528302 18.867924,18.867925 0,10.415094 -8.45283,18.867924 -18.867924,18.867924 C 8.4528302,37.735849 0,29.283019 0,18.867925 Z"
       copytype="single_stretched"
       prop_scale="1"
       scale_y_rel="false"
       spacing="0"
       normal_offset="0"
       tang_offset="0"
       prop_units="false"
       vertical_pattern="false"
       hide_knot="false"
       fuse_tolerance="0" />
    <inkscape:path-effect
       effect="mirror_symmetry"
       start_point="250,-6.5821303"
       end_point="250,506.58213"
       center_point="250,250"
       id="path-effect20"
       is_visible="true"
       lpeversion="1.2"
       lpesatellites=""
       mode="vertical"
       discard_orig_path="false"
       fuse_paths="false"
       oposite_fuse="false"
       split_items="false"
       split_open="false"
       link_styles="false" />
    <inkscape:path-effect
       effect="mirror_symmetry"
       start_point="250,-6.5821303"
       end_point="250,506.58213"
       center_point="250,250"
       id="path-effect18"
       is_visible="true"
       lpeversion="1.2"
       lpesatellites=""
       mode="vertical"
       discard_orig_path="false"
       fuse_paths="false"
       oposite_fuse="false"
       split_items="false"
       split_open="false"
       link_styles="false" />
    <inkscape:path-effect
       effect="mirror_symmetry"
       start_point="252.59951,0"
       end_point="252.59951,500"
       center_point="252.59951,250"
       id="path-effect16"
       is_visible="true"
       lpeversion="1.2"
       lpesatellites=""
       mode="vertical"
       discard_orig_path="false"
       fuse_paths="false"
       oposite_fuse="false"
       split_items="true"
       split_open="false"
       link_styles="false" />
    <inkscape:path-effect
       effect="mirror_symmetry"
       start_point="259.5,0"
       end_point="252.59951,500"
       center_point="256.04976,250"
       id="path-effect15"
       is_visible="true"
       lpeversion="1.2"
       lpesatellites=""
       mode="free"
       discard_orig_path="false"
       fuse_paths="false"
       oposite_fuse="false"
       split_items="true"
       split_open="false"
       link_styles="false" />
    <inkscape:path-effect
       effect="mirror_symmetry"
       start_point="254.92871,0.00027792236"
       end_point="254.92871,500.00028"
       center_point="254.92871,250.00028"
       id="path-effect14"
       is_visible="true"
       lpeversion="1.2"
       lpesatellites="#path14"
       mode="vertical"
       discard_orig_path="false"
       fuse_paths="true"
       oposite_fuse="false"
       split_items="true"
       split_open="false"
       link_styles="false" />
    <inkscape:path-effect
       effect="mirror_symmetry"
       start_point="252.59951,0"
       end_point="252.59951,500"
       center_point="252.59951,250"
       id="path-effect12"
       is_visible="true"
       lpeversion="1.2"
       lpesatellites=""
       mode="vertical"
       discard_orig_path="false"
       fuse_paths="false"
       oposite_fuse="false"
       split_items="false"
       split_open="false"
       link_styles="false" />
    <inkscape:path-effect
       effect="mirror_symmetry"
       start_point="252.59951,0"
       end_point="252.59951,500"
       center_point="252.59951,250"
       id="path-effect9"
       is_visible="true"
       lpeversion="1.2"
       lpesatellites="#path15"
       mode="vertical"
       discard_orig_path="false"
       fuse_paths="false"
       oposite_fuse="false"
       split_items="true"
       split_open="false"
       link_styles="false" />
    <inkscape:path-effect
       effect="mirror_symmetry"
       start_point="250,0"
       end_point="250,500"
       center_point="250,250"
       id="path-effect7"
       is_visible="true"
       lpeversion="1.2"
       lpesatellites="#path8"
       mode="vertical"
       discard_orig_path="false"
       fuse_paths="false"
       oposite_fuse="false"
       split_items="true"
       split_open="false"
       link_styles="false" />
    <inkscape:path-effect
       effect="mirror_symmetry"
       start_point="250,0"
       end_point="250,500"
       center_point="250,250"
       id="path-effect5"
       is_visible="true"
       lpeversion="1.2"
       lpesatellites="#path7"
       mode="vertical"
       discard_orig_path="false"
       fuse_paths="false"
       oposite_fuse="false"
       split_items="true"
       split_open="false"
       link_styles="true" />
    <inkscape:path-effect
       effect="mirror_symmetry"
       start_point="253.19997,7.4181877"
       end_point="253.19997,520.58245"
       center_point="253.19997,264.00032"
       id="path-effect1"
       is_visible="true"
       lpeversion="1.2"
       lpesatellites=""
       mode="vertical"
       discard_orig_path="false"
       fuse_paths="false"
       oposite_fuse="false"
       split_items="false"
       split_open="false"
       link_styles="false" />
    <inkscape:path-effect
       effect="offset"
       id="path-effect13"
       is_visible="true"
       lpeversion="1.2"
       linejoin_type="miter"
       unit="mm"
       offset="0"
       miter_limit="4"
       attempt_force_join="false"
       update_on_knot_move="true" />
    <inkscape:path-effect
       effect="mirror_symmetry"
       start_point="250,0"
       end_point="250,500"
       center_point="250,250"
       id="path-effect11"
       is_visible="false"
       lpeversion="1.2"
       lpesatellites=""
       mode="vertical"
       discard_orig_path="false"
       fuse_paths="false"
       oposite_fuse="false"
       split_items="false"
       split_open="false"
       link_styles="false" />
    <inkscape:path-effect
       effect="mirror_symmetry"
       start_point="254,0"
       end_point="254,500"
       center_point="254,250"
       id="path-effect10"
       is_visible="true"
       lpeversion="1.2"
       lpesatellites=""
       mode="free"
       discard_orig_path="false"
       fuse_paths="false"
       oposite_fuse="false"
       split_items="false"
       split_open="false"
       link_styles="false" />
    <inkscape:path-effect
       effect="mirror_symmetry"
       start_point="251.99956,0"
       end_point="251.99956,500"
       center_point="251.99956,250"
       id="path-effect8"
       is_visible="true"
       lpeversion="1.2"
       lpesatellites=""
       mode="vertical"
       discard_orig_path="false"
       fuse_paths="false"
       oposite_fuse="false"
       split_items="false"
       split_open="false"
       link_styles="false" />
    <inkscape:path-effect
       effect="mirror_symmetry"
       start_point="250,-9.771615"
       end_point="250,503.39264"
       center_point="250,246.81051"
       id="path-effect6"
       is_visible="true"
       lpeversion="1.2"
       lpesatellites=""
       mode="vertical"
       discard_orig_path="false"
       fuse_paths="false"
       oposite_fuse="false"
       split_items="false"
       split_open="false"
       link_styles="false" />
    <inkscape:path-effect
       effect="mirror_symmetry"
       start_point="250.12631,21.67954"
       end_point="250.12631,477.22102"
       center_point="250.12631,249.45028"
       id="path-effect4"
       is_visible="true"
       lpeversion="1.2"
       lpesatellites=""
       mode="vertical"
       discard_orig_path="false"
       fuse_paths="false"
       oposite_fuse="false"
       split_items="false"
       split_open="false"
       link_styles="false" />
    <inkscape:path-effect
       effect="spiro"
       id="path-effect3"
       is_visible="true"
       lpeversion="1" />
    <inkscape:path-effect
       effect="bspline"
       id="path-effect2"
       is_visible="true"
       lpeversion="1.3"
       weight="33.333333"
       steps="2"
       helper_size="0"
       apply_no_weight="true"
       apply_with_weight="true"
       only_selected="false"
       uniform="false" />
    <inkscape:path-effect
       effect="fill_between_many"
       method="bsplinespiro"
       autoreverse="false"
       close="false"
       join="false"
       linkedpaths="#path47,0,1"
       id="path-effect49" />
  </defs>
  <sodipodi:namedview
     id="namedview1"
     pagecolor="#505050"
     bordercolor="#ffffff"
     borderopacity="1"
     inkscape:showpageshadow="0"
     inkscape:pageopacity="0"
     inkscape:pagecheckerboard="1"
     inkscape:deskcolor="#505050"
     showgrid="false"
     inkscape:zoom="2"
     inkscape:cx="212"
     inkscape:cy="265"
     inkscape:window-width="2488"
     inkscape:window-height="1376"
     inkscape:window-x="72"
     inkscape:window-y="27"
     inkscape:window-maximized="1"
     inkscape:current-layer="svg1">
    <inkscape:grid
       id="grid1"
       units="px"
       originx="0"
       originy="0"
       spacingx="1"
       spacingy="1"
       empcolor="#0099e5"
       empopacity="0.30196078"
       color="#0099e5"
       opacity="0.14901961"
       empspacing="5"
       dotted="false"
       gridanglex="30"
       gridanglez="30"
       visible="false" />
  </sodipodi:namedview>
  <circle
     style="display:inline;fill:#8f1f1e;fill-opacity:1;stroke:#ffffff;stroke-width:0"
     id="path1"
     cx="250"
     cy="250"
     r="246.22218"
     inkscape:label="outer ring" />
  <circle
     style="display:none;fill:#00ff00;fill-opacity:1;stroke:#ffffff;stroke-width:0"
     id="circle3"
     cx="252.29398"
     cy="-247.68478"
     inkscape:label="bottom text base"
     transform="matrix(0.99995751,0.00921834,0.00921834,-0.99995751,0,0)"
     r="236.9756" />
  <ellipse
     style="display:none;fill:#00ff00;fill-opacity:1;stroke:#ffffff;stroke-width:0;stroke-dasharray:none"
     id="ellipse2"
     cx="247.10812"
     cy="252.8588"
     inkscape:label="top text base"
     rx="200.68227"
     ry="200.6823"
     transform="rotate(-0.65899271)" />
  <circle
     style="display:inline;fill:#ffffff;fill-opacity:1;stroke:#ffffff;stroke-width:0;stroke-dasharray:none"
     id="path17"
     cx="250"
     cy="250"
     inkscape:label="inner border"
     r="192.07884" />
  <circle
     style="display:inline;fill:#d60000;fill-opacity:1;stroke:#ffffff;stroke-width:0;stroke-dasharray:none"
     id="circle1"
     cx="250"
     cy="-250"
     r="190.03271"
     inkscape:label="inner circle"
     transform="scale(1,-1)" />
  <g
     id="g13"
     inkscape:label="sled"
     inkscape:path-effect="#path-effect1"
     transform="matrix(0.97434689,0,0,0.97434689,3.2953953,-7.2278881)"
     style="display:inline">
    <path
       style="fill:none;stroke:#ffffff;stroke-width:7.2;stroke-linecap:round;stroke-linejoin:miter;stroke-dasharray:none;stroke-opacity:1"
       d="M 192.61,419.94 95.274,322.415 c -14.978809,-14.0323 1.71945,-46.58028 29.37705,-32.96246 M 313.78994,419.94 l 97.336,-97.525 c 14.97881,-14.0323 -1.71945,-46.58028 -29.37705,-32.96246"
       id="path10"
       sodipodi:nodetypes="ccc"
       inkscape:label="sled ski"
       inkscape:original-d="M 192.61,419.94 95.274,322.415 c -14.978809,-14.0323 1.71945,-46.58028 29.37705,-32.96246" />
    <path
       style="fill:#ffffff;stroke:#ffffff;stroke-width:7.2;stroke-linecap:round;stroke-linejoin:miter;stroke-dasharray:none;stroke-opacity:1"
       d="m 127.33445,323.27484 77.75491,77.45578 m 173.97613,-77.45578 -77.75491,77.45578"
       id="path11"
       sodipodi:nodetypes="cc"
       inkscape:label="sled base"
       inkscape:original-d="m 127.33445,323.27484 77.75491,77.45578" />
    <path
       style="display:inline;fill:#ffffff;stroke:#ffffff;stroke-width:4.6;stroke-linecap:butt;stroke-linejoin:miter;stroke-dasharray:none;stroke-opacity:1"
       d="M 122.05871,347.46465 145.167,342.996 m 40.68034,69.14939 4.87374,-24.95243 M 384.34123,347.46465 361.23294,342.996 m -40.68034,69.14939 -4.87374,-24.95243"
       id="path13"
       sodipodi:nodetypes="cccc"
       inkscape:original-d="M 122.05871,347.46465 145.167,342.996 m 40.68034,69.14939 4.87374,-24.95243"
       inkscape:label="supports" />
    <path
       id="path12-7-6-6-9-3"
       style="fill:#ffffff;stroke:#ffffff;stroke-width:0;stroke-linecap:round;stroke-linejoin:round;stroke-dasharray:none;stroke-opacity:1"
       d="m 195.415,387.06 h 5.33182 l 7.16345,7.16345 v 4.99898 z m -13.4,-13.4 h 5.33182 l 7.16345,7.16345 v 4.99898 z m -13.4,-13.4 h 5.33182 l 7.16345,7.16345 v 4.99898 z m -13.4,-13.4 h 5.33182 l 7.16345,7.16345 v 4.99898 z m -13.4,-13.4 h 5.33182 l 7.16345,7.16345 v 4.99898 z m -13.4,-13.4 h 5.33182 l 7.16345,7.16345 v 4.99898 z m 182.56994,67 h -5.33182 l -7.16345,7.16345 v 4.99898 z m 13.4,-13.4 h -5.33182 l -7.16345,7.16345 v 4.99898 z m 13.4,-13.4 h -5.33182 l -7.16345,7.16345 v 4.99898 z m 13.4,-13.4 h -5.33182 l -7.16345,7.16345 v 4.99898 z m 13.4,-13.4 h -5.33182 l -7.16345,7.16345 v 4.99898 z m 13.4,-13.4 h -5.33182 l -7.16345,7.16345 v 4.99898 z"
       inkscape:original-d="m 195.415,387.06 h 5.33182 l 7.16345,7.16345 v 4.99898 z m -13.4,-13.4 h 5.33182 l 7.16345,7.16345 v 4.99898 z m -13.4,-13.4 h 5.33182 l 7.16345,7.16345 v 4.99898 z m -13.4,-13.4 h 5.33182 l 7.16345,7.16345 v 4.99898 z m -13.4,-13.4 h 5.33182 l 7.16345,7.16345 v 4.99898 z m -13.4,-13.4 h 5.33182 l 7.16345,7.16345 v 4.99898 z"
       inkscape:label="slats" />
  </g>
  <path
     id="rect6"
     style="display:inline;fill:#ffffff;stroke:#000000;stroke-width:0"
     d="m 253.42892,86.686649 c -0.0579,-0.0014 -21.87637,28.260661 -23.37145,30.273701 -0.0549,0.0738 -3.96743,-1.74027 -8.69368,-4.03076 -4.72622,-2.2905 -8.70724,-4.20356 -8.84739,-4.2523 l -0.25459,-0.0894 -3.36724,6.02078 -3.36732,6.02077 -4.57388,4.08338 -4.57288,4.08338 -3.61065,7.33422 c -1.98551,4.03394 -3.78438,7.69134 -3.99756,8.12799 -0.21321,0.43666 -0.3648,0.7938 -0.33705,0.7938 0.0279,0 1.78092,-0.8842 3.89576,-1.9651 2.11482,-1.08087 3.95215,-2.0026 4.08308,-2.04814 0.15405,-0.0536 0.96403,0.62815 2.29203,1.92815 1.12948,1.10565 2.11784,2.03248 2.19636,2.06016 0.18107,0.0639 11.3455,-2.54571 11.57015,-2.7044 0.0917,-0.0648 0.50066,-0.99512 0.90827,-2.06663 l 0.74127,-1.94753 3.55565,-1.12699 c 2.19819,-0.69664 3.58382,-1.21381 3.62998,-1.35406 0.13446,-0.40817 0.92458,-4.29369 0.92458,-4.54672 0,-0.15013 -1.38982,-1.12663 -3.54548,-2.4912 -4.21105,-2.66571 -3.4679,-1.78388 -5.04329,-5.98847 l -1.31049,-3.49636 0.56716,-2.11553 c 0.67138,-2.50609 0.31384,-2.31694 3.81023,-2.0186 1.55576,0.13281 2.94637,0.24183 3.09032,0.24183 0.17437,0 0.92924,1.19924 2.2605,3.5914 l 1.99877,3.59142 2.94067,2.1063 2.94166,2.1063 1.11803,2.05278 1.118,2.05184 3.98128,0.60548 3.98233,0.60459 0.34618,1.16574 0.34517,1.16485 5.5626,3.92739 5.56157,3.92647 0.52745,-0.0702 c 0.28987,-0.0383 4.19473,-0.4371 8.67738,-0.88609 4.48261,-0.44897 8.17854,-0.84282 8.21407,-0.875 0.0356,-0.0322 -1.24975,-0.93732 -2.85616,-2.01124 -2.11264,-1.41236 -2.89285,-2.0155 -2.82048,-2.18107 0.055,-0.12582 0.36791,-0.87398 0.69543,-1.66234 l 0.59568,-1.43343 -0.8879,-6.05215 c -0.48862,-3.32876 -0.90257,-6.071 -0.91947,-6.09369 -0.0176,-0.0227 -0.54196,0.16671 -1.16686,0.42089 -1.39852,0.56877 -1.05388,1.02159 -3.15449,-4.14338 l -1.77682,-4.3695 -1.13024,-5.76235 -1.13023,-5.76325 -1.82366,-1.3882 c -1.00331,-0.763162 -1.82468,-1.443299 -1.82468,-1.511879 0,-0.459517 2.17284,-4.890599 2.36536,-4.823636 0.15824,0.05505 5.3254,3.626054 7.03191,4.859621 0.0302,0.02178 1.06294,2.750674 2.2951,6.064164 1.23213,3.31349 2.5801,6.9112 2.99563,7.9951 l 0.75552,1.97059 6.73151,5.36361 c 3.70247,2.95004 6.70389,5.40677 6.66942,5.45957 -0.0344,0.0528 -2.20125,1.41404 -4.8152,3.0247 -5.62925,3.46864 -5.36126,2.86167 -1.89595,4.30581 l 2.86326,1.19347 2.07517,2.21799 2.07412,2.21706 1.6098,0.0969 c 0.88515,0.053 1.75848,0.10992 1.94078,0.12647 l 0.33091,0.0296 0.53762,1.79614 c 0.29563,0.98774 0.56544,1.8214 0.59975,1.8525 0.11209,0.10166 9.85744,2.77274 9.91756,2.71825 0.0322,-0.0291 -1.06088,-1.22835 -2.42846,-2.66471 l -2.48653,-2.61213 -0.10074,-1.29311 c -0.0553,-0.71159 -0.0851,-1.30803 -0.0651,-1.32455 0.0199,-0.0164 2.36385,0.36906 5.20825,0.85657 2.84441,0.4875 5.28355,0.88924 5.42003,0.89255 0.13655,0.004 -0.87081,-1.00977 -2.23806,-2.25122 l -2.4855,-2.25766 0.3635,-2.01494 c 0.20021,-1.1082 0.36552,-2.15131 0.36658,-2.31767 9.7e-4,-0.19267 -0.79417,-0.98957 -2.19226,-2.19583 l -2.19532,-1.89309 0.95715,-1.73618 c 0.52644,-0.95474 0.98303,-1.76078 1.01415,-1.79157 0.0312,-0.0307 0.79238,0.33193 1.69129,0.8058 l 1.63427,0.86118 2.78892,3.66986 2.78995,3.66989 3.29399,1.80077 c 1.81194,0.99013 3.67238,2.0015 4.13402,2.24752 l 0.83902,0.44675 -2.74922,-2.59457 -2.75024,-2.59457 -4.70525,-8.28677 c -2.73722,-4.82078 -4.78996,-8.26867 -4.90685,-8.24245 -0.11037,0.0247 -3.97848,1.50536 -8.5949,3.28959 -4.61643,1.78423 -8.4908,3.24344 -8.61017,3.24344 -0.11939,0 -1.99436,-1.61603 -4.16659,-3.59141 l -3.94974,-3.5914 -4.31014,-8.84703 -4.31122,-8.846094 -1.25648,-0.551038 -1.25751,-0.550118 -3.24308,-4.019689 c -1.78402,-2.210791 -3.28169,-4.020373 -3.32756,-4.021548 z"
     inkscape:label="mountains" />
  <path
     id="path1-0"
     style="display:inline;fill:#ffffff;stroke-width:0.974347"
     inkscape:label="bull"
     d="m 333.71581,101.24463 c -1.64937,0.18684 -12.46928,4.3952 -11.78351,15.69612 0.21922,3.61258 1.11165,6.36652 3.97731,12.00807 2.3365,4.59973 6.57519,10.06136 8.53316,13.68081 3.35617,6.20422 2.44654,13.46293 0.17888,17.81228 -3.46913,6.65377 -13.22689,15.69747 -23.97427,18.53163 -2.71455,0.71584 -8.53365,1.97847 -11.70929,-0.0647 l -5.80421,-5.64626 c -4.95709,-4.82122 -14.30041,-8.65904 -27.01529,-12.01187 -10.35401,-2.73027 -21.36953,-2.66829 -32.23718,0 -12.77022,3.13544 -22.05819,7.19065 -27.01529,12.01187 -1.93501,1.88197 -5.80421,5.64626 -5.80421,5.64626 -3.17564,2.04318 -8.99474,0.78055 -11.70929,0.0647 -10.74738,-2.83416 -20.50514,-11.87786 -23.97427,-18.53163 -2.26766,-4.34935 -3.17729,-11.60806 0.17888,-17.81228 1.95797,-3.61945 6.19666,-9.08108 8.53316,-13.68081 2.86566,-5.64155 3.75809,-8.39549 3.97731,-12.00807 0.73148,-12.05431 -11.62821,-16.039 -11.98523,-15.68089 0.38566,3.705 2.65365,7.22923 0.47005,13.1023 -3.57284,9.60965 -12.52501,14.69844 -17.66004,23.39004 -10.0593,17.02643 -9.20882,36.41548 7.31902,53.29981 7.36019,7.51894 14.03747,8.91625 11.49806,9.01271 -5.83209,0.64508 -11.25363,-3.8847 -16.67619,-7.1801 -8.15585,-4.9565 -14.55346,-10.44798 -15.83122,-7.42558 -6.33262,14.97902 -0.86614,37.71345 14.25172,48.87909 14.08992,10.40643 14.73109,-0.11922 33.18298,-1.34162 2.40187,-0.15912 1.35424,3.97023 0.39202,9.42946 -0.79207,4.4919 -1.02325,11.91454 -0.78595,16.44973 0.404,7.72067 1.20697,13.09885 6.47599,23.55749 3.09504,6.14346 5.07688,9.51082 7.65585,13.81023 2.57896,4.29938 10.60172,13.64431 13.35161,19.31757 12.07035,24.90227 0.0984,35.26366 15.08714,40.91305 2.8662,1.08029 10.96835,0.93772 17.77802,-0.89252 6.8097,-1.83023 8.00725,-1.83023 14.81694,0 6.80968,1.83024 14.91181,1.97281 17.77802,0.89252 14.98872,-5.64939 3.01678,-16.01078 15.08714,-40.91305 2.74989,-5.67326 10.77265,-15.01819 13.35161,-19.31757 2.57897,-4.29941 4.5608,-7.66677 7.65585,-13.81023 5.26902,-10.45864 6.07199,-15.83682 6.47599,-23.55749 0.23731,-4.53519 0.006,-11.95783 -0.78595,-16.44973 -0.96221,-5.45923 -1.48793,-7.92609 0.39202,-9.42946 18.45189,1.2224 19.09306,11.74805 33.18298,1.34162 15.11786,-11.16564 20.58434,-33.90007 14.25172,-48.87909 -1.27776,-3.0224 -7.67537,2.46908 -15.83122,7.42558 -5.42256,3.2954 -10.8441,7.82518 -16.67619,7.1801 -2.53941,-0.0965 4.13787,-1.49377 11.49806,-9.01271 16.52784,-16.88433 17.37832,-36.27338 7.31902,-53.29981 -5.13503,-8.6916 -14.0872,-13.78039 -17.66004,-23.39004 -2.1836,-5.87307 0.0844,-9.3973 0.47005,-13.1023 -0.0223,-0.0224 -0.0918,-0.0277 -0.20172,-0.0152 z" />
  <path
     style="display:inline;fill:#d60000;fill-opacity:1;stroke-width:0.56331;stroke-dasharray:none"
     d="m 160.73437,228.6482 c -4.68858,2.64199 -6.74599,1.35391 -10.87568,-1.10838 -6.25235,-4.92419 -17.5586,-17.1248 -12.76254,-34.45952 0.50689,-1.83209 6.14868,4.31832 11.7741,7.16858 4.2316,2.14404 6.84889,3.11965 11.8181,5.11578 4.13587,1.66138 13.65965,11.18577 14.29445,13.28899 0.8033,2.66148 -4.48575,5.39714 -7.50735,6.57717 -2.7928,1.09069 -4.09983,1.92905 -6.74108,3.41738 z m 178.53126,0 c 4.68858,2.64199 6.74599,1.35391 10.87568,-1.10838 6.25235,-4.92419 17.5586,-17.1248 12.76254,-34.45952 -0.50689,-1.83209 -6.14868,4.31832 -11.7741,7.16858 -4.2316,2.14404 -6.84889,3.11965 -11.8181,5.11578 -4.13587,1.66138 -13.65965,11.18577 -14.29445,13.28899 -0.8033,2.66148 4.48575,5.39714 7.50735,6.57717 2.7928,1.09069 4.09983,1.92905 6.74108,3.41738 z"
     id="path5"
     inkscape:label="ear_inside"
     sodipodi:nodetypes="scssssss"
     inkscape:path-effect="#path-effect18"
     inkscape:original-d="m 160.73437,228.6482 c -4.68858,2.64199 -6.74599,1.35391 -10.87568,-1.10838 -6.25235,-4.92419 -17.5586,-17.1248 -12.76254,-34.45952 0.50689,-1.83209 6.14868,4.31832 11.7741,7.16858 4.2316,2.14404 6.84889,3.11965 11.8181,5.11578 4.13587,1.66138 13.65965,11.18577 14.29445,13.28899 0.8033,2.66148 -4.48575,5.39714 -7.50735,6.57717 -2.7928,1.09069 -4.09983,1.92905 -6.74108,3.41738 z"
     transform="matrix(0.97434689,0,0,0.97434689,6.4132782,6.4132782)" />
  <path
     style="display:inline;fill:#d60000;fill-opacity:1;stroke:#000000;stroke-width:0;stroke-linecap:butt;stroke-linejoin:miter;stroke-dasharray:none;stroke-opacity:1"
     d="m 201.84315,229.51212 c -7.88786,14.67443 22.52078,40.89555 38.13686,27.47655 l -7.80117,-5.62053 c -8.15033,10.49405 -20.43483,0.52874 -12.93145,-9.31675 z m 96.56632,0 c 7.88786,14.67443 -22.52078,40.89555 -38.13686,27.47655 l 7.80117,-5.62053 c 8.15033,10.49405 20.43483,0.52874 12.93145,-9.31675 z"
     id="path4"
     sodipodi:nodetypes="ccccc"
     transform="matrix(1.0975949,0,0,1.0975949,-24.537363,-23.795353)"
     inkscape:label="eyes"
     inkscape:original-d="m 201.84315,229.51212 c -7.88786,14.67443 22.52078,40.89555 38.13686,27.47655 l -7.80117,-5.62053 c -8.15033,10.49405 -20.43483,0.52874 -12.93145,-9.31675 z"
     inkscape:path-effect="#path-effect4" />
  <path
     d="m 226.96484,250.13086 -8.61718,-6.20899 c -0.0394,0.0407 -0.0799,0.0792 -0.11914,0.1211 -0.10559,0.11286 -0.21048,0.22945 -0.31446,0.35156 -0.10397,0.12211 -0.20643,0.24933 -0.30859,0.38086 -0.0792,0.10392 -0.15578,0.20859 -0.22852,0.3125 -0.0727,0.10391 -0.14259,0.20676 -0.20898,0.31055 -0.0664,0.10378 -0.12928,0.20698 -0.18945,0.31054 -0.0602,0.10356 -0.11585,0.20732 -0.16993,0.31055 -0.0541,0.10323 -0.10619,0.2058 -0.15429,0.30859 -0.0481,0.1028 -0.0925,0.20635 -0.13477,0.3086 -0.0423,0.10224 -0.0826,0.20504 -0.11914,0.30664 -0.0365,0.1016 -0.0706,0.20189 -0.10156,0.30273 -0.0309,0.10084 -0.0585,0.20081 -0.084,0.30078 -0.0255,0.1 -0.0483,0.19982 -0.0684,0.29883 -0.0201,0.099 -0.0379,0.19699 -0.0527,0.29492 -0.0149,0.0979 -0.0274,0.19622 -0.0371,0.29297 -0.01,0.0968 -0.0167,0.1936 -0.0215,0.28907 -0.005,0.0955 -0.006,0.18912 -0.006,0.2832 1.8e-4,0.18815 0.008,0.37274 0.0273,0.55469 0.0189,0.18194 0.0474,0.36222 0.084,0.53711 0.0366,0.17489 0.0814,0.34473 0.13477,0.51171 0.0534,0.16699 0.11645,0.33005 0.18555,0.48829 0.0691,0.15823 0.14465,0.3123 0.22851,0.46093 0.0839,0.14864 0.1758,0.29151 0.27344,0.42969 0.0976,0.13819 0.20207,0.27155 0.3125,0.39844 0.11044,0.12689 0.22737,0.24854 0.34961,0.36328 0.12224,0.11474 0.24975,0.22247 0.38281,0.32422 0.13306,0.10175 0.27117,0.19725 0.41406,0.28515 0.1429,0.0879 0.28967,0.16897 0.44141,0.24219 0.15174,0.0732 0.3072,0.13764 0.4668,0.19531 0.1596,0.0577 0.32376,0.10715 0.49023,0.14844 0.16648,0.0413 0.33545,0.0756 0.50781,0.0996 0.17237,0.0241 0.34813,0.0389 0.5254,0.0449 0.17726,0.006 0.35592,0.003 0.5371,-0.01 0.18119,-0.013 0.36472,-0.0356 0.54883,-0.0684 0.0921,-0.0164 0.18474,-0.0352 0.27735,-0.0566 0.0926,-0.0215 0.18431,-0.0456 0.27734,-0.0723 0.093,-0.0267 0.18792,-0.0559 0.28125,-0.0879 0.0933,-0.032 0.18579,-0.068 0.2793,-0.10547 0.0935,-0.0374 0.18768,-0.0762 0.28125,-0.11914 0.0936,-0.043 0.1858,-0.0901 0.27929,-0.13867 0.0935,-0.0486 0.18795,-0.1 0.28125,-0.1543 0.0933,-0.0543 0.18631,-0.1117 0.2793,-0.17187 0.093,-0.0602 0.18675,-0.12333 0.2793,-0.18945 0.0925,-0.0661 0.1834,-0.13485 0.27539,-0.20704 0.092,-0.0722 0.18409,-0.14625 0.27539,-0.22461 0.0913,-0.0784 0.18294,-0.16147 0.27344,-0.24609 0.0905,-0.0846 0.17997,-0.17267 0.26953,-0.26367 0.0896,-0.091 0.17907,-0.18377 0.26758,-0.28125 0.0885,-0.0975 0.17634,-0.19866 0.26367,-0.30274 0.0873,-0.10407 0.17374,-0.2115 0.25976,-0.32226 0.11138,-0.14614 0.21582,-0.29143 0.31446,-0.4375 0.0986,-0.14607 0.19109,-0.29375 0.27734,-0.43945 0.012,-0.0202 0.0215,-0.0403 0.0332,-0.0605 z m 46.07032,0 8.61718,-6.20899 c 0.0394,0.0407 0.0799,0.0792 0.11914,0.1211 0.10559,0.11286 0.21048,0.22945 0.31446,0.35156 0.10397,0.12211 0.20643,0.24933 0.30859,0.38086 0.0792,0.10392 0.15578,0.20859 0.22852,0.3125 0.0727,0.10391 0.14259,0.20676 0.20898,0.31055 0.0664,0.10378 0.12928,0.20698 0.18945,0.31054 0.0602,0.10356 0.11585,0.20732 0.16993,0.31055 0.0541,0.10323 0.10619,0.2058 0.15429,0.30859 0.0481,0.1028 0.0925,0.20635 0.13477,0.3086 0.0423,0.10224 0.0826,0.20504 0.11914,0.30664 0.0365,0.1016 0.0706,0.20189 0.10156,0.30273 0.0309,0.10084 0.0585,0.20081 0.084,0.30078 0.0255,0.1 0.0483,0.19982 0.0684,0.29883 0.0201,0.099 0.0379,0.19699 0.0527,0.29492 0.0149,0.0979 0.0274,0.19622 0.0371,0.29297 0.01,0.0968 0.0167,0.1936 0.0215,0.28907 0.005,0.0955 0.006,0.18912 0.006,0.2832 -1.8e-4,0.18815 -0.008,0.37274 -0.0273,0.55469 -0.0189,0.18194 -0.0474,0.36222 -0.084,0.53711 -0.0366,0.17489 -0.0814,0.34473 -0.13477,0.51171 -0.0534,0.16699 -0.11645,0.33005 -0.18555,0.48829 -0.0691,0.15823 -0.14465,0.3123 -0.22851,0.46093 -0.0839,0.14864 -0.1758,0.29151 -0.27344,0.42969 -0.0976,0.13819 -0.20207,0.27155 -0.3125,0.39844 -0.11044,0.12689 -0.22737,0.24854 -0.34961,0.36328 -0.12224,0.11474 -0.24975,0.22247 -0.38281,0.32422 -0.13306,0.10175 -0.27117,0.19725 -0.41406,0.28515 -0.1429,0.0879 -0.28967,0.16897 -0.44141,0.24219 -0.15174,0.0732 -0.3072,0.13764 -0.4668,0.19531 -0.1596,0.0577 -0.32376,0.10715 -0.49023,0.14844 -0.16648,0.0413 -0.33545,0.0756 -0.50781,0.0996 -0.17237,0.0241 -0.34813,0.0389 -0.5254,0.0449 -0.17726,0.006 -0.35592,0.003 -0.5371,-0.01 -0.18119,-0.013 -0.36472,-0.0356 -0.54883,-0.0684 -0.0921,-0.0164 -0.18474,-0.0352 -0.27735,-0.0566 -0.0926,-0.0215 -0.18431,-0.0456 -0.27734,-0.0723 -0.093,-0.0267 -0.18792,-0.0559 -0.28125,-0.0879 -0.0933,-0.032 -0.18579,-0.068 -0.2793,-0.10547 -0.0935,-0.0374 -0.18768,-0.0762 -0.28125,-0.11914 -0.0936,-0.043 -0.1858,-0.0901 -0.27929,-0.13867 -0.0935,-0.0486 -0.18795,-0.1 -0.28125,-0.1543 -0.0933,-0.0543 -0.18631,-0.1117 -0.2793,-0.17187 -0.093,-0.0602 -0.18675,-0.12333 -0.2793,-0.18945 -0.0925,-0.0661 -0.1834,-0.13485 -0.27539,-0.20704 -0.092,-0.0722 -0.18409,-0.14625 -0.27539,-0.22461 -0.0913,-0.0784 -0.18294,-0.16147 -0.27344,-0.24609 -0.0905,-0.0846 -0.17997,-0.17267 -0.26953,-0.26367 -0.0896,-0.091 -0.17907,-0.18377 -0.26758,-0.28125 -0.0885,-0.0975 -0.17634,-0.19866 -0.26367,-0.30274 -0.0873,-0.10407 -0.17374,-0.2115 -0.25976,-0.32226 -0.11138,-0.14614 -0.21582,-0.29143 -0.31446,-0.4375 -0.0986,-0.14607 -0.19109,-0.29375 -0.27734,-0.43945 -0.012,-0.0202 -0.0215,-0.0403 -0.0332,-0.0605 z"
     style="display:inline;fill:#d60000;stroke:#000000;stroke-width:0"
     id="path20"
     inkscape:label="pupil"
     inkscape:path-effect="#path-effect20"
     inkscape:original-d="m 226.96484,250.13086 -8.61718,-6.20899 c -0.0394,0.0407 -0.0799,0.0792 -0.11914,0.1211 -0.10559,0.11286 -0.21048,0.22945 -0.31446,0.35156 -0.10397,0.12211 -0.20643,0.24933 -0.30859,0.38086 -0.0792,0.10392 -0.15578,0.20859 -0.22852,0.3125 -0.0727,0.10391 -0.14259,0.20676 -0.20898,0.31055 -0.0664,0.10378 -0.12928,0.20698 -0.18945,0.31054 -0.0602,0.10356 -0.11585,0.20732 -0.16993,0.31055 -0.0541,0.10323 -0.10619,0.2058 -0.15429,0.30859 -0.0481,0.1028 -0.0925,0.20635 -0.13477,0.3086 -0.0423,0.10224 -0.0826,0.20504 -0.11914,0.30664 -0.0365,0.1016 -0.0706,0.20189 -0.10156,0.30273 -0.0309,0.10084 -0.0585,0.20081 -0.084,0.30078 -0.0255,0.1 -0.0483,0.19982 -0.0684,0.29883 -0.0201,0.099 -0.0379,0.19699 -0.0527,0.29492 -0.0149,0.0979 -0.0274,0.19622 -0.0371,0.29297 -0.01,0.0968 -0.0167,0.1936 -0.0215,0.28907 -0.005,0.0955 -0.006,0.18912 -0.006,0.2832 1.8e-4,0.18815 0.008,0.37274 0.0273,0.55469 0.0189,0.18194 0.0474,0.36222 0.084,0.53711 0.0366,0.17489 0.0814,0.34473 0.13477,0.51171 0.0534,0.16699 0.11645,0.33005 0.18555,0.48829 0.0691,0.15823 0.14465,0.3123 0.22851,0.46093 0.0839,0.14864 0.1758,0.29151 0.27344,0.42969 0.0976,0.13819 0.20207,0.27155 0.3125,0.39844 0.11044,0.12689 0.22737,0.24854 0.34961,0.36328 0.12224,0.11474 0.24975,0.22247 0.38281,0.32422 0.13306,0.10175 0.27117,0.19725 0.41406,0.28515 0.1429,0.0879 0.28967,0.16897 0.44141,0.24219 0.15174,0.0732 0.3072,0.13764 0.4668,0.19531 0.1596,0.0577 0.32376,0.10715 0.49023,0.14844 0.16648,0.0413 0.33545,0.0756 0.50781,0.0996 0.17237,0.0241 0.34813,0.0389 0.5254,0.0449 0.17726,0.006 0.35592,0.003 0.5371,-0.01 0.18119,-0.013 0.36472,-0.0356 0.54883,-0.0684 0.0921,-0.0164 0.18474,-0.0352 0.27735,-0.0566 0.0926,-0.0215 0.18431,-0.0456 0.27734,-0.0723 0.093,-0.0267 0.18792,-0.0559 0.28125,-0.0879 0.0933,-0.032 0.18579,-0.068 0.2793,-0.10547 0.0935,-0.0374 0.18768,-0.0762 0.28125,-0.11914 0.0936,-0.043 0.1858,-0.0901 0.27929,-0.13867 0.0935,-0.0486 0.18795,-0.1 0.28125,-0.1543 0.0933,-0.0543 0.18631,-0.1117 0.2793,-0.17187 0.093,-0.0602 0.18675,-0.12333 0.2793,-0.18945 0.0925,-0.0661 0.1834,-0.13485 0.27539,-0.20704 0.092,-0.0722 0.18409,-0.14625 0.27539,-0.22461 0.0913,-0.0784 0.18294,-0.16147 0.27344,-0.24609 0.0905,-0.0846 0.17997,-0.17267 0.26953,-0.26367 0.0896,-0.091 0.17907,-0.18377 0.26758,-0.28125 0.0885,-0.0975 0.17634,-0.19866 0.26367,-0.30274 0.0873,-0.10407 0.17374,-0.2115 0.25976,-0.32226 0.11138,-0.14614 0.21582,-0.29143 0.31446,-0.4375 0.0986,-0.14607 0.19109,-0.29375 0.27734,-0.43945 0.012,-0.0202 0.0215,-0.0403 0.0332,-0.0605 z"
     transform="matrix(0.97434689,0,0,0.97434689,6.4132782,6.4132782)" />
  <path
     id="path7"
     style="display:inline;fill:#d60000;fill-opacity:1;stroke:#000000;stroke-width:0;stroke-linecap:butt;stroke-linejoin:miter;stroke-dasharray:none;stroke-opacity:1"
     inkscape:label="nose"
     transform="matrix(0.97434689,0,0,0.97434689,3.8804524,9.5209427)"
     d="m 237.70251,348.64104 c -2.35756,1.54925 -4.5365,2.61676 -8.625,0.88712 -1.58334,-0.66984 -3.69866,-3.46138 -3.95085,-5.69527 -0.26397,-2.33835 -0.25393,-3.90743 0.38997,-6.18211 0.47972,-1.69469 3.76754,-7.26252 2.58818,-19.04374 -0.13008,-1.29943 -0.0789,-2.58744 -0.14904,-3.89148 -0.27102,-5.03763 3.70277,-6.45162 8.09586,-4.65163 2.76807,1.13417 5.48596,1.89623 7.88032,2.93395 1.22377,0.53039 4.9259,1.65291 8.67693,1.64055 3.75102,-0.0124 7.48153,-1.13801 8.65819,-1.64055 2.44691,-1.04505 5.11225,-1.79978 7.88032,-2.93395 4.39309,-1.79999 8.36688,-0.386 8.09586,4.65163 -0.0701,1.30404 -0.019,2.59205 -0.14904,3.89148 -1.17936,11.78122 2.10846,17.34905 2.58818,19.04374 0.6439,2.27468 0.65394,3.84376 0.38997,6.18211 -0.25219,2.23389 -2.36751,5.02543 -3.95085,5.69527 -4.0885,1.72964 -6.122,0.55799 -8.625,-0.88712 -6.16818,-3.5612 -23.77483,-3.85505 -29.794,0 z m 34.81302,-43.32659 c -3.1348,10e-4 -5.93176,1.574 -8.84482,2.50878 -2.75183,0.93143 -5.40351,2.25069 -8.32239,2.58865 -3.78756,0.60659 -7.67993,-0.10432 -11.17548,-1.61737 -2.23693,-0.89545 -4.55,-1.57931 -6.77645,-2.50349 -3.00465,-1.17893 -6.62711,-1.50687 -9.47079,0.27436 -2.58249,1.46667 -3.95219,4.44643 -3.96904,7.34551 -0.0596,2.78066 0.27693,5.54577 0.37569,8.32101 0.15306,4.36376 -0.42122,8.79391 -2.12113,12.83987 -0.9949,2.36466 -1.35468,4.94562 -1.21658,7.49814 0.0541,2.40713 0.79217,4.77886 2.16951,6.75837 1.48261,2.31911 3.85022,4.03446 6.54048,4.64865 2.93427,0.81372 6.19593,0.47198 8.80034,-1.14943 1.38201,-0.84622 2.79899,-1.69032 4.41993,-1.97201 5.07813,-1.23286 10.38574,-1.18078 15.55073,-0.60472 2.82428,0.3402 5.69531,0.94918 8.13093,2.48735 2.36407,1.31402 5.15165,2.05235 7.8421,1.44658 2.70195,-0.40857 5.29061,-1.76231 6.94001,-3.97767 1.82068,-2.21662 2.84035,-5.05236 2.83008,-7.92187 0.18277,-2.99626 -0.60615,-5.95496 -1.78441,-8.68536 -1.8051,-5.00781 -1.79886,-10.4408 -1.29431,-15.67498 0.0917,-2.90038 0.49313,-6.07918 -1.16277,-8.65377 -1.52451,-2.60591 -4.48453,-4.03904 -7.46163,-3.9566 z" />
  <path
     style="display:inline;opacity:1;fill:#d60000;fill-opacity:1;stroke:#000000;stroke-width:0;stroke-linecap:butt;stroke-linejoin:miter;stroke-dasharray:none;stroke-opacity:1"
     d="m 243.27605,328.1847 c 0.0713,-3.9333 -0.666,-7.65295 -2.86974,-10.03789 -1.90594,-2.06266 -5.83311,-2.89896 -8.59464,-1.5264 -1.70918,0.84951 -3.82525,3.2559 -3.74372,6.88777 0.0876,3.9022 2.20089,5.47864 2.65798,5.92136 0.87322,0.84579 2.81271,0.59326 2.88055,-1.67194 0.0321,-1.07211 -0.67899,-1.6127 -0.94536,-2.76995 -0.34949,-1.5184 0.63451,-3.5511 1.80056,-3.86195 1.39515,-0.37192 2.91172,1.14504 3.68336,2.65072 2.23914,4.36915 0.30347,9.54025 -7.97347,13.44433 -1.37389,0.49345 -1.20401,2.87103 1.52883,2.66343 3.78838,-0.28778 11.37686,-0.72618 11.57565,-11.69948 z m 13.4479,0 c -0.0713,-3.9333 0.666,-7.65295 2.86974,-10.03789 1.90594,-2.06266 5.83311,-2.89896 8.59464,-1.5264 1.70918,0.84951 3.82525,3.2559 3.74372,6.88777 -0.0876,3.9022 -2.20089,5.47864 -2.65798,5.92136 -0.87322,0.84579 -2.81271,0.59326 -2.88055,-1.67194 -0.0321,-1.07211 0.67899,-1.6127 0.94536,-2.76995 0.34949,-1.5184 -0.63451,-3.5511 -1.80056,-3.86195 -1.39515,-0.37192 -2.91172,1.14504 -3.68336,2.65072 -2.23914,4.36915 -0.30347,9.54025 7.97347,13.44433 1.37389,0.49345 1.20401,2.87103 -1.52883,2.66343 -3.78838,-0.28778 -11.37686,-0.72618 -11.57565,-11.69948 z"
     id="path3"
     sodipodi:nodetypes="ssssssssscss"
     inkscape:label="nostrils"
     inkscape:path-effect="#path-effect6"
     inkscape:original-d="m 243.27605,328.1847 c 0.0713,-3.9333 -0.666,-7.65295 -2.86974,-10.03789 -1.90594,-2.06266 -5.83311,-2.89896 -8.59464,-1.5264 -1.70918,0.84951 -3.82525,3.2559 -3.74372,6.88777 0.0876,3.9022 2.20089,5.47864 2.65798,5.92136 0.87322,0.84579 2.81271,0.59326 2.88055,-1.67194 0.0321,-1.07211 -0.67899,-1.6127 -0.94536,-2.76995 -0.34949,-1.5184 0.63451,-3.5511 1.80056,-3.86195 1.39515,-0.37192 2.91172,1.14504 3.68336,2.65072 2.23914,4.36915 0.30347,9.54025 -7.97347,13.44433 -1.37389,0.49345 -1.20401,2.87103 1.52883,2.66343 3.78838,-0.28778 11.37686,-0.72618 11.57565,-11.69948 z"
     transform="matrix(0.97434689,0,0,0.97434689,6.4132782,9.5209427)" />
  <path
     style="fill:#d60000;fill-opacity:1;fill-rule:nonzero;stroke:none;stroke-width:1px;stroke-linecap:butt;stroke-linejoin:miter;stroke-opacity:1"
     d="m 167.80337,125.77662 c -0.16801,0.87817 -0.46072,1.65031 -0.82494,2.35066 -0.38708,0.74432 -0.86564,1.4271 -1.38016,2.0702 -1.15342,1.44166 -2.5118,2.75703 -3.80891,4.20496 -1.58549,1.76985 -2.97311,3.57559 -4.20074,5.80656 -1.52846,2.77766 -2.5884,5.83861 -3.28478,9.20966 -1.11877,5.64871 -0.4009,10.52927 0.59831,14.07826 1.74919,6.21277 5.02627,10.75515 6.96177,13.04513 2.84823,3.36986 6.63925,6.50475 13.32345,9.13868 3.54562,1.39715 9.41893,3.22037 17.28716,3.73887 -7.53291,-2.0779 -12.71261,-5.11567 -15.59707,-7.01992 -4.43532,-2.9281 -9.4827,-7.50043 -11.30815,-9.2838 -1.84829,-1.80568 -5.3207,-5.40072 -7.47047,-10.70204 -1.22746,-3.02689 -2.33617,-7.37336 -1.6879,-12.65463 0.37235,-3.23931 1.11114,-6.22465 2.32517,-8.98173 0.97787,-2.22073 2.1602,-4.07656 3.58032,-5.93891 1.16256,-1.52458 2.4278,-2.94384 3.49964,-4.47824 0.4787,-0.68529 0.92056,-1.40579 1.27078,-2.18043 0.32948,-0.72877 0.5843,-1.51869 0.71652,-2.40328 z m 164.39326,0 c 0.16801,0.87817 0.46072,1.65031 0.82493,2.35066 0.38709,0.74432 0.86565,1.4271 1.38017,2.0702 1.15342,1.44166 2.5118,2.75703 3.80891,4.20496 1.58549,1.76985 2.97311,3.57559 4.20074,5.80656 1.52846,2.77766 2.5884,5.83861 3.28478,9.20966 1.11877,5.64871 0.4009,10.52927 -0.59831,14.07826 -1.74919,6.21277 -5.02627,10.75515 -6.96177,13.04513 -2.84824,3.36986 -6.63925,6.50475 -13.32345,9.13868 -3.54562,1.39715 -9.41893,3.22037 -17.28716,3.73887 7.53291,-2.0779 12.71261,-5.11567 15.59707,-7.01992 4.43532,-2.9281 9.48269,-7.50043 11.30815,-9.2838 1.84829,-1.80568 5.3207,-5.40072 7.47047,-10.70204 1.22746,-3.02689 2.33617,-7.37336 1.6879,-12.65463 -0.37235,-3.23931 -1.11114,-6.22465 -2.32517,-8.98173 -0.97787,-2.22073 -2.1602,-4.07656 -3.58032,-5.93891 -1.16256,-1.52458 -2.4278,-2.94384 -3.49964,-4.47824 -0.4787,-0.68529 -0.92056,-1.40579 -1.27078,-2.18043 -0.32948,-0.72877 -0.5843,-1.51869 -0.71652,-2.40328 z"
     id="path52"
     inkscape:path-effect="#path-effect52;#path-effect57"
     inkscape:original-d="m 167.80337,125.77662 c -1.16875,6.8621 -10.01719,8.78416 -12.44598,23.81231 -2.95715,18.2974 12.87604,35.73247 37.11714,39.83067"
     sodipodi:nodetypes="csc"
     inkscape:label="horn base stroke"
     transform="matrix(0.97434689,0,0,0.97434689,6.4132782,6.4132782)" />
  <path
     style="display:none;fill:#d60000;fill-opacity:1;fill-rule:nonzero;stroke:none;stroke-width:1px;stroke-linecap:butt;stroke-linejoin:miter;stroke-opacity:1"
     d="m 150.08078,160.27791 c 0.0553,3.25278 0.52843,6.07674 1.20725,8.51366 0.79367,2.84924 1.90133,5.28468 3.07854,7.33785 3.18451,5.5541 7.58879,9.47865 10.30252,11.67451 3.3633,2.72147 6.65974,4.77231 8.25025,5.70611 1.90559,1.11879 3.42733,1.86383 5.10839,2.49724 2.61893,0.9868 6.64865,2.0808 13.88289,3.48989 -3.20277,-1.70252 -5.79767,-3.08169 -7.78193,-4.16718 -2.05384,-1.12356 -3.34489,-1.84451 -4.68051,-2.53142 -1.78121,-0.91607 -2.79198,-1.33977 -4.9691,-2.311 -1.62485,-0.72486 -5.00623,-2.23149 -8.50533,-4.48351 -2.82393,-1.81748 -7.38441,-5.15064 -10.85628,-10.33983 -1.27892,-1.91152 -2.51443,-4.22541 -3.44736,-6.99018 -0.79809,-2.36516 -1.40467,-5.14787 -1.58933,-8.39614 z"
     id="path53"
     inkscape:path-effect="#path-effect53"
     inkscape:original-d="m 150.08078,160.27791 c 0.90021,24.39019 25.79821,33.53961 41.82984,39.21926"
     sodipodi:nodetypes="cc"
     transform="matrix(0.97434689,0,0,0.97434689,3.2288769,8.0590645)"
     inkscape:label="outer horn stroke" />
  <path
     style="fill:#d60000;fill-opacity:1;fill-rule:nonzero;stroke:none;stroke-width:1px;stroke-linecap:butt;stroke-linejoin:miter;stroke-opacity:1"
     d="m 153.41684,131.14878 c 0.1902,-0.51945 0.56883,-1.1717 1.27955,-1.97582 0.53161,-0.60147 1.18128,-1.21481 1.96734,-1.89815 1.55092,-1.34824 3.13274,-2.55651 4.5502,-3.97779 1.5592,-1.64497 2.79231,-3.13945 3.76459,-4.50897 0.45375,-0.63913 0.82276,-1.21207 1.1184,-1.70964 0.43735,-0.73606 1.0356,-1.93412 1.50211,-3.34977 0.55603,-1.68728 0.86007,-3.47517 0.75427,-5.28332 -0.13292,-2.27177 -0.8686,-3.93296 -1.45491,-5.10908 0.58606,1.17563 1.09562,2.94667 0.92421,5.10439 -0.13642,1.71733 -0.66857,3.3384 -1.36992,4.83509 -0.59057,1.26027 -1.25379,2.32874 -1.66674,3.02374 -0.28018,0.47155 -0.61818,1.02018 -1.0336,1.64612 -0.89564,1.34953 -2.00091,2.83211 -3.44623,4.5371 -1.1148,1.3918 -2.7002,2.97184 -4.00906,4.41836 -0.71027,0.78497 -1.28594,1.4781 -1.75567,2.14998 -0.63058,0.90198 -0.93206,1.57209 -1.12454,2.09776 z m 193.16632,0 c -0.1902,-0.51945 -0.56883,-1.1717 -1.27955,-1.97582 -0.53161,-0.60147 -1.18128,-1.21481 -1.96734,-1.89815 -1.55092,-1.34824 -3.13274,-2.55651 -4.5502,-3.97779 -1.5592,-1.64497 -2.79231,-3.13945 -3.76459,-4.50897 -0.45375,-0.63913 -0.82276,-1.21207 -1.1184,-1.70964 -0.43735,-0.73606 -1.0356,-1.93412 -1.50211,-3.34977 -0.55603,-1.68728 -0.86007,-3.47517 -0.75427,-5.28332 0.13292,-2.27177 0.8686,-3.93296 1.45491,-5.10908 -0.58606,1.17563 -1.09562,2.94667 -0.92421,5.10439 0.13642,1.71733 0.66857,3.3384 1.36992,4.83509 0.59057,1.26027 1.25379,2.32874 1.66674,3.02374 0.28018,0.47155 0.61818,1.02018 1.0336,1.64612 0.89563,1.34953 2.00091,2.83211 3.44622,4.5371 1.11481,1.3918 2.70021,2.97184 4.00907,4.41836 0.71026,0.78497 1.28594,1.4781 1.75567,2.14998 0.63058,0.90198 0.93206,1.57209 1.12454,2.09776 z"
     id="path54"
     inkscape:path-effect="#path-effect55;#path-effect56"
     inkscape:original-d="m 153.41684,131.14878 c 1.00512,-2.7451 4.71662,-5.33087 7.34318,-8.25893 5.14684,-5.73764 9.51593,-12.77828 6.13837,-19.55361"
     sodipodi:nodetypes="csc"
     inkscape:label="horn tip stroke"
     transform="matrix(0.97434689,0,0,0.97434689,6.4132782,6.4132782)" />
  <text
     xml:space="preserve"
     style="font-style:normal;font-weight:normal;font-size:50.6667px;line-height:1.25;font-family:sans-serif;letter-spacing:8px;fill:#000000;fill-opacity:1;stroke:#d60000;stroke-width:1.8;stroke-dasharray:none;stroke-opacity:1"
     id="text3"
     inkscape:label="bottom text"
     inkscape:transform-center-x="-3.5559275"
     inkscape:transform-center-y="206.78069"
     transform="rotate(114.34874,250.03894,249.92661)"><textPath
       xlink:href="#circle3"
       id="textPath3"
       style="font-style:normal;font-variant:normal;font-weight:bold;font-stretch:normal;font-size:50.6667px;font-family:Ubuntu;-inkscape-font-specification:'Ubuntu Bold';letter-spacing:8px;fill:#ffffff;stroke:#d60000;stroke-width:1.8;stroke-dasharray:none;stroke-opacity:1">GNCTR</textPath></text>
  <text
     xml:space="preserve"
     style="font-style:normal;font-variant:normal;font-weight:normal;font-stretch:normal;font-size:50.6667px;line-height:1.25;font-family:Couture;-inkscape-font-specification:Couture;text-align:center;letter-spacing:0px;text-anchor:middle;fill:#ffffff;fill-opacity:1;stroke:#d60000;stroke-width:1.8;stroke-dasharray:none;stroke-opacity:1"
     id="text2"
     inkscape:transform-center-x="1.0789943"
     inkscape:transform-center-y="-163.46136"
     transform="rotate(90.55282,249.96968,249.97289)"
     inkscape:label="top text"><textPath
       xlink:href="#ellipse2"
       startOffset="50%"
       id="textPath2"
       style="font-style:normal;font-variant:normal;font-weight:bold;font-stretch:normal;font-size:50.6667px;font-family:Ubuntu;-inkscape-font-specification:'Ubuntu Bold';letter-spacing:0px;stroke:#d60000;stroke-width:1.8;stroke-dasharray:none;stroke-opacity:1">U of C</textPath></text>
  <ellipse
     style="font-size:21.3333px;line-height:1.25;font-family:sans-serif;display:none;fill:#00ff00;fill-opacity:1;stroke:#ffffff;stroke-width:0;stroke-dasharray:none"
     id="ellipse1"
     cx="184.62155"
     cy="301.56393"
     inkscape:label="inside text base"
     rx="156.26102"
     ry="156.26105"
     transform="matrix(-0.23299187,0.97247868,0.97247868,0.23299187,0,0)" />
  <text
     xml:space="preserve"
     style="font-size:21.3333px;line-height:1.25;font-family:sans-serif;fill:#ffffff"
     id="text1"
     inkscape:label="inside text"
     inkscape:transform-center-x="-98.804991"
     inkscape:transform-center-y="24.066656"><textPath
       xlink:href="#ellipse1"
       id="textPath1"
       style="font-style:normal;font-variant:normal;font-weight:bold;font-stretch:normal;font-family:Ubuntu;-inkscape-font-specification:'Ubuntu Bold';display:inline">C. 1974</textPath></text>
</svg>
