<?xml version="1.0" encoding="UTF-8"?>
<!-- Created with Inkscape (http://www.inkscape.org/) -->
<!-- Toshi Taperek (flagpole-undrilled@proton.me) and Kaleigh Beer, 2023-->
<svg width="500" height="500" version="1.1" viewBox="0 0 500 500" xmlns="http://www.w3.org/2000/svg">
 <g stroke-width="0">
  <path d="m496.22 250a246.22 246.22 0 0 1-246.22 246.22 246.22 246.22 0 0 1-246.22-246.22 246.22 246.22 0 0 1 246.22-246.22 246.22 246.22 0 0 1 246.22 246.22z" fill="#8f1f1e"/>
  <path d="m442.08 250a192.08 192.08 0 0 1-192.08 192.08 192.08 192.08 0 0 1-192.08-192.08 192.08 192.08 0 0 1 192.08-192.08 192.08 192.08 0 0 1 192.08 192.08z" fill="#fff"/>
  <path transform="scale(1,-1)" d="m440.03-250a190.03 190.03 0 0 1-190.03 190.03 190.03 190.03 0 0 1-190.03-190.03 190.03 190.03 0 0 1 190.03-190.03 190.03 190.03 0 0 1 190.03 190.03z" fill="#d60000"/>
 </g>
 <path d="m190.96 401.94-94.839-95.023c-14.595-13.672 1.6753-45.385 28.623-32.117" fill="none" stroke="#fff" stroke-linecap="round" stroke-width="7.0153"/>
 <g fill="#fff">
  <path d="m127.36 307.75 75.76 75.469" stroke="#fff" stroke-linecap="round" stroke-width="7.0153"/>
  <path d="m122.22 331.32 22.515-4.354m39.637 67.375 4.7487-24.312" stroke="#fff" stroke-width="4.482"/>
  <path d="m193.7 369.9h5.195l6.9797 6.9797v4.8707zm-13.056-13.056h5.195l6.9797 6.9797v4.8707zm-13.056-13.056h5.195l6.9797 6.9797v4.8707zm-13.056-13.056h5.195l6.9797 6.9797v4.8707zm-13.056-13.056h5.195l6.9797 6.9797v4.8707zm-13.056-13.056h5.195l6.9797 6.9797v4.8707z" stroke-width="0"/>
  <path d="m253.43 86.687c-0.0579-0.0014-21.876 28.261-23.371 30.274-0.0549 0.0738-3.9674-1.7403-8.6937-4.0308-4.7262-2.2905-8.7072-4.2036-8.8474-4.2523l-0.25459-0.0894-3.3672 6.0208-3.3673 6.0208-4.5739 4.0834-4.5729 4.0834-3.6106 7.3342c-1.9855 4.0339-3.7844 7.6913-3.9976 8.128-0.21321 0.43666-0.3648 0.7938-0.33705 0.7938 0.0279 0 1.7809-0.8842 3.8958-1.9651 2.1148-1.0809 3.9522-2.0026 4.0831-2.0481 0.15405-0.0536 0.96403 0.62815 2.292 1.9282 1.1295 1.1056 2.1178 2.0325 2.1964 2.0602 0.18107 0.0639 11.346-2.5457 11.57-2.7044 0.0917-0.0648 0.50066-0.99512 0.90827-2.0666l0.74127-1.9475 3.5556-1.127c2.1982-0.69664 3.5838-1.2138 3.63-1.3541 0.13446-0.40817 0.92458-4.2937 0.92458-4.5467 0-0.15013-1.3898-1.1266-3.5455-2.4912-4.211-2.6657-3.4679-1.7839-5.0433-5.9885l-1.3105-3.4964 0.56716-2.1155c0.67138-2.5061 0.31384-2.3169 3.8102-2.0186 1.5558 0.13281 2.9464 0.24183 3.0903 0.24183 0.17437 0 0.92924 1.1992 2.2605 3.5914l1.9988 3.5914 2.9407 2.1063 2.9417 2.1063 1.118 2.0528 1.118 2.0518 3.9813 0.60548 3.9823 0.60459 0.34618 1.1657 0.34517 1.1648 11.124 7.8539 0.52745-0.0702c0.28987-0.0383 4.1947-0.4371 8.6774-0.88609 4.4826-0.44897 8.1785-0.84282 8.2141-0.875 0.0356-0.0322-1.2498-0.93732-2.8562-2.0112-2.1126-1.4124-2.8928-2.0155-2.8205-2.1811 0.055-0.12582 0.36791-0.87398 0.69543-1.6623l0.59568-1.4334-0.8879-6.0522c-0.48862-3.3288-0.90257-6.071-0.91947-6.0937-0.0176-0.0227-0.54196 0.16671-1.1669 0.42089-1.3985 0.56877-1.0539 1.0216-3.1545-4.1434l-1.7768-4.3695-1.1302-5.7624-1.1302-5.7632-1.8237-1.3882c-1.0033-0.76316-1.8247-1.4433-1.8247-1.5119 0-0.45952 2.1728-4.8906 2.3654-4.8236 0.15824 0.05505 5.3254 3.6261 7.0319 4.8596 0.0302 0.02178 1.0629 2.7507 2.2951 6.0642 1.2321 3.3135 2.5801 6.9112 2.9956 7.9951l0.75552 1.9706 6.7315 5.3636c3.7025 2.95 6.7039 5.4068 6.6694 5.4596-0.0344 0.0528-2.2012 1.414-4.8152 3.0247-5.6292 3.4686-5.3613 2.8617-1.896 4.3058l2.8633 1.1935 2.0752 2.218 2.0741 2.2171 1.6098 0.0969c0.88515 0.053 1.7585 0.10992 1.9408 0.12647l0.33091 0.0296 0.53762 1.7961c0.29563 0.98774 0.56544 1.8214 0.59975 1.8525 0.11209 0.10166 9.8574 2.7727 9.9176 2.7182 0.0322-0.0291-1.0609-1.2284-2.4285-2.6647l-2.4865-2.6121-0.10074-1.2931c-0.0553-0.71159-0.0851-1.308-0.0651-1.3246 0.0199-0.0164 2.3638 0.36906 5.2082 0.85657 2.8444 0.4875 5.2836 0.88924 5.42 0.89255 0.13655 4e-3 -0.87081-1.0098-2.2381-2.2512l-2.4855-2.2577 0.3635-2.0149c0.20021-1.1082 0.36552-2.1513 0.36658-2.3177 9.7e-4 -0.19267-0.79417-0.98957-2.1923-2.1958l-2.1953-1.8931 0.95715-1.7362c0.52644-0.95474 0.98303-1.7608 1.0142-1.7916 0.0312-0.0307 0.79238 0.33193 1.6913 0.8058l1.6343 0.86118 2.7889 3.6699 2.79 3.6699 3.294 1.8008c1.8119 0.99013 3.6724 2.0015 4.134 2.2475l0.83902 0.44675-2.7492-2.5946-2.7502-2.5946-4.7052-8.2868c-2.7372-4.8208-4.79-8.2687-4.9068-8.2424-0.11037 0.0247-3.9785 1.5054-8.5949 3.2896-4.6164 1.7842-8.4908 3.2434-8.6102 3.2434-0.11939 0-1.9944-1.616-4.1666-3.5914l-3.9497-3.5914-4.3101-8.847-4.3112-8.8461-1.2565-0.55104-1.2575-0.55012-3.2431-4.0197c-1.784-2.2108-3.2817-4.0204-3.3276-4.0215z" stroke-width="0"/>
  <path d="m333.71 101.24c-1.6493 0.18684-12.469 4.3964-11.783 15.697 0.21922 3.6125 1.1129 6.3663 3.9785 12.008 2.3364 4.5997 6.5752 10.06 8.5332 13.68 3.3562 6.2042 2.4454 13.463 0.17773 17.812-3.4691 6.6537-13.227 15.697-23.975 18.531-2.7145 0.71584-8.5333 1.9787-11.709-0.06446l-5.8027-5.6465c-4.9571-4.8212-14.301-8.6589-27.016-12.012-10.354-2.7303-21.371-2.6683-32.238 0-12.77 3.1354-22.059 7.1905-27.016 12.012-1.9349 1.882-5.8027 5.6465-5.8027 5.6465-3.1756 2.0432-8.9945 0.78031-11.709 0.06446-10.747-2.8342-20.506-11.878-23.975-18.531-2.2677-4.3494-3.1784-11.608 0.17773-17.812 1.958-3.6194 6.1968-9.08 8.5332-13.68 2.8657-5.6416 3.7593-8.3953 3.9785-12.008 0.73148-12.054-11.629-16.04-11.986-15.682 0.38566 3.7049 2.6543 7.2285 0.4707 13.102-3.5728 9.6096-12.525 14.699-17.66 23.391-10.059 17.026-9.2094 36.417 7.3184 53.301 7.3601 7.5189 14.037 8.9153 11.498 9.0117-5.832 0.64508-11.253-3.8844-16.676-7.1797-8.1558-4.9565-14.552-10.448-15.83-7.4258-6.3326 14.979-0.86772 37.713 14.25 48.879 14.09 10.406 14.732-0.1194 33.184-1.3418 2.4019-0.15912 1.3548 3.9705 0.39258 9.4297-0.79207 4.4919-1.0244 11.914-0.78711 16.449 0.404 7.7206 1.2076 13.1 6.4766 23.559 3.095 6.1435 5.0773 9.5111 7.6562 13.811 2.579 4.2994 10.602 13.643 13.352 19.316 12.07 24.902 0.09929 35.265 15.088 40.914 2.8662 1.0803 10.968 0.93766 17.777-0.89258 6.8096-1.8302 8.0068-1.8302 14.816 0 6.8097 1.8302 14.911 1.9729 17.777 0.89258 14.989-5.6493 3.0176-16.012 15.088-40.914 2.7498-5.6733 10.773-15.017 13.352-19.316 2.579-4.2994 4.5612-7.6671 7.6562-13.811 5.269-10.459 6.0726-15.838 6.4766-23.559 0.23731-4.5352 0.00484-11.957-0.78711-16.449-0.96221-5.4592-1.4874-7.9263 0.39258-9.4297 18.452 1.2224 19.094 11.748 33.184 1.3418 15.118-11.166 20.583-33.9 14.25-48.879-1.2778-3.0223-7.6743 2.4693-15.83 7.4258-5.4226 3.2953-10.844 7.8248-16.676 7.1797-2.5394-0.0965 4.1379-1.4928 11.498-9.0117 16.528-16.884 17.378-36.274 7.3184-53.301-5.135-8.6915-14.087-13.781-17.66-23.391-2.1836-5.8731 0.08505-9.3966 0.4707-13.102-0.0223-0.0224-0.09321-0.02813-0.20313-0.01563zm-164.69 5.8535c0.57126 1.1459 1.2884 2.765 1.418 4.9785 0.10308 1.7618-0.19262 3.5044-0.73438 5.1484-0.45455 1.3793-1.0368 2.5465-1.4629 3.2637-0.28806 0.4848-0.64774 1.0433-1.0898 1.666-0.94734 1.3344-2.1488 2.7898-3.668 4.3926-1.3811 1.3848-2.9225 2.5633-4.4336 3.877-0.76589 0.66581-1.4 1.2636-1.918 1.8496-0.69248 0.78349-1.0608 1.4177-1.2461 1.9238 0.18754-0.51219 0.4813-1.1641 1.0957-2.043 0.45768-0.65465 1.0189-1.3309 1.7109-2.0957 1.2753-1.4094 2.82-2.9486 3.9062-4.3047 1.4082-1.6613 2.4848-3.105 3.3574-4.4199 0.40476-0.60987 0.73482-1.146 1.0078-1.6055 0.40235-0.67717 1.0476-1.7174 1.623-2.9453 0.68336-1.4583 1.203-3.0377 1.3359-4.7109 0.16701-2.1024-0.33132-3.8291-0.90234-4.9746zm161.94 0c-0.57102 1.1455-1.0694 2.8722-0.90234 4.9746 0.13292 1.6733 0.65258 3.2526 1.3359 4.7109 0.57542 1.228 1.2207 2.2682 1.623 2.9453 0.273 0.45945 0.60306 0.99559 1.0078 1.6055 0.87266 1.3149 1.9492 2.7587 3.3574 4.4199 1.0862 1.3561 2.631 2.8953 3.9062 4.3047 0.69204 0.76484 1.2533 1.4411 1.7109 2.0957 0.6144 0.87883 0.90816 1.5308 1.0957 2.043-0.18532-0.50612-0.55361-1.1403-1.2461-1.9238-0.51798-0.58605-1.1521-1.1838-1.918-1.8496-1.5111-1.3137-3.0525-2.4921-4.4336-3.877-1.5192-1.6028-2.7206-3.0582-3.668-4.3926-0.4421-0.62274-0.80178-1.1812-1.0898-1.666-0.42613-0.71718-1.0083-1.8843-1.4629-3.2637-0.54176-1.644-0.83746-3.3867-0.73438-5.1484 0.12952-2.2135 0.84671-3.8326 1.418-4.9785zm-161.06 21.865c-0.12883 0.8619-0.37819 1.6317-0.69922 2.3418-0.34123 0.75477-0.7699 1.4573-1.2363 2.125-1.0443 1.495-2.2774 2.8778-3.4102 4.3633-1.3837 1.8146-2.5355 3.6234-3.4883 5.7871-1.1829 2.6864-1.9028 5.5938-2.2656 8.75-0.63164 5.1458 0.44856 9.3808 1.6445 12.33 2.0946 5.1653 5.4765 8.6684 7.2774 10.428 1.7786 1.7376 6.698 6.1939 11.02 9.0469 2.8104 1.8554 7.8576 4.8152 15.197 6.8398-7.6664-0.5052-13.389-2.2832-16.844-3.6445-6.5127-2.5664-10.207-5.6209-12.982-8.9043-1.8858-2.2312-5.0789-6.6556-6.7832-12.709-0.97358-3.4579-1.6741-8.215-0.58399-13.719 0.67851-3.2846 1.7119-6.2663 3.2012-8.9727 1.1961-2.1737 2.549-3.9338 4.0938-5.6582 1.2638-1.4108 2.5871-2.691 3.7109-4.0957 0.50132-0.62659 0.9666-1.2923 1.3438-2.0176 0.35487-0.68238 0.64099-1.4354 0.80469-2.291zm160.18 0c0.1637 0.85564 0.44982 1.6086 0.80469 2.291 0.37715 0.72523 0.84243 1.391 1.3438 2.0176 1.1238 1.4047 2.4471 2.6849 3.7109 4.0957 1.5448 1.7244 2.8976 3.4845 4.0938 5.6582 1.4892 2.7064 2.5227 5.6881 3.2012 8.9727 1.0901 5.5038 0.38959 10.261-0.58399 13.719-1.7043 6.0534-4.8974 10.478-6.7832 12.709-2.7752 3.2834-6.4697 6.338-12.982 8.9043-3.4547 1.3613-9.1774 3.1393-16.844 3.6445 7.3396-2.0246 12.387-4.9844 15.197-6.8398 4.3215-2.853 9.2409-7.3093 11.02-9.0469 1.8009-1.7594 5.1827-5.2624 7.2774-10.428 1.196-2.9492 2.2762-7.1843 1.6445-12.33-0.36279-3.1562-1.0827-6.0636-2.2656-8.75-0.95278-2.1638-2.1046-3.9725-3.4883-5.7871-1.1327-1.4855-2.3658-2.8682-3.4102-4.3633-0.46643-0.66772-0.8951-1.3702-1.2363-2.125-0.32103-0.71008-0.57039-1.4799-0.69922-2.3418zm-189.69 65.252c1.458-0.01087 6.2666 4.8806 11.062 7.3106 4.123 2.089 6.672 3.0394 11.514 4.9844 4.0297 1.6187 13.309 10.898 13.928 12.947 0.78269 2.5932-4.3704 5.2604-7.3144 6.4102-2.7212 1.0627-3.9949 1.878-6.5684 3.3281-4.5683 2.5742-6.572 1.319-10.596-1.0801-6.0919-4.7978-17.109-16.684-12.436-33.574 0.06173-0.22314 0.20187-0.32462 0.41015-0.32618zm219.2 0c0.20828 0.00156 0.34842 0.10304 0.41015 0.32618 4.673 16.89-6.3436 28.776-12.436 33.574-4.0238 2.3991-6.0274 3.6543-10.596 1.0801-2.5734-1.4502-3.8472-2.2654-6.5684-3.3281-2.944-1.1498-8.0971-3.817-7.3144-6.4102 0.61851-2.0493 9.898-11.329 13.928-12.947 4.8417-1.9449 7.3906-2.8953 11.514-4.9844 4.7959-2.43 9.6045-7.3214 11.062-7.3106zm-162.59 33.9 19.104 13.764c-8.2356 10.806 5.2477 21.745 14.193 10.227l8.5625 6.168c-17.14 14.729-50.517-14.052-41.859-30.158zm105.99 0c8.6577 16.107-24.719 44.887-41.859 30.158l8.5625-6.168c8.9457 11.518 22.429 0.57974 14.193-10.227l19.104-13.764zm-83.836 15.963 8.3945 6.0488c-0.0114 0.01968-0.01956 0.03892-0.03125 0.0586-0.08404 0.14196-0.17346 0.28736-0.26953 0.42968-0.09611 0.14233-0.19812 0.28339-0.30664 0.42579-0.08382 0.10791-0.16885 0.21305-0.25391 0.31445-0.08509 0.10141-0.16963 0.19992-0.25586 0.29492-0.08624 0.09498-0.17442 0.18477-0.26172 0.27344-0.08726 0.08866-0.17354 0.17343-0.26172 0.25586-0.08818 0.08245-0.17862 0.16384-0.26758 0.24023-0.08895 0.07635-0.17793 0.1484-0.26757 0.21875-0.08963 0.07034-0.17945 0.13872-0.26953 0.20313-0.09018 0.06442-0.18088 0.12494-0.27149 0.18359-0.0906 0.05863-0.18058 0.11506-0.27148 0.16797-0.09091 0.05291-0.18429 0.10304-0.27539 0.15039-0.0911 0.04732-0.18029 0.09287-0.27149 0.13477-0.09117 0.04183-0.18233 0.07879-0.27344 0.11523-0.09111 0.03651-0.18253 0.07234-0.27343 0.10352-0.09094 0.03117-0.18283 0.05992-0.27344 0.08593-0.09064 0.02602-0.17931 0.04937-0.26953 0.07032-0.09024 0.02085-0.18175 0.0387-0.27149 0.05468-0.17938 0.03196-0.35666 0.05374-0.5332 0.06641-0.17653 0.01267-0.35072 0.01557-0.52344 0.00977-0.17272-0.00585-0.34377-0.01949-0.51172-0.04297-0.16793-0.02339-0.33388-0.05742-0.49609-0.09766-0.1622-0.04023-0.32106-0.08831-0.47656-0.14453-0.15551-0.05619-0.30723-0.11813-0.45508-0.18945-0.14785-0.07135-0.29045-0.15069-0.42969-0.23633-0.13922-0.08565-0.27465-0.17821-0.4043-0.27735-0.1296-0.09914-0.25394-0.20461-0.37304-0.3164-0.11911-0.1118-0.23224-0.22988-0.33985-0.35352-0.10759-0.12363-0.20959-0.25403-0.30468-0.38867-0.09514-0.13464-0.18583-0.27314-0.26758-0.41797-0.08171-0.14482-0.15533-0.29505-0.22266-0.44922-0.06732-0.15418-0.12765-0.31385-0.17969-0.47656-0.05196-0.1627-0.09519-0.32764-0.13085-0.49805-0.03567-0.1704-0.06362-0.34616-0.08204-0.52343-0.0188-0.17729-0.02716-0.3577-0.02734-0.54102 0-0.09167 9.9e-4 -0.18234 0.00586-0.27539 0.00468-0.09302 0.01174-0.18693 0.02148-0.28125 0.00946-0.09427 0.02064-0.19172 0.03516-0.28711 0.01442-0.09542 0.03319-0.19065 0.05273-0.28711 0.01959-0.09647 0.04157-0.19362 0.06641-0.29101 0.02485-0.09741 0.05193-0.19472 0.08203-0.29297 0.03017-0.09826 0.0621-0.19593 0.09766-0.29493 0.0356-0.09899 0.07597-0.19921 0.11719-0.29882 0.04118-0.09963 0.08399-0.20066 0.13086-0.30078 0.04686-0.10016 0.09767-0.2002 0.15039-0.30079 0.05269-0.10058 0.10736-0.20183 0.16601-0.30273 0.05863-0.1009 0.1189-0.20162 0.1836-0.30274 0.06468-0.10108 0.13229-0.19953 0.20312-0.30078 0.07087-0.10124 0.14549-0.20343 0.22266-0.30468 0.09954-0.12816 0.19948-0.25212 0.30078-0.3711 0.10131-0.11897 0.20376-0.23378 0.30664-0.34375 0.03823-0.04082 0.0788-0.07753 0.11719-0.11719zm61.68 0c0.03839 0.03966 0.07896 0.07637 0.11719 0.11719 0.10288 0.10997 0.20533 0.22478 0.30664 0.34375 0.1013 0.11898 0.20124 0.24294 0.30078 0.3711 0.07717 0.10125 0.15179 0.20344 0.22266 0.30468 0.07083 0.10125 0.13844 0.1997 0.20312 0.30078 0.0647 0.10112 0.12497 0.20184 0.1836 0.30274 0.05865 0.1009 0.11332 0.20215 0.16601 0.30273 0.05272 0.10059 0.10353 0.20063 0.15039 0.30079 0.04687 0.10012 0.08968 0.20115 0.13086 0.30078 0.04122 0.09961 0.08159 0.19983 0.11719 0.29882 0.03556 0.099 0.06749 0.19667 0.09766 0.29493 0.0301 0.09825 0.05718 0.19556 0.08203 0.29297 0.02484 0.09739 0.04682 0.19454 0.06641 0.29101 0.01954 0.09646 0.03831 0.19169 0.05273 0.28711 0.01452 0.09539 0.0257 0.19284 0.03516 0.28711 0.00974 0.09432 0.0168 0.18823 0.02148 0.28125 0.00487 0.09305 0.00586 0.18372 0.00586 0.27539-1.8e-4 0.18332-0.00854 0.36373-0.02734 0.54102-0.01842 0.17727-0.04637 0.35303-0.08204 0.52343-0.03566 0.17041-0.07889 0.33535-0.13085 0.49805-0.05204 0.16271-0.11237 0.32238-0.17969 0.47656-0.06733 0.15417-0.14095 0.3044-0.22266 0.44922-0.08175 0.14483-0.17244 0.28333-0.26758 0.41797-0.09509 0.13464-0.19709 0.26504-0.30468 0.38867-0.10761 0.12364-0.22074 0.24172-0.33985 0.35352-0.1191 0.11179-0.24344 0.21726-0.37304 0.3164-0.12965 0.09914-0.26508 0.1917-0.4043 0.27735-0.13924 0.08564-0.28184 0.16498-0.42969 0.23633-0.14785 0.07132-0.29957 0.13326-0.45508 0.18945-0.1555 0.05622-0.31436 0.1043-0.47656 0.14453-0.16221 0.04024-0.32816 0.07427-0.49609 0.09766-0.16795 0.02348-0.339 0.03712-0.51172 0.04297-0.17272 0.0058-0.34691 0.0029-0.52344-0.00977-0.17654-0.01267-0.35382-0.03445-0.5332-0.06641-0.08974-0.01598-0.18125-0.03383-0.27149-0.05468-0.09022-0.02095-0.17889-0.0443-0.26953-0.07032-0.09061-0.02601-0.1825-0.05476-0.27344-0.08593-0.0909-0.03118-0.18232-0.06701-0.27343-0.10352-0.09111-0.03644-0.18227-0.0734-0.27344-0.11523-0.0912-0.0419-0.18039-0.08745-0.27149-0.13477-0.0911-0.04735-0.18448-0.09748-0.27539-0.15039-0.0909-0.05291-0.18088-0.10934-0.27148-0.16797-0.09061-0.05865-0.18131-0.11917-0.27149-0.18359-0.09008-0.06441-0.1799-0.13279-0.26953-0.20313-0.08964-0.07035-0.17862-0.1424-0.26757-0.21875-0.08896-0.07639-0.1794-0.15778-0.26758-0.24023-0.08818-0.08243-0.17446-0.1672-0.26172-0.25586-0.0873-0.08867-0.17548-0.17846-0.26172-0.27344-0.08623-0.095-0.17077-0.19351-0.25586-0.29492-0.08506-0.1014-0.17009-0.20654-0.25391-0.31445-0.10852-0.1424-0.21053-0.28346-0.30664-0.42579-0.09607-0.14232-0.18549-0.28772-0.26953-0.42968-0.01169-0.01968-0.01985-0.03892-0.03125-0.0586l8.3945-6.0488zm-11.436 62.926c2.9007-0.08033 5.7861 1.3144 7.2715 3.8535 1.6134 2.5085 1.2222 5.6057 1.1328 8.4316-0.4916 5.0999-0.49707 10.394 1.2617 15.273 1.148 2.6604 1.9164 5.5435 1.7383 8.4629 0.01001 2.7959-0.98384 5.559-2.7578 7.7188-1.6071 2.1585-4.1291 3.4769-6.7617 3.875-2.6214 0.59023-5.3372-0.12789-7.6406-1.4082-2.3731-1.4987-5.172-2.0924-7.9238-2.4238-5.0325-0.56128-10.203-0.61334-15.15 0.58789-1.5794 0.27446-2.9601 1.0974-4.3066 1.9219-2.5376 1.5798-5.7172 1.9139-8.5762 1.1211-2.6212-0.59843-4.9265-2.2697-6.3711-4.5293-1.342-1.9287-2.0625-4.2406-2.1152-6.5859-0.13456-2.487 0.2162-5.0007 1.1855-7.3047 1.6563-3.9422 2.2155-8.2599 2.0664-12.512-0.09623-2.704-0.4233-5.3981-0.36523-8.1074 0.01641-2.8247 1.351-5.7272 3.8672-7.1562 2.7707-1.7355 6.301-1.4163 9.2285-0.26758 2.1693 0.90047 4.422 1.567 6.6016 2.4394 3.4059 1.4742 7.1983 2.1672 10.889 1.5762 2.844-0.32929 5.4282-1.6159 8.1094-2.5234 2.8383-0.9108 5.5628-2.4424 8.6172-2.4434zm-38.604 3.9043c-2.8824-0.12232-5.0106 1.5726-4.8125 5.2539 0.06834 1.2706 0.01779 2.5269 0.14453 3.793 1.1491 11.479-2.0541 16.903-2.5215 18.555-0.62738 2.2163-0.63611 3.7451-0.37891 6.0234 0.24572 2.1766 2.3069 4.8962 3.8496 5.5488 3.9836 1.6853 6.1053 0.64623 8.4024-0.86328 5.8647-3.7562 23.021-3.4698 29.031 0 2.4388 1.408 4.4187 2.5486 8.4024 0.86328 1.5427-0.65265 3.6039-3.3722 3.8496-5.5488 0.2572-2.2783 0.24847-3.8071-0.37891-6.0234-0.46741-1.6512-3.6706-7.0757-2.5215-18.555 0.1267-1.2661 0.07623-2.5224 0.14453-3.793 0.26407-4.9084-3.6083-6.2851-7.8887-4.5312-2.6971 1.1051-5.2936 1.8412-7.6777 2.8594-1.1465 0.48965-4.7808 1.5856-8.4355 1.5977-3.6548 0.01204-7.2627-1.0809-8.4551-1.5977-2.3329-1.0111-4.9807-1.7543-7.6777-2.8594-1.0701-0.43845-2.1154-0.68188-3.0762-0.72266zm4.2383 6.459c2.1294-0.05893 4.3366 0.75697 5.6133 2.1387 2.1472 2.3238 2.8664 5.9488 2.7969 9.7812-0.19369 10.692-7.5881 11.118-11.279 11.398-2.6627 0.20227-2.8289-2.113-1.4902-2.5938 8.0646-3.8039 9.9512-8.8426 7.7695-13.1-0.75185-1.4671-2.2305-2.9464-3.5898-2.584-1.1361 0.30288-2.0944 2.2842-1.7539 3.7637 0.25954 1.1275 0.95315 1.6546 0.92187 2.6992-0.0661 2.2071-1.9558 2.453-2.8066 1.6289-0.44536-0.43136-2.5045-1.9675-2.5898-5.7695-0.07944-3.5387 1.9812-5.8832 3.6465-6.7109 0.84084-0.41792 1.7938-0.62556 2.7617-0.65234zm29.922 0c0.9679 0.02678 1.9209 0.23442 2.7617 0.65234 1.6653 0.82772 3.7259 3.1722 3.6465 6.7109-0.08535 3.8021-2.1445 5.3382-2.5898 5.7695-0.85082 0.82409-2.7405 0.57818-2.8066-1.6289-0.03128-1.0446 0.66233-1.5717 0.92187-2.6992 0.34053-1.4794-0.61777-3.4608-1.7539-3.7637-1.3593-0.36238-2.838 1.1169-3.5898 2.584-2.1817 4.257-0.29505 9.2957 7.7695 13.1 1.3386 0.48079 1.1725 2.796-1.4902 2.5938-3.6912-0.2804-11.086-0.70667-11.279-11.398-0.06947-3.8324 0.64967-7.4575 2.7969-9.7812 1.2767-1.3817 3.4839-2.1976 5.6133-2.1387z" stroke-width=".97435"/>
  <path transform="rotate(114.35 250.04 249.93)" d="m457.27 232.93q0.36328 5.5107 3.6106 7.7847 3.1934 2.2268 8.5019 1.8768 2.5784-0.16998 4.6618-0.91664 2.0328-0.74333 3.4696-2.0567t2.1762-3.1901q0.68893-1.8734 0.52896-4.3001-0.0867-1.3145-0.19721-2.2212-0.11388-0.95725-0.31221-1.655l-12.184 0.80322-0.51992-7.8869 17.341-1.1432q0.64944 1.3789 1.4628 4.4735 0.86388 3.0912 1.1672 7.6919 0.25996 3.9434-0.7401 7.2591-1.0034 3.2651-3.179 5.6935-2.1756 2.4284-5.4796 3.9156-3.3073 1.4367-7.6552 1.7233-4.3984 0.28996-7.8758-0.85178-3.4773-1.1417-5.9596-3.3646-2.5328-2.2195-3.9562-5.3246-1.4267-3.1557-1.6666-6.7958-0.16331-2.4773 0.0606-4.4723 0.17003-2.0423 0.53172-3.4879 0.30781-1.4928 0.70283-2.4328 0.39169-0.99058 0.61781-1.4117l6.4696 1.8585q-0.75282 1.6745-1.2195 3.8379-0.5206 2.1162-0.35729 4.5934zm19.878-51q-4.9759 4.808-9.6639 10.117t-8.6107 10.941l22.256-5.8123 1.9716 7.5495-33.973 8.8722-1.6259-6.2259q1.1953-2.0402 3.0362-4.6156 1.841-2.5754 4.0123-5.2895 2.1095-2.7503 4.4769-5.5156 2.3184-2.7525 4.5047-5.2086l-20.05 5.2362-1.9844-7.5985 33.973-8.8721zm-13.59-36.323q3.6592 7.7414 1.2803 13.854-2.4005 6.0663-10.325 9.8121-3.9394 1.8621-7.5931 2.0759-3.6995 0.23552-6.8243-0.92145-3.1706-1.1353-5.6773-3.5932-2.5067-2.4578-4.1523-5.9392-0.95267-2.0155-1.4115-3.8162-0.50462-1.779-0.67695-3.2106-0.21814-1.41-0.1956-2.4294 0.0225-1.0194 0.0784-1.4941l6.746-0.6668q-0.0859 1.8339 0.29547 4.0635 0.35969 2.1837 1.5289 4.6573 0.77946 1.6491 2.087 2.9925 1.2858 1.2976 3.1072 1.9498 1.7539 0.62804 4.0243 0.45159 2.2703-0.17646 5.0188-1.4756 2.1988-1.0393 3.9062-2.4067 1.6399-1.3916 2.5162-3.0947 0.85458-1.7489 0.85634-3.8793-0.044-2.1088-1.2132-4.5824-0.73616-1.5574-1.504-2.7076-0.76783-1.1502-1.4516-2.0039-0.72954-0.83204-1.3966-1.4134-0.66708-0.58135-1.2234-1.0469l4.7949-4.6762q1.6307 1.0786 3.6627 3.4806 2.032 2.402 3.7425 6.0208zm-56.745-23.557 5.5138-3.8739 6.0876 8.6646 23.216-16.311 4.5439 6.4673-23.216 16.311 6.0876 8.6646-5.5138 3.8739zm-12.237-12.374q-5.5765-5.6015-6.5326-10.584-0.99209-4.9463 3.209-9.1287 2.6212-2.6095 5.4883-3.033 2.7954-0.42367 5.981 0.90904 0.1829-1.6835 0.58156-3.7247 0.36276-2.0055 0.90488-4.1181 0.47048-2.1127 1.1561-4.2966 0.64969-2.1482 1.3707-4.1528l6.2556 6.2837q-0.54165 1.8976-1.0835 3.8669-0.57755 1.9334-1.0118 3.867-0.46999 1.8978-0.79635 3.6526-0.36228 1.7905-0.50911 3.3666l2.7525 2.7648 9.0844-9.0439 5.5765 5.6015-24.524 24.415q-2.1821-1.4738-4.2561-3.2698-2.1097-1.8319-3.6468-3.3759zm4.4539-5.0774q0.60769 0.61041 1.144 1.0774 0.50061 0.43104 0.96548 0.82618l6.7505-6.7204-1.5728-1.5799q-3.1457-3.1598-5.294-3.7378-2.1483-0.57803-4.0514 1.3165-1.8312 1.8231-1.1912 3.9741 0.56842 2.1509 3.2494 4.8439z" stroke="#d60000" stroke-width="1.8" aria-label="GNCTR"/>
  <path transform="rotate(90.553 249.97 249.97)" d="m58.062 306.12q1.0357 3.5507 0.81481 6.4124-0.26951 2.8758-1.524 5.089-1.3173 2.1787-3.5081 3.7149-2.2536 1.5018-5.2207 2.3672l-20.964 6.1148-2.2132-7.5878 20.331-5.9303q2.0429-0.59587 3.3744-1.4592 1.2687-0.89783 1.9658-1.9456 0.63433-1.0822 0.69714-2.3145 0.04862-1.2808-0.34862-2.6428-0.80868-2.7725-3.0076-3.9783-2.2131-1.2545-6.2989-0.0627l-20.331 5.9303-2.2132-7.5878 20.964-6.1148q2.967-0.86543 5.6888-0.76211 2.7218 0.10332 5.018 1.2808 2.2476 1.1916 3.9865 3.5344 1.7389 2.3428 2.7888 5.9422zm-22.519-56.926q3.1362-0.18002 5.8188 0.5795 2.632 0.76243 4.6023 2.3748 1.9197 1.6153 3.0708 3.9852 1.1481 2.3194 1.3194 5.3038 0.1684 2.9338-0.7039 5.4199-0.8752 2.4355-2.5975 4.2598-1.7729 1.8273-4.2975 2.9364-2.5752 1.1121-5.7113 1.2921-3.1362 0.18001-5.7711-0.63299-2.6378-0.86359-4.5575-2.4789-1.9226-1.6659-3.0708-3.9852-1.151-2.3699-1.3136-5.2026-0.1655-2.8833 0.7097-5.3188 0.8723-2.4861 2.5946-4.3104 1.7223-1.8244 4.2469-2.9335 2.5246-1.1092 5.6608-1.2892zm0.44133 7.6887q-3.4903 0.20034-5.3817 1.7299-1.9449 1.4819-1.7969 4.0616 0.14808 2.5798 2.2527 3.88 2.0541 1.3031 5.5443 1.1028 3.4903-0.20034 5.4829-1.7357 1.942-1.5325 1.794-4.1122-0.14808-2.5798-2.2498-3.8294-2.1552-1.2973-5.6455-1.097zm-25.033-28.675q0.15428-2.1224 0.73764-3.858 0.53283-1.7393 1.0069-2.67l5.9069 1.9026q-0.52826 0.97761-0.81856 2.1757-0.33715 1.1439-0.41062 2.1546-0.09918 1.3644 0.2353 2.3539 0.28762 0.93532 0.90414 1.5389 0.6202 0.55308 1.5114 0.87187 0.89491 0.26825 1.9561 0.34538l1.3139 0.0955 0.67587-9.2981 6.2661 0.45548-0.67587 9.2981 20.314 1.4766-0.54731 7.5295-27.995-2.035q-5.1544-0.37467-7.977-3.4755-2.819-3.1513-2.4039-8.8616zm47.193-34.72q-2.2693 8.2565-8.0568 11.342-5.774 3.037-14.226 0.71397-4.2015-1.1548-7.1122-3.3736-2.9596-2.2322-4.5758-5.146-1.6651-2.9273-1.9648-6.4251-0.2997-3.4978 0.72082-7.2108 0.59083-2.1496 1.4162-3.8144 0.77654-1.6782 1.5788-2.8764 0.75339-1.2117 1.4348-1.9702 0.6814-0.75854 1.0331-1.0822l5.5515 3.8904q-1.2602 1.3351-2.4239 3.2747-1.1502 1.8908-1.8753 4.5289-0.48341 1.7588-0.36713 3.6298 0.12971 1.8222 1.0862 3.5038 0.9211 1.6194 2.7582 2.965 1.8371 1.3456 4.7684 2.1513 2.345 0.64454 4.5312 0.71997 2.1508 0.0131 3.9253-0.70768 1.7879-0.76968 3.1776-2.3845 1.3408-1.6282 2.0659-4.2664 0.45655-1.6611 0.62369-3.0339 0.16714-1.3728 0.20485-2.4659-0.01114-1.1065-0.13828-1.9822-0.12714-0.87568-0.2457-1.5914l6.6843-0.42227q0.53398 1.8808 0.50998 5.0269-0.024 3.1461-1.0848 7.0057z" stroke="#d60000" stroke-width="1.8" aria-label="U of C"/>
  <path d="m222.05 403.81q-3.5409-0.67859-5.0282-3.0054-1.4663-2.3228-0.77169-5.9475 0.34532-1.8019 1.1801-3.0972 0.83874-1.3163 2.0082-2.0914 1.1735-0.79602 2.6317-1.0379t3.0506 0.0633q0.92189 0.17668 1.648 0.46789 0.73018 0.27027 1.2598 0.56725 0.53358 0.27603 0.87458 0.53688 0.341 0.26084 0.48854 0.39772l-1.4488 2.4593q-0.6022-0.48468-1.455-0.90876-0.8318-0.42007-1.9632-0.6369-0.75427-0.14455-1.5358-0.0337-0.76055 0.1149-1.4347 0.57219-0.64915 0.44035-1.153 1.2561-0.50387 0.81574-0.74479 2.0729-0.19274 1.0057-0.15186 1.9258 0.0658 0.90321 0.42728 1.6241 0.38238 0.72493 1.1063 1.2546 0.72792 0.50876 1.8593 0.72559 0.71237 0.13652 1.2941 0.16113 0.58177 0.0246 1.0418 4e-3 0.46408-0.0414 0.82742-0.12381 0.36334-0.0824 0.65981-0.15593l0.39902 2.7917q-0.77173 0.28653-2.0931 0.38084-1.3214 0.0943-2.9766-0.2229zm10.628-0.41798q-0.12135 0.9523-0.79978 1.382-0.65457 0.41122-1.4164 0.31413-0.76184-0.0971-1.3135-0.66202-0.52782-0.5834-0.40646-1.5357 0.12136-0.95229 0.77592-1.3635 0.67843-0.42969 1.4403-0.3326 0.76183 0.0971 1.2896 0.68048 0.55168 0.56494 0.43032 1.5172zm7.4582-9.3194q0.62805-0.23204 1.3012-0.52641 0.69527-0.31486 1.3496-0.67399 0.6551-0.38045 1.2471-0.78468 0.6141-0.42472 1.1019-0.897l2.217 0.0852-0.56786 14.773-3.1763-0.1221 0.40888-10.637q-0.65591 0.40177-1.4586 0.73385-0.80186 0.31077-1.5578 0.5379zm16.023 3.9403q0.49029-0.0192 1.0199-0.12532 0.52875-0.12745 0.77788-0.308l-8e-3 -0.19185q-3e-3 -0.0853-7e-3 -0.17054 0.018-0.0861 0.0155-0.15005-0.0514-0.76658-0.18382-1.4232-0.13328-0.67797-0.40828-1.1582-0.27583-0.50159-0.73434-0.76119-0.43802-0.28174-1.0775-0.25671-0.51161 0.02-0.88697 0.24822-0.37536 0.22819-0.59649 0.57844-0.22114 0.35025-0.33318 0.76028-0.0907 0.4092-0.0757 0.7929 0.0451 1.1511 0.621 1.6837 0.59725 0.53171 1.8763 0.48164zm1.6371 2.0068q-0.43931 0.23069-0.98938 0.35898-0.52959 0.10613-0.91329 0.12115-1.3856 0.0542-2.3787-0.22713-0.99394-0.30268-1.6568-0.87452-0.6424-0.59399-0.97421-1.435-0.33182-0.84099-0.37188-1.8642-0.0334-0.85268 0.20869-1.7588 0.26339-0.907 0.85321-1.656 0.58899-0.7703 1.5086-1.276 0.94007-0.52784 2.283-0.58042 2.7499-0.10765 4.2023 1.5435 1.4728 1.629 1.5972 4.8052 0.0818 2.0891-0.40987 3.7095-0.47034 1.6196-1.5789 2.7519-1.0872 1.1314-2.834 1.7762-1.7476 0.62351-4.1769 0.73996-0.048-0.68131-0.11569-1.3192-0.0677-0.63784-0.13701-1.3183 1.2142-0.0689 2.189-0.25649 0.97391-0.20893 1.7058-0.60052 0.73107-0.41292 1.2185-1.0511 0.50872-0.63905 0.77044-1.5887zm7.6358 5.3371q-0.0542-1.5616 0.15223-3.2827 0.20639-1.7211 0.58973-3.3984 0.40453-1.6798 0.95855-3.1839 0.55153-1.5252 1.1714-2.6504l-6.3777 0.7475-0.31539-2.6909 10.276-1.2044 0.2682 2.2883q-0.5911 0.82106-1.2635 2.2316-0.65118 1.408-1.1966 3.1688-0.5267 1.7371-0.85409 3.7086-0.3062 1.969-0.20982 3.8909zm13.606-13.069q-0.60637 1.2281-1.2804 2.6652-0.67397 1.4371-1.0425 2.8794l3.2864-0.64643zm2.3067-4.4108 1.7128 8.7078 1.549-0.30468 0.50232 2.5537-1.549 0.30469 0.6382 3.2445-3.0561 0.60114-0.6382-3.2445-6.2587 1.2311-0.4488-2.2816q0.27935-1.0116 0.74365-2.2987 0.46019-1.3081 1.0587-2.6868 0.6153-1.4038 1.3267-2.7613 0.71138-1.3575 1.468-2.4847z" aria-label="C. 1974"/>
 </g>
 <path d="m309.04 401.94 94.839-95.023c14.595-13.672-1.6753-45.385-28.623-32.117" fill="none" stroke="#fff" stroke-linecap="round" stroke-width="7.0153"/>
 <g fill="#fff">
  <path d="m372.64 307.75-75.76 75.469" stroke="#fff" stroke-linecap="round" stroke-width="7.0153"/>
  <path d="m377.78 331.32-22.515-4.354m-39.637 67.375-4.7487-24.312" stroke="#fff" stroke-width="4.482"/>
  <path d="m306.3 369.9h-5.195l-6.9797 6.9797v4.8707zm13.056-13.056h-5.195l-6.9797 6.9797v4.8707zm13.056-13.056h-5.195l-6.9797 6.9797v4.8707zm13.056-13.056h-5.195l-6.9797 6.9797v4.8707zm13.056-13.056h-5.195l-6.9797 6.9797v4.8707zm13.056-13.056h-5.195l-6.9797 6.9797v4.8707z" stroke-width="0"/>
 </g>
</svg>
