<?xml version="1.0" encoding="UTF-8" standalone="no"?>
<!-- Created with Inkscape (http://www.inkscape.org/) -->
<!-- Original design by Fattah -->
<!-- Vectorized by Toshi Taperek (flagpole-undrilled@proton.me), 2023-->

<svg
   version="1.1"
   id="svg1"
   width="500"
   height="500"
   viewBox="0 0 500 500"
   xmlns="http://www.w3.org/2000/svg"
   xmlns:svg="http://www.w3.org/2000/svg">
  <defs
     id="defs1" />
  <circle
     style="display:inline;fill:#8f1f1e;fill-opacity:1;stroke:#ffffff;stroke-width:0"
     id="path1"
     cx="250"
     cy="250"
     r="245.0755" />
  <ellipse
     style="display:inline;fill:#ffffff;fill-opacity:1;stroke:#ffffff;stroke-width:0;stroke-dasharray:none"
     id="path17"
     cx="250"
     cy="250"
     rx="197.13599"
     ry="197.136" />
  <circle
     style="display:inline;fill:#d60000;fill-opacity:1;stroke:#ffffff;stroke-width:0;stroke-dasharray:none"
     id="circle1"
     cx="250"
     cy="250"
     r="195.036" />
  <g
     id="g13"
     transform="translate(-3.1999721,-3.1836948e-4)"
     style="display:inline">
    <path
       style="fill:none;stroke:#ffffff;stroke-width:4.6;stroke-linecap:round;stroke-linejoin:miter;stroke-dasharray:none;stroke-opacity:1"
       d="M 192.61,419.94 95.274,322.415 c -14.978809,-14.0323 1.71945,-46.58028 29.37705,-32.96246 M 313.78994,419.94 l 97.336,-97.525 c 14.97881,-14.0323 -1.71945,-46.58028 -29.37705,-32.96246"
       id="path10" />
    <path
       style="fill:#ffffff;stroke:#ffffff;stroke-width:7.2;stroke-linecap:round;stroke-linejoin:miter;stroke-dasharray:none;stroke-opacity:1"
       d="m 127.33445,323.27484 77.75491,77.45578 m 173.97613,-77.45578 -77.75491,77.45578"
       id="path11" />
    <path
       style="display:inline;fill:#ffffff;stroke:#ffffff;stroke-width:3;stroke-linecap:butt;stroke-linejoin:miter;stroke-dasharray:none;stroke-opacity:1"
       d="M 122.05871,347.46465 145.167,342.996 m 40.68034,69.14939 4.87374,-24.95243 M 384.34123,347.46465 361.23294,342.996 m -40.68034,69.14939 -4.87374,-24.95243"
       id="path13" />
    <path
       id="path12-7-6-6-9-3"
       style="fill:#ffffff;stroke:#ffffff;stroke-width:0;stroke-linecap:round;stroke-linejoin:round;stroke-dasharray:none;stroke-opacity:1"
       d="m 195.415,387.06 h 5.33182 l 7.16345,7.16345 v 4.99898 z m -13.4,-13.4 h 5.33182 l 7.16345,7.16345 v 4.99898 z m -13.4,-13.4 h 5.33182 l 7.16345,7.16345 v 4.99898 z m -13.4,-13.4 h 5.33182 l 7.16345,7.16345 v 4.99898 z m -13.4,-13.4 h 5.33182 l 7.16345,7.16345 v 4.99898 z m -13.4,-13.4 h 5.33182 l 7.16345,7.16345 v 4.99898 z m 182.56994,67 h -5.33182 l -7.16345,7.16345 v 4.99898 z m 13.4,-13.4 h -5.33182 l -7.16345,7.16345 v 4.99898 z m 13.4,-13.4 h -5.33182 l -7.16345,7.16345 v 4.99898 z m 13.4,-13.4 h -5.33182 l -7.16345,7.16345 v 4.99898 z m 13.4,-13.4 h -5.33182 l -7.16345,7.16345 v 4.99898 z m 13.4,-13.4 h -5.33182 l -7.16345,7.16345 v 4.99898 z" />
  </g>
  <path
     id="rect6"
     style="display:inline;fill:#ffffff;stroke:#000000;stroke-width:0"
     d="m 252.98849,72.903599 c -0.0504,-0.0012 -19.06643,24.630684 -20.36948,26.385157 -0.0478,0.06426 -3.45782,-1.516738 -7.57701,-3.513021 -4.11915,-1.996293 -7.58883,-3.663627 -7.71098,-3.706108 l -0.22188,-0.07799 -2.93474,5.247431 -2.93479,5.247422 -3.98639,3.55888 -3.98551,3.55889 -3.14688,6.39217 c -1.73047,3.5158 -3.29828,6.70341 -3.48409,7.08398 -0.18582,0.38058 -0.31794,0.69184 -0.29375,0.69184 0.0243,0 1.55217,-0.77063 3.39536,-1.71269 1.84318,-0.94204 3.44451,-1.74537 3.55863,-1.78506 0.13426,-0.0467 0.8402,0.54746 1.99763,1.68048 0.9844,0.96363 1.84581,1.77141 1.91424,1.79554 0.15781,0.0557 9.88821,-2.21872 10.08401,-2.35703 0.0799,-0.0565 0.43635,-0.8673 0.7916,-1.80118 l 0.64606,-1.69738 3.09894,-0.98223 c 1.91584,-0.60716 3.12349,-1.0579 3.16373,-1.18013 0.11719,-0.35575 0.80582,-3.74219 0.80582,-3.96272 0,-0.13084 -1.2113,-0.98191 -3.09008,-2.17121 -3.67016,-2.32331 -3.02246,-1.55474 -4.3955,-5.21928 l -1.14216,-3.04726 0.49431,-1.843801 c 0.58515,-2.184185 0.27353,-2.019338 3.32082,-1.759319 1.35593,0.115756 2.56792,0.210771 2.69338,0.210771 0.15197,0 0.80989,1.045204 1.97015,3.130099 l 1.74203,3.13012 2.56295,1.83575 2.56382,1.83576 0.97442,1.7891 0.9744,1.78829 3.4699,0.52771 3.47081,0.52693 0.30172,1.01601 0.30084,1.01523 4.8481,3.42293 4.84721,3.42213 0.4597,-0.0612 c 0.25264,-0.0334 3.65593,-0.38096 7.5628,-0.77228 3.90684,-0.3913 7.12804,-0.73456 7.159,-0.76261 0.031,-0.0281 -1.08922,-0.81692 -2.48929,-1.7529 -1.84128,-1.23095 -2.52128,-1.75662 -2.4582,-1.90092 0.0479,-0.10966 0.32065,-0.76172 0.60611,-1.44882 l 0.51916,-1.24931 -0.77385,-5.27478 c -0.42586,-2.90119 -0.78664,-5.2912 -0.80137,-5.31098 -0.0154,-0.0198 -0.47235,0.1453 -1.01698,0.36683 -1.21889,0.49572 -0.91852,0.89037 -2.74931,-3.611172 l -1.54859,-3.808262 -0.98507,-5.02219 -0.98506,-5.022989 -1.58941,-1.209891 c -0.87444,-0.665134 -1.59031,-1.25791 -1.59031,-1.317682 0,-0.400493 1.89375,-4.26242 2.06154,-4.204058 0.13791,0.04798 4.64137,3.160302 6.12868,4.235422 0.0263,0.01898 0.92642,2.397356 2.00031,5.285245 1.07387,2.88788 2.2487,6.023489 2.61085,6.968153 l 0.65848,1.717486 5.86687,4.674668 c 3.2269,2.57112 5.84281,4.71229 5.81276,4.75831 -0.03,0.046 -1.91851,1.23241 -4.19671,2.63619 -4.90619,3.0231 -4.67262,2.4941 -1.65242,3.75275 l 2.49549,1.04017 1.80862,1.93309 1.80771,1.9323 1.40303,0.0845 c 0.77145,0.0462 1.53261,0.0958 1.69149,0.11023 l 0.28841,0.0258 0.46856,1.56544 c 0.25766,0.86086 0.49281,1.58744 0.52271,1.61455 0.0977,0.0886 8.5913,2.41659 8.64369,2.3691 0.028,-0.0254 -0.92461,-1.07057 -2.11653,-2.32244 l -2.16715,-2.27661 -0.0878,-1.12702 c -0.0482,-0.62018 -0.0741,-1.14002 -0.0567,-1.15441 0.0173,-0.0143 2.06022,0.32166 4.53927,0.74654 2.47905,0.42489 4.6049,0.77502 4.72385,0.77791 0.11901,0.003 -0.75896,-0.88007 -1.95059,-1.96206 l -2.16625,-1.96767 0.31681,-1.75613 c 0.17449,-0.96586 0.31857,-1.87498 0.31949,-2.01997 9.2e-4,-0.16793 -0.69216,-0.86247 -1.91067,-1.91379 l -1.91334,-1.64993 0.83421,-1.51317 c 0.45882,-0.83211 0.85677,-1.53462 0.88389,-1.56145 0.0272,-0.0268 0.6906,0.28929 1.47404,0.7023 l 1.42436,0.75056 2.43069,3.19848 2.4316,3.19851 2.87088,1.56947 c 1.57921,0.86295 3.20068,1.74441 3.60302,1.95883 l 0.73125,0.38936 -2.39609,-2.2613 -2.39698,-2.26131 -4.10088,-7.22237 c -2.38563,-4.201563 -4.1747,-7.206586 -4.27658,-7.183731 -0.0962,0.02154 -3.46746,1.311995 -7.49092,2.86705 -4.02346,1.555061 -7.40019,2.826841 -7.50422,2.826841 -0.10406,0 -1.73819,-1.40846 -3.63141,-3.130115 l -3.44241,-3.130096 -3.75652,-7.710664 -3.75746,-7.709846 -1.09509,-0.48026 -1.09599,-0.479456 -2.82652,-3.503376 c -1.55487,-1.926824 -2.86017,-3.503971 -2.90015,-3.504995 z" />
  <path
     id="path14"
     style="display:inline;fill:#ffffff"
     d="M 369.1389 128.30301 C 369.3856 128.27826 369.62736 128.28848 369.86573 128.33426 C 370.50139 128.45634 371.11242 128.82702 371.71905 129.43387 C 374.11664 131.83234 373.45869 138.96794 369.92842 148.86747 C 365.00285 162.67976 355.865 176.31258 343.6313 188.09989 C 341.00533 190.63005 338.85695 192.99258 338.85695 193.34989 L 366.85654 197.09403 C 375.15909 198.34911 379.73783 197.57561 388.05802 193.51004 C 391.7436 191.70916 394.98939 190.4643 395.2695 190.74442 C 396.08755 191.56247 392.95984 198.26184 390.5598 200.83231 C 387.67987 203.91678 383.58649 206.00028 380.4077 206.00028 C 379.00539 206.00028 377.85694 206.40171 377.85694 206.89286 C 377.85694 208.1639 380.46898 209.00028 384.43955 209.00028 C 386.58157 209.00028 387.85819 209.48647 387.85819 210.30301 C 387.85819 212.33332 381.97979 219.82721 379.85915 220.50028 C 378.81296 220.83233 375.08593 219.95446 371.57799 218.55106 C 364.42312 215.68865 363.85715 215.57634 363.85715 217.02372 C 363.85715 217.58723 365.88222 219.2729 368.35722 220.76786 C 370.83222 222.26278 372.85729 223.98904 372.85729 224.60575 C 372.85729 225.22245 371.08801 226.95468 368.92536 228.4534 C 364.41824 231.57686 362.73238 231.35366 357.83876 226.98465 C 356.00042 225.34337 353.45288 224.00028 352.17694 224.00028 C 349.45717 224.00028 349.0764 225.61761 351.60684 226.42215 C 352.56934 226.72817 355.05882 228.44952 357.13936 230.24832 L 360.9224 233.51981 L 356.43212 237.92606 C 350.34319 243.90188 348.22064 242.71629 340.35175 237.29715 C 334.94258 233.57198 328.48667 229.19317 324.27726 232.54911 C 322.34194 234.09203 322.88312 236.62388 323.87369 242.22684 C 324.6891 246.837 324.9271 254.45509 324.6828 259.10965 C 324.2669 267.03359 323.44027 272.5534 318.01595 283.28739 C 314.82968 289.59259 312.78943 293.04861 310.13445 297.46122 C 307.47951 301.87379 299.22028 311.46475 296.38934 317.28739 C 283.96325 342.84527 296.288 353.4795 280.85753 359.27762 C 277.90685 360.38636 269.5659 360.24 262.55553 358.36161 C 255.54516 356.48319 254.31228 356.48319 247.30191 358.36161 C 240.29151 360.24 231.95056 360.38636 228.99991 359.27762 C 213.56941 353.4795 225.89421 342.84527 213.46809 317.28739 C 210.63715 311.46475 202.37795 301.87379 199.72298 297.46122 C 197.068 293.04861 195.02775 289.59259 191.84148 283.28739 C 186.41719 272.5534 185.59054 267.03359 185.17464 259.10965 C 184.93034 254.45509 185.16834 246.837 185.98375 242.22684 C 186.97432 236.62388 187.51552 234.09203 185.58017 232.54911 C 181.37079 229.19317 174.91488 233.57198 169.50568 237.29715 C 161.63682 242.71629 159.51427 243.90188 153.42531 237.92606 L 148.93503 233.51981 L 152.71807 230.24832 C 154.79861 228.44952 157.2881 226.72817 158.2506 226.42215 C 160.78104 225.61761 160.40027 224.00028 157.6805 224.00028 C 156.40456 224.00028 153.85701 225.34337 152.01867 226.98465 C 147.12508 231.35366 145.43922 231.57686 140.93207 228.4534 C 138.76945 226.95468 137.00014 225.22245 137.00014 224.60575 C 137.00014 223.98904 139.02522 222.26278 141.50022 220.76786 C 143.97519 219.2729 146.00029 217.58723 146.00029 217.02372 C 146.00029 215.57634 145.43431 215.68865 138.27944 218.55106 C 134.7715 219.95446 131.04445 220.83233 129.99829 220.50028 C 127.87765 219.82721 121.99924 212.33332 121.99924 210.30301 C 121.99924 209.48647 123.27584 209.00028 125.41789 209.00028 C 129.38843 209.00028 132.0005 208.1639 132.0005 206.89286 C 132.0005 206.40171 130.85204 206.00028 129.44973 206.00028 C 126.27097 206.00028 122.17759 203.91678 119.29763 200.83231 C 116.89759 198.26184 113.76988 191.56247 114.58793 190.74442 C 114.86804 190.4643 118.11386 191.70916 121.79941 193.51004 C 130.11963 197.57561 134.69834 198.34911 143.00089 197.09403 L 171.00048 193.34989 C 171.00048 192.99258 168.85213 190.63005 166.22613 188.09989 C 153.99243 176.31258 144.85458 162.67976 139.92901 148.86747 C 136.39874 138.96794 135.74082 131.83234 138.13838 129.43387 C 140.56491 127.00646 143.04624 128.36126 146.99943 134.26981 C 156.58641 148.59868 181.7366 168.71821 197.03312 174.29715 L 204.54827 177.03739 L 210.52355 171.24247 C 215.62673 166.29431 225.07683 161.63918 238.33506 158.91434 C 251.59332 156.1895 258.26414 156.1895 271.52237 158.91434 C 284.78063 161.63918 294.23068 166.29431 299.33389 171.24247 C 301.32591 173.17396 305.30917 177.03739 305.30917 177.03739 L 312.82431 174.29715 C 328.12086 168.71821 353.27105 148.59868 362.858 134.26981 C 365.45229 130.39231 367.41204 128.47624 369.1389 128.30301 z M 309.48599 227.53934 L 289.82045 241.66629 C 298.29883 252.75714 284.41685 263.98188 275.20746 252.16043 L 266.39342 258.49247 C 284.03869 273.60882 318.3988 244.06993 309.48599 227.53934 z M 200.37145 227.53934 C 191.45861 244.06993 225.81877 273.60882 243.46401 258.49247 L 234.64998 252.16043 C 225.44059 263.98188 211.55861 252.75714 220.03698 241.66629 L 200.37145 227.53934 z M 234.95168 305.31473 C 231.96546 305.23229 228.99706 306.66585 227.46788 309.27176 C 225.80692 311.84635 226.20827 315.02568 226.30026 317.92606 C 226.80634 323.16022 226.81394 328.59208 225.00333 333.59989 C 223.82146 336.33027 223.02937 339.28919 223.2127 342.28543 C 223.2024 345.15494 224.22519 347.99069 226.05145 350.20731 C 227.7059 352.42267 230.30195 353.77727 233.01216 354.18582 C 235.71085 354.79159 238.50668 354.05258 240.87799 352.73856 C 243.32106 351.20039 246.20083 350.59048 249.03376 350.25028 C 254.21456 349.67422 259.5385 349.62289 264.63219 350.85575 C 266.25808 351.13744 267.67941 351.98218 269.06565 352.8284 C 271.67804 354.44981 274.95015 354.79056 277.89339 353.97684 C 280.59189 353.36265 282.9673 351.64751 284.45445 349.3284 C 285.83601 347.34889 286.57676 344.97772 286.63102 342.57059 C 286.76954 340.01807 286.40844 337.4372 285.4105 335.07254 C 283.70538 331.0266 283.12938 326.59646 283.2829 322.2327 C 283.38197 319.45746 283.71884 316.69109 283.65905 313.91043 C 283.64215 311.01137 282.26854 308.0314 279.67814 306.56473 C 276.82576 304.7835 273.19228 305.11236 270.17842 306.29129 C 267.94516 307.21547 265.6241 307.89975 263.38031 308.7952 C 259.87407 310.30825 255.97141 311.01898 252.17225 310.41239 C 249.24443 310.07443 246.58474 308.75397 243.82449 307.82254 C 240.9025 306.88776 238.09608 305.31573 234.95168 305.31473 z M 274.69417 309.32254 C 277.66149 309.197 279.85264 310.93691 279.64876 314.71512 C 279.5784 316.01916 279.62838 317.30827 279.49791 318.6077 C 278.31493 330.3889 281.61255 335.95598 282.09372 337.65067 C 282.7396 339.92535 282.75033 341.49396 282.48555 343.83231 C 282.23258 346.0662 280.11046 348.85778 278.52227 349.52762 C 274.42125 351.25726 272.23562 350.19015 269.87084 348.6409 C 263.83325 344.78587 246.17366 345.07972 239.98659 348.6409 C 237.47593 350.08601 235.43618 351.25726 231.33517 349.52762 C 229.74698 348.85778 227.62485 346.0662 227.37189 343.83231 C 227.10711 341.49396 227.11784 339.92535 227.76371 337.65067 C 228.2449 335.95598 231.5425 330.3889 230.35953 318.6077 C 230.22909 317.30827 230.27899 316.01916 230.20868 314.71512 C 229.93683 309.67751 233.92264 308.26474 238.32919 310.06473 C 241.10572 311.1989 243.77979 311.95329 246.23419 312.99832 C 247.41445 313.50086 251.15642 314.62655 254.91892 314.63895 C 258.68144 314.65131 262.39574 313.52871 263.62324 312.99832 C 266.02494 311.96062 268.7517 311.1989 271.52825 310.06473 C 272.62989 309.61473 273.70506 309.36439 274.69417 309.32254 z M 270.33123 315.95145 C 268.13909 315.89097 265.86621 316.72868 264.55186 318.14676 C 262.34137 320.5317 261.60241 324.25253 261.67393 328.18582 C 261.87333 339.15911 269.48363 341.59726 273.28361 341.88504 C 276.02482 342.09264 276.19569 339.71443 274.81759 339.22098 C 266.5153 335.3169 264.57451 328.14677 266.82051 323.77762 C 267.59451 322.27194 269.11597 320.75336 270.51539 321.12528 C 271.68501 321.43613 272.67225 323.47016 272.32169 324.98856 C 272.0545 326.14581 271.33932 326.68598 271.37152 327.75809 C 271.43957 330.02329 273.38531 330.27575 274.26121 329.42997 C 274.7197 328.98725 276.83969 327.41029 276.92755 323.50809 C 277.00933 319.87622 274.88636 317.47088 273.17194 316.62137 C 272.30632 316.19245 271.32766 315.97894 270.33123 315.95145 z M 239.5262 315.95145 C 238.52977 315.97894 237.55111 316.19245 236.68549 316.62137 C 234.97108 317.47088 232.8481 319.87622 232.92988 323.50809 C 233.01775 327.41029 235.13774 328.98725 235.59623 329.42997 C 236.47212 330.27575 238.41787 330.02329 238.48591 327.75809 C 238.51811 326.68598 237.80293 326.14581 237.53575 324.98856 C 237.18519 323.47016 238.17242 321.43613 239.34204 321.12528 C 240.74147 320.75336 242.26292 322.27194 243.03692 323.77762 C 245.28292 328.14677 243.34213 335.3169 235.03984 339.22098 C 233.66174 339.71443 233.83261 342.09264 236.57382 341.88504 C 240.37381 341.59726 247.98411 339.15911 248.1835 328.18582 C 248.25502 324.25253 247.51606 320.5317 245.30557 318.14676 C 243.99123 316.72868 241.71835 315.89097 239.5262 315.95145 z "
     transform="matrix(-0.99694547,0,0,1,504.15003,-2.7792236e-4)" />
  <path
     style="font-size:45.3333px;line-height:1.25;font-family:Couture;-inkscape-font-specification:Couture;letter-spacing:8px;fill:#ffffff"
     d="m 478.99768,218.33655 c -1.10797,2.98638 -1.2825,3.08954 -2.64908,6.27588 3.18952,1.4118 5.35659,4.44062 5.61092,8.05836 0.37195,5.29094 -3.6221,9.88901 -8.91304,10.26096 -5.24572,0.36877 -9.88901,-3.6221 -10.26096,-8.91303 -0.24479,-3.48207 1.43834,-6.69067 4.0856,-8.46735 -1.70849,-2.97017 -1.86005,-3.18674 -3.50107,-5.84353 -4.73524,3.10504 -7.80332,8.59236 -7.36779,14.78774 0.63582,9.04434 8.56719,15.84888 17.52108,15.21943 9.04434,-0.63582 15.85525,-8.47674 15.21943,-17.52108 -0.44825,-6.37626 -4.35067,-11.46445 -9.74509,-13.85738 z m 0.32902,-13.34911 -0.94577,-4.57381 5.50592,-1.13851 0.94576,4.57382 z m -33.30269,-29.49304 3.77073,-1.55822 -1.85254,-4.48297 23.67176,-9.78211 -2.42389,-5.86557 -29.62112,12.24063 z m -3.42546,-27.27868 c -3.9967,2.23396 -6.18625,0.0821 -6.98251,-1.3425 -1.59252,-2.84913 -0.3881,-5.34004 2.81718,-7.13163 3.32398,-1.85794 5.90337,-0.49523 6.98717,1.44376 1.17227,2.09728 1.41229,4.66371 -2.82184,7.03037 z m 15.09358,-1.89282 c 4.22825,-2.93466 5.02971,-8.00478 2.37551,-12.75334 -2.83115,-5.06512 -9.18881,-8.26298 -20.11048,-2.15832 -3.9967,2.23396 -14.35505,8.23149 -8.91394,17.96602 3.07445,5.50041 8.59749,7.76255 15.44332,3.93608 4.70899,-2.63209 7.03748,-8.03641 4.02938,-13.4181 -1.06168,-1.89942 -2.75304,-3.81042 -5.36025,-4.01503 l 0.0349,-0.12338 c 5.89612,-3.29563 9.18433,-1.96558 10.42296,0.25041 0.95109,1.70157 0.80576,3.39276 -0.95629,4.79313 l -0.0396,0.0221 z m -49.15309,-30.95183 13.77497,18.17171 4.47971,-3.39582 -9.06465,-11.95792 c 3.65809,-0.95265 15.30595,-3.29722 27.66527,-6.57932 l -4.54602,-5.99702 c -12.78294,3.77388 -24.16916,5.86324 -28.40761,6.80072 z m -5.58897,-12.21014 4.81467,4.80196 10.40425,-10.431795 3.87359,-3.883837 -8.9874,-8.963665 5.02606,-5.039359 -4.4937,-4.481832 -5.02605,5.039359 -2.56783,-2.561046 -3.87358,3.883837 2.56783,2.561047 -13.82966,13.866261 4.4616,4.44982 14.05374,-14.090947 4.20482,4.193714 z"
     id="text3"
     transform="rotate(114.10257,249.99539,250.00067)"
     aria-label="C. 1974" />
  <path
     d="m 117.81254,445.10857 6.11604,3.64011 10.29432,-17.29632 c 2.48084,-4.16826 4.99615,-5.20346 9.35918,-2.60669 4.94737,2.94454 3.94121,6.40784 2.13275,9.44638 l -10.29432,17.29632 6.11604,3.64011 10.29432,-17.29632 c 4.52115,-7.59635 2.33013,-13.75386 -5.18831,-18.22864 -7.44054,-4.42842 -14.06091,-3.40972 -18.5357,4.10873 z M 73.88416,381.59605 c -7.001669,6.11085 -7.659046,16.73314 -1.607807,23.6665 6.081047,6.96752 16.63503,7.68451 23.636698,1.57366 6.967519,-6.08105 7.684509,-16.63503 1.603462,-23.60255 C 91.465275,376.3003 80.851674,375.515 73.88416,381.59605 Z m 3.549519,19.16534 c -3.547278,-4.06439 -3.023308,-10.35828 1.041075,-13.90556 4.064383,-3.54727 10.337155,-3.18538 13.884433,0.879 3.547277,4.06438 3.11708,10.39677 -0.947303,13.94405 -4.064383,3.54728 -10.430928,3.14689 -13.978205,-0.91749 z m -12.10052,-38.96785 -7.376909,-12.80585 -5.460164,3.14537 7.376909,12.80585 -6.324364,3.6432 -8.349937,-14.49497 -5.185192,2.98697 11.789477,20.4658 28.165023,-16.22468 -3.439541,-5.97082 -5.224474,3.00959 z M 40.305033,282.02401 c -0.634825,3.12139 -0.791384,3.2502 -1.650942,6.60899 3.368899,0.90375 5.976574,3.56269 6.785024,7.0981 1.182358,5.17053 -2.055903,10.32886 -7.226435,11.51122 -5.12634,1.17225 -10.328862,-2.05591 -11.511221,-7.22644 -0.778133,-3.40283 0.390773,-6.83236 2.732823,-8.99554 -2.145538,-2.67161 -2.328643,-2.86226 -4.359249,-5.23463 -4.200549,3.79727 -6.386932,9.69163 -5.002462,15.74602 2.021126,8.83851 10.905821,14.34039 19.655953,12.33948 8.838517,-2.02113 14.360604,-10.81744 12.339479,-19.65596 -1.424894,-6.23115 -6.064379,-10.65764 -11.76297,-12.19124 z m -3.006328,-91.25028 c -1.088393,5.46874 -2.380524,11.72893 -3.274245,16.21953 l 5.868893,1.16803 c 0.04446,0.009 0.1241,-0.3913 0.292226,-1.23607 0.353949,-1.77845 0.955444,-5.03298 1.238603,-6.45574 l 0.14158,-0.71138 c 2.766756,1.89109 3.837311,5.80195 3.129413,9.35885 -1.061847,5.33536 -6.135149,8.76302 -11.514968,7.69232 -5.335357,-1.06185 -8.754166,-6.17961 -7.692319,-11.51497 0.707898,-3.5569 3.132525,-6.21747 6.305451,-7.29622 -0.936735,-3.422 -1.025875,-3.67085 -1.891168,-6.75508 -5.501524,1.86332 -9.99574,6.56179 -11.216864,12.69745 -1.796291,9.02564 4.115399,17.87511 13.141046,19.6714 9.070108,1.80514 17.919573,-4.10655 19.715864,-13.1322 1.229973,-6.18012 -1.096307,-12.37467 -5.669586,-16.10442 -1.80674,-2.0698 -7.640239,-3.41568 -8.573926,-3.6015 z m 29.401233,-28.06465 2.367114,-5.54523 -29.894212,-12.76106 -2.367114,5.54523 18.595284,7.93784 -24.272798,5.36238 -3.203613,7.50482 29.894212,12.76106 2.438306,-5.71201 -20.596571,-8.79214 z m 18.584851,-46.37441 c -2.737118,1.62919 -2.937733,1.59994 -6.001685,3.22244 1.596592,3.10115 1.382227,6.81921 -0.690758,9.79502 -3.031741,4.35212 -9.027181,5.42422 -13.379298,2.39248 -4.31492,-3.00583 -5.424219,-9.02718 -2.392479,-13.3793 1.995248,-2.86422 5.319584,-4.30533 8.495568,-4.0266 0.534517,-3.38454 0.552485,-3.64827 0.942814,-6.74651 -5.635188,-0.55539 -11.468033,1.79019 -15.018019,6.88626 -5.182463,7.43952 -3.279853,17.71515 4.085269,22.84578 7.439517,5.18247 17.66332,3.35425 22.845783,-4.08527 3.653635,-5.24485 3.809876,-11.65533 1.112805,-16.9043 z m 21.384361,-9.98739 5.12353,-4.94022 -18.281982,-18.960319 7.342632,-7.079942 -4.153562,-4.307679 -19.874065,19.163041 4.122099,4.275045 7.407902,-7.142874 z m 30.78177,-39.444909 c 3.8895,-3.919619 3.41789,-8.905617 1.02961,-12.597859 -2.85608,-4.415466 -8.26473,-7.017863 -15.11632,-2.586013 l -12.25672,7.928087 17.60429,27.216017 6.01417,-3.890179 -6.3277,-9.782541 2.93096,-1.895847 13.17928,5.350691 7.30836,-4.727307 -14.13754,-5.162777 z m -12.6816,-9.505922 c 2.85482,-1.846604 5.55951,-2.840229 7.8493,0.699756 2.24055,3.463857 0.29912,5.637477 -2.5557,7.484082 l -4.64386,3.003809 -5.29359,-8.183837 z"
     id="text2"
     style="font-size:45.3333px;line-height:1.25;font-family:Couture;-inkscape-font-specification:Couture;text-align:center;letter-spacing:8px;text-anchor:middle;fill:#ffffff;stroke-width:0.999999"
     transform="rotate(90.55282,249.96968,249.97289)"
     aria-label="U of C  GNCTR" />
</svg>
